<svg width="60" height="60" viewBox="0 0 60 60" fill="none" xmlns="http://www.w3.org/2000/svg">
<rect width="60" height="60" rx="12" fill="#FFEF7D"/>
<g clip-path="url(#clip0_4134_1898)">
<path d="M24.68 33.0167C27.5534 33.0167 29.8834 30.7283 29.8834 27.905C29.8834 25.0817 27.5534 22.7933 24.68 22.7933C21.8067 22.7933 19.4767 25.0817 19.4767 27.905C19.4767 30.7283 21.8067 33.0167 24.68 33.0167Z" fill="white"/>
<path d="M35.0867 33.0167C37.96 33.0167 40.29 30.7283 40.29 27.905C40.29 25.0817 37.96 22.7933 35.0867 22.7933C32.2134 22.7933 29.8834 25.0817 29.8834 27.905C29.8834 30.7283 32.2134 33.0167 35.0867 33.0167Z" fill="white"/>
<path d="M16.6883 41.425C19.62 41.425 21.9967 39.09 21.9967 36.21C21.9967 33.33 19.62 30.995 16.6883 30.995C13.7567 30.995 11.38 33.33 11.38 36.21C11.38 39.09 13.7567 41.425 16.6883 41.425Z" fill="#FBB03B"/>
<path d="M43.3117 41.425C46.2434 41.425 48.62 39.09 48.62 36.21C48.62 33.33 46.2434 30.995 43.3117 30.995C40.38 30.995 38.0034 33.33 38.0034 36.21C38.0034 39.09 40.38 41.425 43.3117 41.425Z" fill="#FBB03B"/>
<path d="M24.5783 30.9033C24.56 30.9033 24.5416 30.9033 24.5233 30.9033C22.5766 30.8833 21.1483 29.8899 20.8866 28.3749C20.84 28.1033 21.0216 27.8449 21.295 27.7966C21.5666 27.7499 21.8266 27.9316 21.8733 28.2049C22.0866 29.4399 23.44 29.8916 24.535 29.9033C24.55 29.9033 24.565 29.9033 24.58 29.9033C25.8666 29.9033 27.2683 29.3216 27.4866 28.1949C27.54 27.9233 27.8016 27.7466 28.0733 27.7999C28.345 27.8533 28.5216 28.1149 28.4683 28.3866C28.1316 30.1216 26.2266 30.9049 24.5783 30.9049V30.9033Z" fill="#5E4C31"/>
<path d="M34.9867 30.9033C34.9684 30.9033 34.95 30.9033 34.9317 30.9033C32.985 30.8833 31.5567 29.8899 31.295 28.3749C31.2484 28.1033 31.43 27.8449 31.7034 27.7966C31.975 27.7499 32.2334 27.9316 32.2817 28.2049C32.495 29.4399 33.8484 29.8916 34.9434 29.9033C36.2434 29.9183 37.6734 29.3349 37.895 28.1949C37.9484 27.9233 38.21 27.7466 38.4817 27.7999C38.7534 27.8533 38.93 28.1149 38.8767 28.3866C38.54 30.1216 36.635 30.9049 34.9867 30.9049V30.9033Z" fill="#5E4C31"/>
<path d="M22.4533 21.0533C22.0383 21.0533 21.62 20.9833 21.205 20.8217C20.99 20.7383 20.885 20.4967 20.9683 20.2817C21.0517 20.0667 21.2917 19.9617 21.5083 20.0433C23.2783 20.73 25.2817 19.2483 25.8583 18.26C25.975 18.0617 26.23 17.995 26.4283 18.11C26.6267 18.2267 26.6933 18.4817 26.5783 18.68C25.99 19.6867 24.2783 21.05 22.455 21.05L22.4533 21.0533Z" fill="#5E4C31"/>
<path d="M37.5466 21.0533C35.7233 21.0533 34.0116 19.69 33.4233 18.6833C33.3066 18.485 33.375 18.23 33.5733 18.1133C33.7716 17.9983 34.0266 18.065 34.1433 18.2633C34.72 19.2516 36.725 20.735 38.4933 20.0466C38.7083 19.9633 38.95 20.07 39.0333 20.285C39.1166 20.5 39.01 20.7416 38.7966 20.825C38.3833 20.985 37.9633 21.0566 37.5483 21.0566L37.5466 21.0533Z" fill="#5E4C31"/>
<path d="M33.4217 33.4917C32.9617 32.8784 32.085 32.6667 31.4133 32.58C30.9467 32.52 30.4733 32.4884 29.9983 32.4867C29.5233 32.4884 29.05 32.52 28.5833 32.58C27.9117 32.6667 27.0367 32.8784 26.575 33.4917C26.2767 33.89 26.1833 34.31 26.3317 34.9084C26.78 36.7267 27.9517 38.645 29.8067 38.835C29.8667 38.8417 29.9317 38.845 29.9967 38.8484C30.0633 38.845 30.1267 38.8417 30.1867 38.835C32.0417 38.645 33.2133 36.7267 33.6617 34.9084C33.8083 34.31 33.7167 33.89 33.4183 33.4917H33.4217Z" fill="#E5786B"/>
</g>
<defs>
<clipPath id="clip0_4134_1898">
<rect width="44" height="34" fill="white" transform="translate(8 13)"/>
</clipPath>
</defs>
</svg>
