<svg width="60" height="60" viewBox="0 0 60 60" fill="none" xmlns="http://www.w3.org/2000/svg">
<rect width="60" height="60" rx="12" fill="#FFEF7D"/>
<g clip-path="url(#clip0_4134_1852)">
<path d="M19.9184 19.1334C20.0567 18.9867 20.2017 18.8467 20.355 18.715C20.4284 18.6517 20.505 18.5917 20.5817 18.53C20.6267 18.495 20.5684 18.54 20.5634 18.545C20.585 18.5284 20.6084 18.5117 20.63 18.495C20.675 18.4617 20.72 18.43 20.7667 18.3984C20.9284 18.2884 21.095 18.1867 21.2667 18.0934C21.3534 18.0467 21.44 18.0017 21.5284 17.96C21.5734 17.94 21.6167 17.9184 21.6617 17.8984C21.6867 17.8867 21.7134 17.875 21.7384 17.865C21.7484 17.86 21.8317 17.825 21.775 17.8484C21.725 17.87 21.85 17.8184 21.8717 17.81C21.9167 17.7917 21.9634 17.775 22.01 17.7584C22.11 17.7217 22.2084 17.69 22.3084 17.6584C22.5017 17.6 22.7 17.55 22.9 17.51C22.9967 17.49 23.0934 17.4734 23.19 17.4584C23.2117 17.455 23.2317 17.4517 23.2517 17.45C23.2334 17.4534 23.1467 17.4617 23.2434 17.45C23.2984 17.4434 23.355 17.4367 23.41 17.4317C23.605 17.4134 23.8017 17.405 23.9984 17.405C24.23 17.405 24.46 17.4234 24.69 17.4484C24.7484 17.455 24.6667 17.445 24.6617 17.4434C24.6967 17.4484 24.73 17.4534 24.765 17.4584C24.82 17.4667 24.875 17.4767 24.9317 17.4867C25.0484 17.5084 25.165 17.535 25.28 17.565C25.535 17.63 25.8367 17.4834 25.8984 17.2217C25.96 16.96 25.82 16.6834 25.5484 16.615C23.8084 16.175 21.885 16.4984 20.3834 17.4667C19.955 17.7434 19.5567 18.0667 19.21 18.4367C19.0317 18.6267 19.005 18.95 19.21 19.1334C19.4034 19.3084 19.73 19.3367 19.9184 19.1334Z" fill="#5E4C31"/>
<path d="M34.52 17.6834C34.715 17.6267 34.9133 17.58 35.115 17.545C35.1633 17.5367 35.2116 17.53 35.26 17.5217C35.27 17.5217 35.3383 17.51 35.2766 17.5184C35.2083 17.5284 35.2983 17.5167 35.315 17.5134C35.42 17.5017 35.525 17.4917 35.63 17.485C35.8266 17.4734 36.0216 17.47 36.2183 17.4767C36.3166 17.48 36.415 17.485 36.5133 17.495C36.5616 17.5 36.6116 17.5034 36.66 17.51C36.6883 17.5134 36.715 17.5167 36.7433 17.52C36.82 17.5284 36.66 17.5067 36.735 17.52C37.1383 17.5817 37.535 17.6717 37.92 17.8067C38.0133 17.8384 38.1033 17.875 38.195 17.91C38.2483 17.93 38.1783 17.9017 38.1733 17.9C38.1983 17.9117 38.225 17.9217 38.25 17.9334C38.3016 17.955 38.3533 17.98 38.4033 18.0017C38.58 18.085 38.7533 18.1767 38.9216 18.2767C39.0233 18.3367 39.1233 18.4 39.2216 18.4667C39.2666 18.4984 39.3133 18.53 39.3583 18.5634C39.375 18.575 39.3916 18.5884 39.4083 18.6C39.4833 18.6567 39.3783 18.5734 39.4233 18.6117C39.6016 18.7584 39.775 18.905 39.9383 19.0684C40.1216 19.2517 40.465 19.2634 40.6466 19.0684C40.8283 18.8734 40.8433 18.5684 40.6466 18.3717C39.3866 17.115 37.5666 16.4267 35.775 16.4967C35.2616 16.5167 34.7466 16.595 34.255 16.7384C34.0033 16.81 33.82 17.0884 33.905 17.345C33.99 17.6017 34.2533 17.7667 34.5233 17.6884H34.5216L34.52 17.6834Z" fill="#5E4C31"/>
<path d="M24.725 34.7917C27.5983 34.7917 29.9283 32.5034 29.9283 29.68C29.9283 26.8567 27.5983 24.5684 24.725 24.5684C21.8517 24.5684 19.5217 26.8567 19.5217 29.68C19.5217 32.5034 21.8517 34.7917 24.725 34.7917Z" fill="white"/>
<path d="M35.1333 34.7917C38.0067 34.7917 40.3367 32.5034 40.3367 29.68C40.3367 26.8567 38.0067 24.5684 35.1333 24.5684C32.26 24.5684 29.93 26.8567 29.93 29.68C29.93 32.5034 32.26 34.7917 35.1333 34.7917Z" fill="white"/>
<path d="M16.7333 43.2C19.665 43.2 22.0417 40.865 22.0417 37.985C22.0417 35.105 19.665 32.77 16.7333 32.77C13.8017 32.77 11.425 35.105 11.425 37.985C11.425 40.865 13.8017 43.2 16.7333 43.2Z" fill="#FBB03B"/>
<path d="M43.3583 43.2C46.29 43.2 48.6667 40.865 48.6667 37.985C48.6667 35.105 46.29 32.77 43.3583 32.77C40.4267 32.77 38.05 35.105 38.05 37.985C38.05 40.865 40.4267 43.2 43.3583 43.2Z" fill="#FBB03B"/>
<path d="M24.625 32.6783C24.6067 32.6783 24.5883 32.6783 24.57 32.6783C22.6233 32.6583 21.195 31.665 20.9333 30.15C20.8867 29.8783 21.0683 29.62 21.3417 29.5716C21.6133 29.525 21.8717 29.7066 21.92 29.98C22.1333 31.215 23.4867 31.6666 24.5817 31.6783C25.875 31.695 27.3117 31.11 27.5333 29.97C27.5867 29.6983 27.8483 29.5216 28.12 29.575C28.3917 29.6283 28.5683 29.89 28.515 30.1616C28.1783 31.8966 26.2733 32.68 24.625 32.68V32.6783Z" fill="#5E4C31"/>
<path d="M35.0317 32.6783C35.0133 32.6783 34.995 32.6783 34.9767 32.6783C33.03 32.6583 31.6017 31.665 31.34 30.15C31.2933 29.8783 31.475 29.62 31.7483 29.5716C32.02 29.525 32.2783 29.7066 32.3267 29.98C32.54 31.215 33.8933 31.6666 34.9883 31.6783C35.0033 31.6783 35.0183 31.6783 35.0333 31.6783C36.32 31.6783 37.7217 31.0966 37.94 29.97C37.9933 29.6983 38.255 29.5216 38.5267 29.575C38.7983 29.6283 38.975 29.89 38.9217 30.1616C38.585 31.8966 36.68 32.68 35.0317 32.68V32.6783Z" fill="#5E4C31"/>
<path d="M33.215 35.4017C32.7883 34.7884 31.9783 34.5767 31.3567 34.4901C30.925 34.4301 30.4867 34.3984 30.0467 34.3967C29.6067 34.3984 29.1683 34.4301 28.7367 34.4901C28.115 34.5767 27.305 34.7884 26.8783 35.4017C26.6017 35.8001 26.5167 36.2201 26.6533 36.8184C27.0683 38.6367 28.1533 40.5551 29.8717 40.7451C29.9267 40.7517 29.9867 40.7551 30.0483 40.7584C30.11 40.7551 30.1683 40.7517 30.225 40.7451C31.9433 40.5551 33.0283 38.6367 33.4433 36.8184C33.58 36.2201 33.495 35.8001 33.2183 35.4017H33.215Z" fill="#E5786B"/>
</g>
<defs>
<clipPath id="clip0_4134_1852">
<rect width="44" height="34" fill="white" transform="translate(8 13)"/>
</clipPath>
</defs>
</svg>
