<svg width="60" height="60" viewBox="0 0 60 60" fill="none" xmlns="http://www.w3.org/2000/svg">
<rect width="60" height="60" rx="12" fill="#FFEF7D"/>
<g clip-path="url(#clip0_4134_1977)">
<path d="M29.0917 24.8817L19.5084 27.0267C19.4884 27.2117 19.4767 27.4 19.4767 27.59C19.4767 30.4134 21.8067 32.7017 24.68 32.7017C27.5534 32.7017 29.8834 30.4134 29.8834 27.59C29.8834 26.595 29.5934 25.6667 29.0934 24.8817H29.0917Z" fill="white"/>
<path d="M30.7234 24.8051C30.1934 25.6067 29.8834 26.5617 29.8834 27.5884C29.8834 30.4117 32.2134 32.7001 35.0867 32.7001C37.96 32.7001 40.29 30.4117 40.29 27.5884C40.29 27.3667 40.2734 27.1484 40.2467 26.9351L30.7234 24.8051Z" fill="white"/>
<path d="M16.6883 41.1101C19.62 41.1101 21.9967 38.7751 21.9967 35.8951C21.9967 33.0151 19.62 30.6801 16.6883 30.6801C13.7567 30.6801 11.38 33.0151 11.38 35.8951C11.38 38.7751 13.7567 41.1101 16.6883 41.1101Z" fill="#FBB03B"/>
<path d="M43.3117 41.1101C46.2434 41.1101 48.62 38.7751 48.62 35.8951C48.62 33.0151 46.2434 30.6801 43.3117 30.6801C40.38 30.6801 38.0034 33.0151 38.0034 35.8951C38.0034 38.7751 40.38 41.1101 43.3117 41.1101Z" fill="#FBB03B"/>
<path d="M33.6167 34.6634C33.1433 33.3817 31.4733 32.4934 30 32.5667C28.525 32.4934 26.8567 33.3834 26.3834 34.6634C26.2867 34.9251 26.24 35.2034 26.255 35.4917C26.2967 36.2867 27.03 36.2451 27.6717 36.0334C28.365 35.8051 29.1 35.6901 29.835 35.6867V35.6934C29.89 35.6917 29.945 35.6917 30 35.6901C30.055 35.6901 30.11 35.6901 30.165 35.6934V35.6867C30.9 35.6884 31.635 35.8034 32.3284 36.0334C32.97 36.2451 33.7034 36.2867 33.745 35.4917C33.76 35.2017 33.7133 34.9251 33.6167 34.6634Z" fill="#E5786B"/>
<path d="M27.665 25.2017L23.675 26.095C23.3984 26.53 23.2367 27.0417 23.2367 27.5917C23.2367 29.155 24.53 30.4267 26.12 30.4267C27.71 30.4267 29.0034 29.155 29.0034 27.5917C29.0034 26.5883 28.4684 25.7067 27.6667 25.2033L27.665 25.2017Z" fill="#5E4C31"/>
<path d="M32.2066 25.1384C31.345 25.6301 30.7633 26.5434 30.7633 27.5901C30.7633 29.1534 32.0566 30.4251 33.6466 30.4251C35.2366 30.4251 36.53 29.1534 36.53 27.5901C36.53 26.9984 36.3433 26.4484 36.0266 25.9917L32.2066 25.1367V25.1384Z" fill="#5E4C31"/>
<path d="M19.62 27.4184C19.4317 27.4184 19.26 27.29 19.215 27.0984C19.1617 26.875 19.3 26.65 19.5233 26.5967L28.795 24.3784C29.02 24.325 29.2433 24.4634 29.2967 24.6867C29.35 24.91 29.2117 25.135 28.9883 25.1884L19.7167 27.4067C19.6833 27.415 19.6517 27.4184 19.62 27.4184Z" fill="#5E4C31"/>
<path d="M40.3217 27.4184C40.29 27.4184 40.2567 27.4151 40.225 27.4067L30.835 25.1601C30.6117 25.1067 30.4734 24.8817 30.5267 24.6584C30.58 24.4351 30.8034 24.2967 31.0284 24.3501L40.4184 26.5967C40.6417 26.6501 40.78 26.8751 40.7267 27.0984C40.6817 27.2901 40.51 27.4184 40.3217 27.4184Z" fill="#5E4C31"/>
</g>
<defs>
<clipPath id="clip0_4134_1977">
<rect width="44" height="34" fill="white" transform="translate(8 13)"/>
</clipPath>
</defs>
</svg>
