<svg width="60" height="60" viewBox="0 0 60 60" fill="none" xmlns="http://www.w3.org/2000/svg">
<rect width="60" height="60" rx="12" fill="#FFEF7D"/>
<g clip-path="url(#clip0_4134_1807)">
<path d="M24.68 34.7917C27.5534 34.7917 29.8834 32.5034 29.8834 29.68C29.8834 26.8567 27.5534 24.5684 24.68 24.5684C21.8067 24.5684 19.4767 26.8567 19.4767 29.68C19.4767 32.5034 21.8067 34.7917 24.68 34.7917Z" fill="white"/>
<path d="M35.0867 34.7917C37.96 34.7917 40.29 32.5034 40.29 29.68C40.29 26.8567 37.96 24.5684 35.0867 24.5684C32.2134 24.5684 29.8834 26.8567 29.8834 29.68C29.8834 32.5034 32.2134 34.7917 35.0867 34.7917Z" fill="white"/>
<path d="M16.6883 43.2C19.62 43.2 21.9967 40.865 21.9967 37.985C21.9967 35.105 19.62 32.77 16.6883 32.77C13.7567 32.77 11.38 35.105 11.38 37.985C11.38 40.865 13.7567 43.2 16.6883 43.2Z" fill="#FBB03B"/>
<path d="M43.3117 43.2C46.2434 43.2 48.62 40.865 48.62 37.985C48.62 35.105 46.2434 32.77 43.3117 32.77C40.38 32.77 38.0034 35.105 38.0034 37.985C38.0034 40.865 40.38 43.2 43.3117 43.2Z" fill="#FBB03B"/>
<path d="M23.9017 32.3867C23.69 32.3867 23.4867 32.2717 23.3817 32.07C23.235 31.7833 23.3467 31.4317 23.6333 31.285L26.81 29.6517L23.64 28.0783C23.3517 27.935 23.2333 27.585 23.3767 27.2967C23.52 27.0083 23.87 26.89 24.1583 27.0333L28.3617 29.12C28.5583 29.2183 28.6833 29.4183 28.685 29.6383C28.6867 29.8583 28.5633 30.06 28.3683 30.1617L24.165 32.3233C24.08 32.3667 23.9883 32.3883 23.8983 32.3883L23.9017 32.3867Z" fill="#5E4C31"/>
<path d="M36.2433 32.3866C36.1533 32.3866 36.0617 32.3666 35.9767 32.3216L31.7733 30.16C31.5783 30.06 31.455 29.8566 31.4567 29.6366C31.4583 29.4166 31.5833 29.2166 31.78 29.1183L35.9833 27.0316C36.2717 26.8883 36.6217 27.0066 36.765 27.295C36.9083 27.5833 36.79 27.9333 36.5017 28.0766L33.3317 29.65L36.5083 31.2833C36.795 31.43 36.9083 31.7816 36.76 32.0683C36.6567 32.27 36.4517 32.385 36.24 32.385L36.2433 32.3866Z" fill="#5E4C31"/>
<path d="M27.8683 22.6534C27.8083 22.6534 27.7467 22.64 27.6883 22.6117L24.895 21.2684C24.6883 21.1684 24.6 20.92 24.7 20.7117C24.8 20.505 25.0483 20.4167 25.2567 20.5167L28.05 21.86C28.2567 21.96 28.345 22.2084 28.245 22.4167C28.1733 22.5667 28.025 22.6534 27.87 22.6534H27.8683Z" fill="#5E4C31"/>
<path d="M31.9084 22.6534C31.7534 22.6534 31.605 22.5667 31.5334 22.4167C31.4334 22.21 31.5217 21.96 31.7284 21.86L34.5217 20.5167C34.7284 20.4167 34.9784 20.505 35.0784 20.7117C35.1784 20.9184 35.09 21.1684 34.8834 21.2684L32.09 22.6117C32.0317 22.64 31.97 22.6534 31.91 22.6534H31.9084Z" fill="#5E4C31"/>
<path d="M32.21 34.5316C32.0516 34.3416 31.7733 34.3116 31.605 34.3116H28.16C27.9916 34.3116 27.715 34.3433 27.555 34.5316C27.3516 34.8366 27.2883 35.1583 27.39 35.6166C27.695 37.01 28.4916 38.4783 29.7533 38.6233C29.7933 38.6283 29.8383 38.6316 29.8833 38.6333C29.9283 38.63 29.9716 38.6283 30.0133 38.6233C31.275 38.4783 32.0716 37.0083 32.3766 35.6166C32.4766 35.1583 32.415 34.8366 32.2116 34.5316H32.21Z" fill="#E5786B"/>
</g>
<defs>
<clipPath id="clip0_4134_1807">
<rect width="44" height="34" fill="white" transform="translate(8 13)"/>
</clipPath>
</defs>
</svg>
