<svg width="60" height="60" viewBox="0 0 60 60" fill="none" xmlns="http://www.w3.org/2000/svg">
<rect width="60" height="60" rx="12" fill="#FFEF7D"/>
<g clip-path="url(#clip0_4134_1944)">
<path d="M34.7033 22.39C32.0083 22.5833 29.8817 24.79 29.8817 27.4867C29.8817 30.1833 32.2117 32.5983 35.085 32.5983C37.9583 32.5983 40.2883 30.31 40.2883 27.4867C40.2883 26.4417 39.9683 25.4717 39.4217 24.6617C37.6167 24.6567 35.695 23.4567 34.7033 22.39Z" fill="white"/>
<path d="M25.3084 22.4133C24.3034 23.5467 22.1934 24.88 20.2717 24.7717C19.7684 25.5583 19.4767 26.4883 19.4767 27.4867C19.4767 30.31 21.8067 32.5983 24.68 32.5983C27.5534 32.5983 29.8834 30.31 29.8834 27.4867C29.8834 24.8717 27.885 22.7183 25.3084 22.4133Z" fill="white"/>
<path d="M16.6883 41.0067C19.62 41.0067 21.9967 38.6717 21.9967 35.7917C21.9967 32.9117 19.62 30.5767 16.6883 30.5767C13.7567 30.5767 11.38 32.9117 11.38 35.7917C11.38 38.6717 13.7567 41.0067 16.6883 41.0067Z" fill="#FBB03B"/>
<path d="M43.3117 41.0067C46.2434 41.0067 48.62 38.6717 48.62 35.7917C48.62 32.9117 46.2434 30.5767 43.3117 30.5767C40.38 30.5767 38.0034 32.9117 38.0034 35.7917C38.0034 38.6717 40.38 41.0067 43.3117 41.0067Z" fill="#FBB03B"/>
<path d="M26.12 25.8367C24.53 25.8367 23.2367 27.1083 23.2367 28.6717C23.2367 30.235 24.53 31.5067 26.12 31.5067C27.71 31.5067 29.0034 30.235 29.0034 28.6717C29.0034 27.1083 27.71 25.8367 26.12 25.8367Z" fill="#5E4C31"/>
<path d="M33.6466 25.8367C32.0566 25.8367 30.7633 27.1083 30.7633 28.6717C30.7633 30.235 32.0566 31.5067 33.6466 31.5067C35.2366 31.5067 36.53 30.235 36.53 28.6717C36.53 27.1083 35.2366 25.8367 33.6466 25.8367Z" fill="#5E4C31"/>
<path d="M40.0217 25.1367C36.9283 25.1367 34.1117 22.9133 33.4667 21.2617C33.3833 21.0467 33.4883 20.805 33.7033 20.7217C33.9183 20.6383 34.16 20.7433 34.2433 20.9583C34.815 22.4233 37.5733 24.5 40.425 24.2883C40.655 24.27 40.8533 24.4433 40.8717 24.6733C40.8883 24.9033 40.7167 25.1033 40.4867 25.12C40.3317 25.1317 40.1767 25.1367 40.0233 25.1367H40.0217Z" fill="#5E4C31"/>
<path d="M28.055 34.4884C27.9933 34.4884 27.9317 34.4717 27.875 34.435C27.72 34.335 27.675 34.13 27.775 33.975C28.2467 33.24 28.9983 32.8117 29.835 32.8C30.6933 32.7884 31.475 33.2134 31.9867 33.9667C32.09 34.1184 32.0517 34.3267 31.8983 34.43C31.7467 34.5334 31.5383 34.495 31.435 34.3417C31.055 33.7834 30.485 33.4667 29.8667 33.4667C29.8583 33.4667 29.85 33.4667 29.8417 33.4667C29.2317 33.475 28.6817 33.7917 28.3333 34.335C28.27 34.435 28.1617 34.4884 28.0517 34.4884H28.055Z" fill="#5E4C31"/>
<path d="M19.9017 25.1367C19.7467 25.1367 19.5934 25.1317 19.4384 25.12C19.2084 25.1033 19.0367 24.9033 19.0534 24.6733C19.07 24.4433 19.2684 24.27 19.5 24.2883C22.3534 24.495 25.11 22.4217 25.6817 20.9583C25.765 20.7433 26.0067 20.6383 26.2217 20.7217C26.4367 20.805 26.5417 21.0467 26.4584 21.2617C25.8134 22.9117 22.995 25.1367 19.9034 25.1367H19.9017Z" fill="#5E4C31"/>
<path d="M19.98 32.8C21.0809 32.8 21.9734 31.9076 21.9734 30.8067C21.9734 29.7058 21.0809 28.8134 19.98 28.8134C18.8791 28.8134 17.9867 29.7058 17.9867 30.8067C17.9867 31.9076 18.8791 32.8 19.98 32.8Z" fill="white"/>
<path d="M39.6167 33.0483C40.7176 33.0483 41.61 32.1559 41.61 31.055C41.61 29.9541 40.7176 29.0616 39.6167 29.0616C38.5158 29.0616 37.6234 29.9541 37.6234 31.055C37.6234 32.1559 38.5158 33.0483 39.6167 33.0483Z" fill="white"/>
</g>
<defs>
<clipPath id="clip0_4134_1944">
<rect width="44" height="34" fill="white" transform="translate(8 13)"/>
</clipPath>
</defs>
</svg>
