<svg width="60" height="60" viewBox="0 0 60 60" fill="none" xmlns="http://www.w3.org/2000/svg">
<rect width="60" height="60" rx="12" fill="#FFEF7D"/>
<g clip-path="url(#clip0_4134_1868)">
<path d="M24.5617 33.1417C27.435 33.1417 29.765 30.8533 29.765 28.03C29.765 25.2067 27.435 22.9183 24.5617 22.9183C21.6883 22.9183 19.3583 25.2067 19.3583 28.03C19.3583 30.8533 21.6883 33.1417 24.5617 33.1417Z" fill="white"/>
<path d="M26.0033 25.1949C24.4133 25.1949 23.12 26.4666 23.12 28.0299C23.12 29.5933 24.4133 30.8649 26.0033 30.8649C27.5933 30.8649 28.8867 29.5933 28.8867 28.0299C28.8867 26.4666 27.5933 25.1949 26.0033 25.1949Z" fill="#5E4C31"/>
<path d="M34.97 33.1417C37.8433 33.1417 40.1733 30.8533 40.1733 28.03C40.1733 25.2067 37.8433 22.9183 34.97 22.9183C32.0967 22.9183 29.7667 25.2067 29.7667 28.03C29.7667 30.8533 32.0967 33.1417 34.97 33.1417Z" fill="white"/>
<path d="M33.5284 25.1949C31.9384 25.1949 30.645 26.4666 30.645 28.0299C30.645 29.5933 31.9384 30.8649 33.5284 30.8649C35.1184 30.8649 36.4117 29.5933 36.4117 28.0299C36.4117 26.4666 35.1184 25.1949 33.5284 25.1949Z" fill="#5E4C31"/>
<path d="M16.57 41.55C19.5017 41.55 21.8783 39.215 21.8783 36.335C21.8783 33.455 19.5017 31.12 16.57 31.12C13.6383 31.12 11.2617 33.455 11.2617 36.335C11.2617 39.215 13.6383 41.55 16.57 41.55Z" fill="#FBB03B"/>
<path d="M43.195 41.55C46.1267 41.55 48.5033 39.215 48.5033 36.335C48.5033 33.455 46.1267 31.12 43.195 31.12C40.2633 31.12 37.8867 33.455 37.8867 36.335C37.8867 39.215 40.2633 41.55 43.195 41.55Z" fill="#FBB03B"/>
<path d="M29.705 35.1466C28.2817 35.1466 26.88 34.8566 26.2783 34.2766C26.145 34.1483 26.1417 33.9383 26.2683 33.805C26.395 33.6716 26.6067 33.6683 26.74 33.795C27.6233 34.645 31.585 34.7766 32.8117 33.7766C32.9533 33.66 33.165 33.6816 33.28 33.825C33.3967 33.9683 33.375 34.1783 33.2317 34.2933C32.535 34.8616 31.1083 35.145 29.7033 35.145L29.705 35.1466Z" fill="#5E4C31"/>
<path d="M21.9967 20.32C21.8717 20.32 21.7483 20.2633 21.665 20.1567C21.525 19.9733 21.56 19.7117 21.7417 19.5717C23.1883 18.4617 24.8683 17.6183 27.345 18.95C27.5483 19.0583 27.6233 19.3117 27.515 19.515C27.4067 19.7183 27.1533 19.7933 26.95 19.685C24.9983 18.635 23.7033 19.1167 22.2483 20.2333C22.1733 20.2917 22.0833 20.32 21.995 20.32H21.9967Z" fill="#5E4C31"/>
<path d="M37.545 20.32C37.4567 20.32 37.3667 20.2917 37.2917 20.2333C35.835 19.1167 34.5417 18.635 32.59 19.685C32.3867 19.7933 32.135 19.7183 32.025 19.515C31.9167 19.3117 31.9917 19.06 32.195 18.95C34.6717 17.6183 36.3517 18.4617 37.7983 19.5717C37.9817 19.7117 38.015 19.9733 37.875 20.1567C37.7933 20.2633 37.67 20.32 37.5433 20.32H37.545Z" fill="#5E4C31"/>
</g>
<defs>
<clipPath id="clip0_4134_1868">
<rect width="44" height="34" fill="white" transform="translate(8 13)"/>
</clipPath>
</defs>
</svg>
