<svg width="60" height="60" viewBox="0 0 60 60" fill="none" xmlns="http://www.w3.org/2000/svg">
<g clip-path="url(#clip0_4134_2028)">
<rect width="60" height="60" rx="12" fill="#FFEF7D"/>
<rect width="60" height="60" rx="12" fill="url(#paint0_linear_4134_2028)"/>
</g>
<g clip-path="url(#clip1_4134_2028)">
<path d="M24.68 30.9084C27.5534 30.9084 29.8834 28.6201 29.8834 25.7967C29.8834 22.9734 27.5534 20.6851 24.68 20.6851C21.8067 20.6851 19.4767 22.9734 19.4767 25.7967C19.4767 28.6201 21.8067 30.9084 24.68 30.9084Z" fill="white"/>
<path d="M24.71 28.6317C26.3015 28.6317 27.5917 27.3624 27.5917 25.7967C27.5917 24.2309 26.3015 22.9617 24.71 22.9617C23.1185 22.9617 21.8284 24.2309 21.8284 25.7967C21.8284 27.3624 23.1185 28.6317 24.71 28.6317Z" fill="#5E4C31"/>
<path d="M35.0867 30.9084C37.96 30.9084 40.29 28.6201 40.29 25.7967C40.29 22.9734 37.96 20.6851 35.0867 20.6851C32.2134 20.6851 29.8834 22.9734 29.8834 25.7967C29.8834 28.6201 32.2134 30.9084 35.0867 30.9084Z" fill="white"/>
<path d="M35.0867 22.9617C33.4967 22.9617 32.2034 24.2333 32.2034 25.7967C32.2034 27.36 33.4967 28.6317 35.0867 28.6317C36.6767 28.6317 37.9684 27.36 37.9684 25.7967C37.9684 24.2333 36.675 22.9617 35.0867 22.9617Z" fill="#5E4C31"/>
<path d="M16.6883 39.3167C19.62 39.3167 21.9967 36.9817 21.9967 34.1017C21.9967 31.2217 19.62 28.8867 16.6883 28.8867C13.7567 28.8867 11.38 31.2217 11.38 34.1017C11.38 36.9817 13.7567 39.3167 16.6883 39.3167Z" fill="#FBB03B"/>
<path d="M43.3117 39.3167C46.2434 39.3167 48.62 36.9817 48.62 34.1017C48.62 31.2217 46.2434 28.8867 43.3117 28.8867C40.38 28.8867 38.0034 31.2217 38.0034 34.1017C38.0034 36.9817 40.38 39.3167 43.3117 39.3167Z" fill="#FBB03B"/>
<path d="M40.0066 20.03C39.8466 20.03 39.6933 19.9367 39.625 19.7817C39.0067 18.3767 36.5367 16.7983 34.2217 17.62C34.005 17.6967 33.7666 17.5833 33.69 17.3667C33.6133 17.15 33.7267 16.9117 33.9433 16.835C36.74 15.8417 39.6283 17.7167 40.3883 19.4467C40.4817 19.6567 40.385 19.9033 40.175 19.995C40.12 20.0183 40.0633 20.03 40.0066 20.03Z" fill="#5E4C31"/>
<path d="M20.08 19.9667C20.0267 19.9667 19.9733 19.9567 19.9217 19.935C19.7083 19.8483 19.6067 19.605 19.695 19.3917C20.4117 17.645 23.2517 15.6967 26.0733 16.62C26.2917 16.6917 26.4117 16.9267 26.34 17.145C26.2683 17.3633 26.0333 17.4833 25.815 17.4117C23.48 16.6467 21.05 18.2883 20.4667 19.7083C20.4 19.87 20.245 19.9667 20.0817 19.9667H20.08Z" fill="#5E4C31"/>
<path d="M33.2133 32.855C32.7783 31.6584 31.2417 30.8284 29.8833 30.895C28.5267 30.8267 26.99 31.6567 26.5533 32.855C26.465 33.1 26.4217 33.3584 26.435 33.63C26.4733 34.3717 27.1483 34.3334 27.7383 34.1367C28.3767 33.9234 29.0533 33.815 29.73 33.8134V33.8184C29.78 33.8167 29.8317 33.8167 29.8817 33.815C29.9317 33.815 29.9833 33.815 30.0333 33.8184V33.8134C30.71 33.815 31.3867 33.9234 32.025 34.1367C32.6167 34.335 33.2917 34.3734 33.3283 33.63C33.3417 33.36 33.2983 33.1 33.21 32.855H33.2133Z" fill="#E5786B"/>
<path d="M43.3116 23.7184C42.4783 23.7184 41.8016 23.0134 41.8016 22.1484V20.9751C41.8016 20.7917 41.9516 20.6417 42.135 20.6417C42.3183 20.6417 42.4683 20.7917 42.4683 20.9751V22.1484C42.4683 22.6467 42.8466 23.0517 43.3116 23.0517C43.7766 23.0517 44.155 22.6467 44.155 22.1484V20.9751C44.155 20.7917 44.305 20.6417 44.4883 20.6417C44.6716 20.6417 44.8216 20.7917 44.8216 20.9751V22.1484C44.8216 23.0134 44.1433 23.7184 43.3116 23.7184Z" fill="white"/>
<path d="M45.905 27.335C45.0717 27.335 44.395 26.63 44.395 25.765V24.5916C44.395 24.4083 44.545 24.2583 44.7284 24.2583C44.9117 24.2583 45.0617 24.4083 45.0617 24.5916V25.765C45.0617 26.2633 45.44 26.6683 45.905 26.6683C46.37 26.6683 46.7484 26.2633 46.7484 25.765V24.5916C46.7484 24.4083 46.8984 24.2583 47.0817 24.2583C47.265 24.2583 47.415 24.4083 47.415 24.5916V25.765C47.415 26.63 46.7367 27.335 45.905 27.335Z" fill="white"/>
</g>
<defs>
<linearGradient id="paint0_linear_4134_2028" x1="30" y1="0" x2="30" y2="60" gradientUnits="userSpaceOnUse">
<stop stop-color="#1B75EB"/>
<stop offset="0.520833" stop-color="#1B75EB" stop-opacity="0"/>
</linearGradient>
<clipPath id="clip0_4134_2028">
<rect width="60" height="60" rx="12" fill="white"/>
</clipPath>
<clipPath id="clip1_4134_2028">
<rect width="44" height="34" fill="white" transform="translate(8 13)"/>
</clipPath>
</defs>
</svg>
