<svg width="60" height="60" viewBox="0 0 60 60" fill="none" xmlns="http://www.w3.org/2000/svg">
<g clip-path="url(#clip0_4134_1993)">
<rect width="60" height="60" rx="12" fill="#FFEF7D"/>
<rect width="60" height="60" rx="12" fill="url(#paint0_linear_4134_1993)"/>
</g>
<g clip-path="url(#clip1_4134_1993)">
<path d="M24.7266 32.7266C27.6 32.7266 29.93 30.4383 29.93 27.615C29.93 24.7916 27.6 22.5033 24.7266 22.5033C21.8533 22.5033 19.5233 24.7916 19.5233 27.615C19.5233 30.4383 21.8533 32.7266 24.7266 32.7266Z" fill="white"/>
<path d="M26.1667 24.78C24.5767 24.78 23.2833 26.0517 23.2833 27.615C23.2833 29.1784 24.5767 30.45 26.1667 30.45C27.7567 30.45 29.05 29.1784 29.05 27.615C29.05 26.0517 27.7567 24.78 26.1667 24.78Z" fill="#5E4C31"/>
<path d="M35.1333 32.7266C38.0067 32.7266 40.3367 30.4383 40.3367 27.615C40.3367 24.7916 38.0067 22.5033 35.1333 22.5033C32.26 22.5033 29.93 24.7916 29.93 27.615C29.93 30.4383 32.26 32.7266 35.1333 32.7266Z" fill="white"/>
<path d="M33.6933 24.78C32.1033 24.78 30.81 26.0517 30.81 27.615C30.81 29.1784 32.1033 30.45 33.6933 30.45C35.2833 30.45 36.5767 29.1784 36.5767 27.615C36.5767 26.0517 35.2833 24.78 33.6933 24.78Z" fill="#5E4C31"/>
<path d="M16.735 41.135C19.6666 41.135 22.0433 38.8 22.0433 35.92C22.0433 33.04 19.6666 30.705 16.735 30.705C13.8033 30.705 11.4266 33.04 11.4266 35.92C11.4266 38.8 13.8033 41.135 16.735 41.135Z" fill="#FBB03B"/>
<path d="M43.36 41.135C46.2916 41.135 48.6683 38.8 48.6683 35.92C48.6683 33.04 46.2916 30.705 43.36 30.705C40.4283 30.705 38.0516 33.04 38.0516 35.92C38.0516 38.8 40.4283 41.135 43.36 41.135Z" fill="#FBB03B"/>
<path d="M27.9633 23.8983C26.36 23.8983 24.7983 22.915 24.0433 21.2817C23.9467 21.0733 24.0383 20.825 24.2467 20.7283C24.455 20.6317 24.7033 20.7233 24.8 20.9317C25.4967 22.4433 27.2967 23.5717 29.0983 22.845C29.3117 22.7583 29.555 22.8617 29.64 23.075C29.7267 23.2883 29.6233 23.5317 29.41 23.6167C28.9383 23.8067 28.4483 23.8967 27.9633 23.8967V23.8983Z" fill="#5E4C31"/>
<path d="M31.9684 23.91C31.49 23.91 31.0084 23.8217 30.5434 23.6384C30.33 23.5534 30.225 23.3117 30.31 23.0967C30.395 22.8817 30.6367 22.7784 30.8517 22.8634C32.6584 23.5784 34.45 22.44 35.1384 20.925C35.2334 20.715 35.48 20.6234 35.69 20.7184C35.9 20.8134 35.9917 21.06 35.8967 21.27C35.15 22.915 33.58 23.9117 31.97 23.9117L31.9684 23.91Z" fill="#5E4C31"/>
<path d="M27.8917 34.43C27.84 34.43 27.7867 34.42 27.7367 34.4C27.5234 34.3133 27.42 34.0717 27.5067 33.8583C27.83 33.0583 28.7167 32.49 29.8217 32.3733C30.9884 32.2517 32.0334 32.6517 32.5484 33.4183C32.6767 33.61 32.625 33.8683 32.435 33.9967C32.2434 34.125 31.985 34.0733 31.8567 33.8833C31.52 33.3817 30.755 33.1133 29.9084 33.2017C29.1117 33.285 28.4867 33.655 28.28 34.1683C28.215 34.33 28.0584 34.43 27.8934 34.43H27.8917Z" fill="#5E4C31"/>
</g>
<defs>
<linearGradient id="paint0_linear_4134_1993" x1="30" y1="0" x2="30" y2="60" gradientUnits="userSpaceOnUse">
<stop stop-color="#FC5555"/>
<stop offset="0.520833" stop-color="#FC5555" stop-opacity="0"/>
</linearGradient>
<clipPath id="clip0_4134_1993">
<rect width="60" height="60" rx="12" fill="white"/>
</clipPath>
<clipPath id="clip1_4134_1993">
<rect width="44" height="34" fill="white" transform="translate(8 13)"/>
</clipPath>
</defs>
</svg>
