<svg width="60" height="60" viewBox="0 0 60 60" fill="none" xmlns="http://www.w3.org/2000/svg">
<rect width="60" height="60" rx="12" fill="#FFEF7D"/>
<g clip-path="url(#clip0_4134_1929)">
<path d="M25.0033 22.34C24.1117 23.52 21.985 25.0334 20.0067 24.96C19.5933 25.6934 19.3583 26.535 19.3583 27.4317C19.3583 30.255 21.6883 32.5434 24.5617 32.5434C27.435 32.5434 29.765 30.255 29.765 27.4317C29.765 24.755 27.67 22.56 25.0033 22.3384V22.34Z" fill="white"/>
<path d="M34.7367 22.3267C31.9717 22.4467 29.7667 24.6867 29.7667 27.4333C29.7667 30.18 32.0967 32.545 34.97 32.545C37.8433 32.545 40.1733 30.2567 40.1733 27.4333C40.1733 26.485 39.91 25.5983 39.4517 24.8383C37.5833 24.95 35.635 23.515 34.7367 22.3283V22.3267Z" fill="white"/>
<path d="M25.475 26.2966C23.885 26.2966 22.5917 27.5683 22.5917 29.1316C22.5917 30.695 23.885 31.9666 25.475 31.9666C27.065 31.9666 28.3583 30.695 28.3583 29.1316C28.3583 27.5683 27.065 26.2966 25.475 26.2966Z" fill="#5E4C31"/>
<path d="M33.96 26.2966C32.37 26.2966 31.0767 27.5683 31.0767 29.1316C31.0767 30.695 32.37 31.9666 33.96 31.9666C35.55 31.9666 36.8433 30.695 36.8433 29.1316C36.8433 27.5683 35.55 26.2966 33.96 26.2966Z" fill="#5E4C31"/>
<path d="M16.57 40.9533C19.5017 40.9533 21.8783 38.6183 21.8783 35.7383C21.8783 32.8583 19.5017 30.5233 16.57 30.5233C13.6383 30.5233 11.2617 32.8583 11.2617 35.7383C11.2617 38.6183 13.6383 40.9533 16.57 40.9533Z" fill="#FBB03B"/>
<path d="M43.195 40.9533C46.1267 40.9533 48.5033 38.6183 48.5033 35.7383C48.5033 32.8583 46.1267 30.5233 43.195 30.5233C40.2633 30.5233 37.8867 32.8583 37.8867 35.7383C37.8867 38.6183 40.2633 40.9533 43.195 40.9533Z" fill="#FBB03B"/>
<path d="M29.1917 34.4984C28.985 34.4984 28.805 34.3451 28.7783 34.1351C28.75 33.9067 28.91 33.6984 29.1383 33.6684L32.91 33.1867C33.14 33.1584 33.3467 33.3184 33.3767 33.5467C33.4067 33.7751 33.245 33.9834 33.0167 34.0134L29.245 34.4951C29.2267 34.4967 29.21 34.4984 29.1917 34.4984Z" fill="#5E4C31"/>
<path d="M39.94 25.1367C36.8467 25.1367 34.03 22.9133 33.385 21.2617C33.3017 21.0467 33.4067 20.805 33.6217 20.7217C33.8367 20.6383 34.0783 20.7433 34.1617 20.9583C34.7333 22.4233 37.4917 24.5 40.3433 24.2883C40.5733 24.27 40.7717 24.4433 40.79 24.6733C40.8067 24.9033 40.635 25.1033 40.405 25.12C40.25 25.1317 40.095 25.1367 39.9417 25.1367H39.94Z" fill="#5E4C31"/>
<path d="M19.82 25.1367C19.665 25.1367 19.5116 25.1317 19.3566 25.12C19.1266 25.1033 18.955 24.9033 18.9716 24.6733C18.9883 24.4433 19.1866 24.27 19.4183 24.2883C22.2716 24.495 25.0283 22.4217 25.6 20.9583C25.6833 20.7433 25.925 20.6383 26.14 20.7217C26.355 20.805 26.46 21.0467 26.3766 21.2617C25.7316 22.9117 22.9133 25.1367 19.8216 25.1367H19.82Z" fill="#5E4C31"/>
</g>
<defs>
<clipPath id="clip0_4134_1929">
<rect width="44" height="34" fill="white" transform="translate(8 13)"/>
</clipPath>
</defs>
</svg>
