<svg width="60" height="60" viewBox="0 0 60 60" fill="none" xmlns="http://www.w3.org/2000/svg">
<g clip-path="url(#clip0_4134_2047)">
<rect width="60" height="60" rx="12" fill="#FFEF7D"/>
<rect width="60" height="60" rx="12" fill="url(#paint0_linear_4134_2047)"/>
</g>
<g clip-path="url(#clip1_4134_2047)">
<path d="M24.68 30.935C27.5534 30.935 29.8834 28.6467 29.8834 25.8233C29.8834 23 27.5534 20.7117 24.68 20.7117C21.8067 20.7117 19.4767 23 19.4767 25.8233C19.4767 28.6467 21.8067 30.935 24.68 30.935Z" fill="white"/>
<path d="M26.12 28.49C27.62 28.49 28.835 27.295 28.835 25.8233C28.835 24.3516 27.62 23.1566 26.12 23.1566C24.62 23.1566 23.405 24.35 23.405 25.8233C23.405 27.2966 24.62 28.49 26.12 28.49Z" fill="#5E4C31"/>
<path d="M26.12 28.6583C24.53 28.6583 23.2383 27.3866 23.2383 25.8233C23.2383 24.2599 24.5317 22.9883 26.12 22.9883C27.7083 22.9883 29.0017 24.2599 29.0017 25.8233C29.0017 27.3866 27.7083 28.6583 26.12 28.6583ZM26.12 23.3233C24.715 23.3233 23.5733 24.4449 23.5733 25.8233C23.5733 27.2016 24.7167 28.3233 26.12 28.3233C27.5233 28.3233 28.6667 27.2016 28.6667 25.8233C28.6667 24.4449 27.5233 23.3233 26.12 23.3233Z" fill="#5E4C31"/>
<path d="M35.0867 30.935C37.96 30.935 40.29 28.6467 40.29 25.8233C40.29 23 37.96 20.7117 35.0867 20.7117C32.2134 20.7117 29.8834 23 29.8834 25.8233C29.8834 28.6467 32.2134 30.935 35.0867 30.935Z" fill="white"/>
<path d="M33.6467 28.49C35.1467 28.49 36.3617 27.295 36.3617 25.8233C36.3617 24.3516 35.1467 23.1566 33.6467 23.1566C32.1467 23.1566 30.9317 24.35 30.9317 25.8233C30.9317 27.2966 32.1467 28.49 33.6467 28.49Z" fill="#5E4C31"/>
<path d="M33.6467 28.6583C32.0567 28.6583 30.765 27.3866 30.765 25.8233C30.765 24.2599 32.0583 22.9883 33.6467 22.9883C35.235 22.9883 36.5283 24.2599 36.5283 25.8233C36.5283 27.3866 35.235 28.6583 33.6467 28.6583ZM33.6467 23.3233C32.2417 23.3233 31.1 24.4449 31.1 25.8233C31.1 27.2016 32.2433 28.3233 33.6467 28.3233C35.05 28.3233 36.1933 27.2016 36.1933 25.8233C36.1933 24.4449 35.05 23.3233 33.6467 23.3233Z" fill="#5E4C31"/>
<path d="M16.6883 39.3433C19.62 39.3433 21.9967 37.0083 21.9967 34.1283C21.9967 31.2483 19.62 28.9133 16.6883 28.9133C13.7567 28.9133 11.38 31.2483 11.38 34.1283C11.38 37.0083 13.7567 39.3433 16.6883 39.3433Z" fill="#FBB03B"/>
<path d="M43.3117 39.3433C46.2434 39.3433 48.62 37.0083 48.62 34.1283C48.62 31.2483 46.2434 28.9133 43.3117 28.9133C40.38 28.9133 38.0034 31.2483 38.0034 34.1283C38.0034 37.0083 40.38 39.3433 43.3117 39.3433Z" fill="#FBB03B"/>
<path d="M20.645 22.3467C20.225 22.3467 19.7967 22.2917 19.365 22.1734C19.1434 22.1117 19.0134 21.8817 19.075 21.66C19.1367 21.4384 19.365 21.3084 19.5884 21.37C21.9567 22.0284 24.3084 20.2784 24.8267 18.8334C24.9034 18.6167 25.1434 18.5034 25.36 18.5817C25.5767 18.6584 25.69 18.8984 25.6117 19.115C25.0717 20.625 23.0084 22.3484 20.6467 22.3484L20.645 22.3467Z" fill="#5E4C31"/>
<path d="M38.9183 22.3467C36.5567 22.3467 34.4934 20.6233 33.9534 19.1133C33.875 18.8967 33.9884 18.6583 34.205 18.58C34.4217 18.5017 34.66 18.615 34.7383 18.8317C35.255 20.2767 37.6067 22.0267 39.9767 21.3683C40.1984 21.3067 40.4284 21.4367 40.49 21.6583C40.5517 21.88 40.4217 22.11 40.2 22.1717C39.7683 22.2917 39.34 22.345 38.92 22.345L38.9183 22.3467Z" fill="#5E4C31"/>
<path d="M31.545 31.9266C31.545 32.4316 30.8017 32.5733 29.8833 32.5733C28.965 32.5733 28.2217 32.4116 28.2217 31.9066C28.2217 31.4016 28.965 30.7433 29.8833 30.7433C30.8017 30.7433 31.545 31.42 31.545 31.9266Z" fill="#E5786B"/>
<path d="M43.75 24.6466C43.5667 24.6466 43.4167 24.4966 43.4167 24.3133V19.5C43.4167 19.3166 43.5667 19.1666 43.75 19.1666C43.9334 19.1666 44.0834 19.3166 44.0834 19.5V24.3133C44.0834 24.4966 43.9334 24.6466 43.75 24.6466Z" fill="#407BFF"/>
<path d="M45.39 26.5467C45.2066 26.5467 45.0566 26.3967 45.0566 26.2133V21.3333C45.0566 21.15 45.2066 21 45.39 21C45.5733 21 45.7233 21.15 45.7233 21.3333V26.2133C45.7233 26.3967 45.5733 26.5467 45.39 26.5467Z" fill="#407BFF"/>
<path d="M47.105 24.0466C46.9217 24.0466 46.7717 23.8966 46.7717 23.7133V20.4516C46.7717 20.2683 46.9217 20.1183 47.105 20.1183C47.2883 20.1183 47.4383 20.2683 47.4383 20.4516V23.7133C47.4383 23.8966 47.2883 24.0466 47.105 24.0466Z" fill="#407BFF"/>
</g>
<defs>
<linearGradient id="paint0_linear_4134_2047" x1="30" y1="0" x2="30" y2="60" gradientUnits="userSpaceOnUse">
<stop stop-color="#1B75EB"/>
<stop offset="0.520833" stop-color="#1B75EB" stop-opacity="0"/>
</linearGradient>
<clipPath id="clip0_4134_2047">
<rect width="60" height="60" rx="12" fill="white"/>
</clipPath>
<clipPath id="clip1_4134_2047">
<rect width="44" height="34" fill="white" transform="translate(8 13)"/>
</clipPath>
</defs>
</svg>
