<svg width="60" height="60" viewBox="0 0 60 60" fill="none" xmlns="http://www.w3.org/2000/svg">
<rect width="60" height="60" rx="12" fill="#FFEF7D"/>
<g clip-path="url(#clip0_4134_1913)">
<path d="M24.5617 33.0167C27.435 33.0167 29.765 30.7283 29.765 27.905C29.765 25.0817 27.435 22.7933 24.5617 22.7933C21.6883 22.7933 19.3583 25.0817 19.3583 27.905C19.3583 30.7283 21.6883 33.0167 24.5617 33.0167Z" fill="white"/>
<path d="M34.97 33.0167C37.8433 33.0167 40.1733 30.7283 40.1733 27.905C40.1733 25.0817 37.8433 22.7933 34.97 22.7933C32.0967 22.7933 29.7667 25.0817 29.7667 27.905C29.7667 30.7283 32.0967 33.0167 34.97 33.0167Z" fill="white"/>
<path d="M16.57 41.425C19.5017 41.425 21.8783 39.09 21.8783 36.21C21.8783 33.33 19.5017 30.995 16.57 30.995C13.6383 30.995 11.2617 33.33 11.2617 36.21C11.2617 39.09 13.6383 41.425 16.57 41.425Z" fill="#FBB03B"/>
<path d="M43.195 41.425C46.1267 41.425 48.5033 39.09 48.5033 36.21C48.5033 33.33 46.1267 30.995 43.195 30.995C40.2633 30.995 37.8867 33.33 37.8867 36.21C37.8867 39.09 40.2633 41.425 43.195 41.425Z" fill="#FBB03B"/>
<path d="M33.305 33.4917C32.845 32.8784 31.9683 32.6667 31.2967 32.58C30.83 32.52 30.3567 32.4884 29.8817 32.4867C29.4067 32.4884 28.9333 32.52 28.4667 32.58C27.795 32.6667 26.92 32.8784 26.4583 33.4917C26.16 33.89 26.0667 34.31 26.215 34.9084C26.6633 36.7267 27.835 38.645 29.69 38.835C29.75 38.8417 29.815 38.845 29.88 38.8484C29.9467 38.845 30.01 38.8417 30.07 38.835C31.925 38.645 33.0967 36.7267 33.545 34.9084C33.6917 34.31 33.6 33.89 33.3017 33.4917H33.305Z" fill="#E5786B"/>
<path d="M20.5367 28.93C20.2917 28.93 20.0783 28.75 20.0433 28.5016C20.0033 28.2283 20.1933 27.975 20.4667 27.935L27.7383 26.885C28.0117 26.8466 28.265 27.035 28.305 27.3083C28.345 27.5816 28.155 27.835 27.8817 27.875L20.61 28.925C20.585 28.9283 20.5617 28.93 20.5383 28.93H20.5367Z" fill="#5E4C31"/>
<path d="M39.0767 28.93C39.0533 28.93 39.0283 28.9283 39.005 28.925L31.7333 27.875C31.46 27.835 31.27 27.5816 31.31 27.3083C31.35 27.035 31.6017 26.845 31.8767 26.885L39.1483 27.935C39.4217 27.975 39.6117 28.2283 39.5717 28.5016C39.535 28.75 39.3217 28.93 39.0783 28.93H39.0767Z" fill="#5E4C31"/>
<path d="M20.2317 20.1183C20.1184 20.1183 20.005 20.0733 19.9234 19.9817C19.7684 19.8117 19.78 19.5483 19.95 19.3933C19.9984 19.3483 20.0484 19.3017 20.1034 19.25C20.5317 18.845 21.1784 18.2317 22.39 17.885C23.9384 17.4417 24.935 17.6817 25.6317 17.94C25.8467 18.02 25.9567 18.26 25.8767 18.475C25.7967 18.6917 25.5567 18.8 25.3417 18.72C24.765 18.5067 23.935 18.3083 22.62 18.685C21.6034 18.975 21.0684 19.4833 20.6767 19.855C20.6184 19.91 20.5634 19.9617 20.5117 20.01C20.4317 20.0833 20.3317 20.1183 20.2317 20.1183Z" fill="#5E4C31"/>
<path d="M38.7583 20.1184C38.6583 20.1184 38.5583 20.0817 38.4783 20.01C38.4267 19.9617 38.3717 19.91 38.3133 19.8567C37.9217 19.4867 37.3867 18.9784 36.37 18.6867C35.0533 18.31 34.225 18.5084 33.6483 18.7217C33.4333 18.8017 33.1933 18.6917 33.1133 18.4767C33.0333 18.2617 33.1433 18.0217 33.3583 17.9417C34.0533 17.6834 35.05 17.4434 36.6 17.8867C37.8133 18.2334 38.4583 18.8467 38.8867 19.2534C38.94 19.305 38.99 19.3517 39.04 19.3967C39.21 19.5517 39.2217 19.815 39.0667 19.985C38.985 20.075 38.8717 20.12 38.7583 20.12V20.1184Z" fill="#5E4C31"/>
</g>
<defs>
<clipPath id="clip0_4134_1913">
<rect width="44" height="34" fill="white" transform="translate(8 13)"/>
</clipPath>
</defs>
</svg>
