<svg width="60" height="60" viewBox="0 0 60 60" fill="none" xmlns="http://www.w3.org/2000/svg">
<rect width="60" height="60" rx="12" fill="#FFEF7D"/>
<g clip-path="url(#clip0_4134_1822)">
<path d="M24.68 34.7917C27.5534 34.7917 29.8834 32.5034 29.8834 29.68C29.8834 26.8567 27.5534 24.5684 24.68 24.5684C21.8067 24.5684 19.4767 26.8567 19.4767 29.68C19.4767 32.5034 21.8067 34.7917 24.68 34.7917Z" fill="white"/>
<path d="M35.0867 34.7917C37.96 34.7917 40.29 32.5034 40.29 29.68C40.29 26.8567 37.96 24.5684 35.0867 24.5684C32.2134 24.5684 29.8834 26.8567 29.8834 29.68C29.8834 32.5034 32.2134 34.7917 35.0867 34.7917Z" fill="white"/>
<path d="M16.6883 43.2C19.62 43.2 21.9967 40.865 21.9967 37.985C21.9967 35.105 19.62 32.77 16.6883 32.77C13.7567 32.77 11.38 35.105 11.38 37.985C11.38 40.865 13.7567 43.2 16.6883 43.2Z" fill="#FBB03B"/>
<path d="M43.3117 43.2C46.2434 43.2 48.62 40.865 48.62 37.985C48.62 35.105 46.2434 32.77 43.3117 32.77C40.38 32.77 38.0034 35.105 38.0034 37.985C38.0034 40.865 40.38 43.2 43.3117 43.2Z" fill="#FBB03B"/>
<path d="M29.81 37.3401C29.6867 37.3401 29.5667 37.3367 29.4517 37.3284C28.155 37.2417 27.13 36.7284 26.7083 35.9567C26.62 35.7951 26.68 35.5934 26.8417 35.5051C27.0033 35.4167 27.205 35.4767 27.2933 35.6384C27.6 36.2001 28.4433 36.5934 29.495 36.6634C30.7733 36.7484 31.945 36.3317 32.48 35.6001C32.5883 35.4517 32.7967 35.4184 32.945 35.5284C33.0933 35.6367 33.1267 35.8451 33.0167 35.9934C32.2867 36.9917 30.9417 37.3401 29.8083 37.3401H29.81Z" fill="#5E4C31"/>
<path d="M28.525 29.3517C27.3916 27.6833 25.2333 27.47 23.7283 27.795C22.09 28.1483 20.945 29.0983 20.74 30.275C20.7133 30.4283 20.7483 30.5833 20.8383 30.71C20.9283 30.8367 21.0616 30.9217 21.215 30.9483C21.2483 30.955 21.2816 30.9567 21.315 30.9567C21.5983 30.9567 21.84 30.7533 21.8883 30.4733C22.0066 29.795 22.8433 29.1767 23.9733 28.9333C25.1233 28.685 26.7516 28.8183 27.5583 30.005C27.6466 30.1333 27.7783 30.2217 27.9316 30.25C28.085 30.28 28.24 30.2467 28.3683 30.16C28.635 29.98 28.7033 29.615 28.5233 29.35L28.525 29.3517Z" fill="#5E4C31"/>
<path d="M39.2534 30.275C39.0484 29.0984 37.9034 28.1484 36.265 27.795C34.76 27.4717 32.6017 27.6834 31.4684 29.3517C31.2884 29.6184 31.3567 29.9817 31.6234 30.1617C31.89 30.3434 32.2534 30.2734 32.4334 30.0067C33.24 28.82 34.87 28.6884 36.0184 28.935C37.1467 29.1784 37.985 29.7967 38.1034 30.475C38.1517 30.755 38.3934 30.9584 38.6767 30.9584C38.71 30.9584 38.7434 30.955 38.7767 30.95C38.93 30.9234 39.0634 30.8384 39.1534 30.7117C39.2434 30.585 39.2784 30.43 39.2517 30.2767L39.2534 30.275Z" fill="#5E4C31"/>
<path d="M20.3717 20.7067C20.2583 20.7184 20.1417 20.6834 20.0517 20.6034C19.88 20.4501 19.865 20.1867 20.02 20.0151C20.0633 19.9667 20.11 19.9134 20.1583 19.8567C20.5433 19.4101 21.125 18.7351 22.295 18.2667C23.7917 17.6701 24.8067 17.8084 25.525 17.9951C25.7483 18.0534 25.8817 18.2801 25.8233 18.5034C25.765 18.7267 25.5367 18.8601 25.315 18.8017C24.72 18.6467 23.875 18.5334 22.6033 19.0417C21.6217 19.4334 21.14 19.9917 20.7883 20.4001C20.7367 20.4601 20.6867 20.5167 20.64 20.5701C20.5683 20.6501 20.4717 20.6967 20.3717 20.7067Z" fill="#5E4C31"/>
<path d="M38.9534 20.5833C38.8534 20.5783 38.755 20.5366 38.6784 20.46C38.6284 20.41 38.5767 20.355 38.5217 20.2983C38.15 19.9083 37.6434 19.3716 36.6434 19.0283C35.3484 18.5833 34.51 18.7366 33.9234 18.92C33.705 18.9883 33.47 18.8666 33.4017 18.6466C33.3334 18.4266 33.455 18.1933 33.675 18.125C34.3834 17.9033 35.39 17.7166 36.915 18.24C38.1084 18.65 38.7217 19.2966 39.1267 19.725C39.1784 19.7783 39.225 19.83 39.2717 19.875C39.4334 20.0383 39.4317 20.3033 39.2684 20.465C39.1817 20.55 39.0667 20.59 38.9534 20.585V20.5833Z" fill="#5E4C31"/>
</g>
<defs>
<clipPath id="clip0_4134_1822">
<rect width="44" height="34" fill="white" transform="translate(8 13)"/>
</clipPath>
</defs>
</svg>
