<svg width="60" height="60" viewBox="0 0 60 60" fill="none" xmlns="http://www.w3.org/2000/svg">
<rect width="60" height="60" rx="12" fill="#FFEF7D"/>
<g clip-path="url(#clip0_4134_1961)">
<path d="M35.0867 32.7017C37.96 32.7017 40.29 30.4134 40.29 27.5901C40.29 24.7667 37.96 22.4784 35.0867 22.4784C32.2134 22.4784 29.8834 24.7667 29.8834 27.5901C29.8834 30.4134 32.2134 32.7017 35.0867 32.7017Z" fill="white"/>
<path d="M24.68 32.7017C27.5534 32.7017 29.8834 30.4134 29.8834 27.5901C29.8834 24.7667 27.5534 22.4784 24.68 22.4784C21.8067 22.4784 19.4767 24.7667 19.4767 27.5901C19.4767 30.4134 21.8067 32.7017 24.68 32.7017Z" fill="white"/>
<path d="M16.6883 41.1101C19.62 41.1101 21.9967 38.7751 21.9967 35.8951C21.9967 33.0151 19.62 30.6801 16.6883 30.6801C13.7567 30.6801 11.38 33.0151 11.38 35.8951C11.38 38.7751 13.7567 41.1101 16.6883 41.1101Z" fill="#FBB03B"/>
<path d="M43.3117 41.1101C46.2434 41.1101 48.62 38.7751 48.62 35.8951C48.62 33.0151 46.2434 30.6801 43.3117 30.6801C40.38 30.6801 38.0034 33.0151 38.0034 35.8951C38.0034 38.7751 40.38 41.1101 43.3117 41.1101Z" fill="#FBB03B"/>
<path d="M24.5783 30.6784C24.56 30.6784 24.5416 30.6784 24.5233 30.6784C22.5766 30.6584 21.1483 29.665 20.8866 28.15C20.84 27.8784 21.0216 27.6184 21.295 27.5717C21.5666 27.5234 21.8266 27.7067 21.8733 27.98C22.0866 29.215 23.44 29.6667 24.535 29.6784C24.55 29.6784 24.565 29.6784 24.58 29.6784C25.8666 29.6784 27.2683 29.0967 27.4866 27.97C27.54 27.7 27.8016 27.5234 28.0733 27.575C28.345 27.6284 28.5216 27.89 28.4683 28.1617C28.1316 29.8967 26.2266 30.68 24.5783 30.68V30.6784Z" fill="#5E4C31"/>
<path d="M34.9867 30.6784C34.9684 30.6784 34.95 30.6784 34.9317 30.6784C32.985 30.6584 31.5567 29.665 31.295 28.15C31.2484 27.8784 31.43 27.6184 31.7034 27.5717C31.975 27.5234 32.2334 27.7067 32.2817 27.98C32.495 29.215 33.8484 29.6667 34.9434 29.6784C36.2434 29.695 37.6734 29.11 37.895 27.97C37.9484 27.6984 38.21 27.5217 38.4817 27.575C38.7534 27.6284 38.93 27.89 38.8767 28.1617C38.54 29.8967 36.635 30.68 34.9867 30.68V30.6784Z" fill="#5E4C31"/>
<path d="M21.6617 21.2933C21.2817 21.2933 20.8933 21.245 20.5033 21.1383C20.2817 21.0783 20.15 20.8483 20.21 20.6267C20.27 20.405 20.5 20.2733 20.7217 20.3333C22.8317 20.9067 24.925 19.385 25.385 18.125C25.465 17.9083 25.7033 17.7983 25.92 17.8767C26.1367 17.955 26.2467 18.195 26.1683 18.4117C25.6767 19.7567 23.8033 21.2933 21.6617 21.2933Z" fill="#5E4C31"/>
<path d="M38.1033 21.2933C35.9616 21.2933 34.0883 19.7567 33.5966 18.4117C33.5183 18.195 33.6283 17.9567 33.845 17.8767C34.06 17.7983 34.3 17.9083 34.38 18.125C34.84 19.3833 36.935 20.9067 39.0433 20.3333C39.265 20.2733 39.495 20.4033 39.555 20.6267C39.615 20.8483 39.485 21.0783 39.2616 21.1383C38.8716 21.245 38.4833 21.2933 38.1033 21.2933Z" fill="#5E4C31"/>
<path d="M40.98 36.1501C40.98 37.5267 39.8183 38.6434 38.385 38.6434C36.9516 38.6434 35.79 37.5267 35.79 36.1501C35.79 34.7734 38.385 31.1034 38.385 31.1034C38.385 31.1034 40.98 34.7734 40.98 36.1501Z" fill="#4AADFF"/>
<path d="M27.2733 35.0516C27.1933 35.0516 27.1116 35.0233 27.0483 34.9649C26.9133 34.8399 26.9033 34.63 27.0283 34.4933C27.67 33.7916 28.6783 33.38 29.7933 33.3633C30.95 33.3466 32.0216 33.755 32.7316 34.485C32.86 34.6166 32.8566 34.8283 32.725 34.9566C32.5933 35.085 32.3816 35.0816 32.2533 34.9499C31.6716 34.3516 30.7783 34.015 29.8033 34.03C28.8716 34.0433 28.0383 34.3766 27.52 34.9433C27.455 35.015 27.365 35.0516 27.2733 35.0516Z" fill="#5E4C31"/>
</g>
<defs>
<clipPath id="clip0_4134_1961">
<rect width="44" height="34" fill="white" transform="translate(8 13)"/>
</clipPath>
</defs>
</svg>
