<svg width="60" height="60" viewBox="0 0 60 60" fill="none" xmlns="http://www.w3.org/2000/svg">
<rect width="60" height="60" rx="12" fill="#FFEF7D"/>
<g clip-path="url(#clip0_4134_1883)">
<path d="M24.6084 33.0167C27.4817 33.0167 29.8117 30.7283 29.8117 27.905C29.8117 25.0817 27.4817 22.7933 24.6084 22.7933C21.735 22.7933 19.405 25.0817 19.405 27.905C19.405 30.7283 21.735 33.0167 24.6084 33.0167Z" fill="white"/>
<path d="M35.015 33.0167C37.8883 33.0167 40.2183 30.7283 40.2183 27.905C40.2183 25.0817 37.8883 22.7933 35.015 22.7933C32.1416 22.7933 29.8116 25.0817 29.8116 27.905C29.8116 30.7283 32.1416 33.0167 35.015 33.0167Z" fill="white"/>
<path d="M16.6167 41.425C19.5483 41.425 21.925 39.09 21.925 36.21C21.925 33.33 19.5483 30.995 16.6167 30.995C13.685 30.995 11.3083 33.33 11.3083 36.21C11.3083 39.09 13.685 41.425 16.6167 41.425Z" fill="#FBB03B"/>
<path d="M43.2417 41.425C46.1733 41.425 48.55 39.09 48.55 36.21C48.55 33.33 46.1733 30.995 43.2417 30.995C40.31 30.995 37.9333 33.33 37.9333 36.21C37.9333 39.09 40.31 41.425 43.2417 41.425Z" fill="#FBB03B"/>
<path d="M24.5084 30.9033C24.49 30.9033 24.4717 30.9033 24.4534 30.9033C22.5067 30.8833 21.0784 29.8899 20.8167 28.3749C20.77 28.1033 20.9517 27.8449 21.225 27.7966C21.4967 27.7499 21.755 27.9316 21.8034 28.2049C22.0167 29.4399 23.37 29.8916 24.465 29.9033C25.765 29.9133 27.195 29.3349 27.4167 28.1949C27.47 27.9233 27.7317 27.7466 28.0034 27.7999C28.275 27.8533 28.4517 28.1149 28.3984 28.3866C28.0617 30.1216 26.1567 30.9049 24.5084 30.9049V30.9033Z" fill="#5E4C31"/>
<path d="M34.915 30.9033C34.8966 30.9033 34.8783 30.9033 34.86 30.9033C32.9133 30.8833 31.485 29.8899 31.2233 28.3749C31.1766 28.1033 31.3583 27.8449 31.6316 27.7966C31.9033 27.7499 32.1616 27.9316 32.21 28.2049C32.4233 29.4399 33.7766 29.8916 34.8716 29.9033C36.1716 29.9183 37.6016 29.3349 37.8233 28.1949C37.8766 27.9233 38.1383 27.7466 38.41 27.7999C38.6816 27.8533 38.8583 28.1149 38.805 28.3866C38.4683 30.1216 36.5633 30.9049 34.915 30.9049V30.9033Z" fill="#5E4C31"/>
<path d="M29.7717 35.615C29.7083 35.615 29.6467 35.615 29.585 35.6117C28.4017 35.5667 27.44 35.1333 27.0133 34.4533C26.915 34.2967 26.9617 34.0917 27.1183 33.9933C27.275 33.895 27.48 33.9433 27.5783 34.0983C27.8783 34.5767 28.6767 34.91 29.6117 34.945C30.6783 34.985 31.6417 34.645 32.0633 34.0767C32.1733 33.9283 32.3817 33.8983 32.53 34.0067C32.6783 34.1167 32.7083 34.325 32.6 34.4733C31.9733 35.3183 30.765 35.615 29.775 35.615H29.7717Z" fill="#5E4C31"/>
<path d="M27.1033 20.32H22.6683C22.4383 20.32 22.2516 20.1334 22.2516 19.9034C22.2516 19.6734 22.4383 19.4867 22.6683 19.4867H27.1033C27.3333 19.4867 27.52 19.6734 27.52 19.9034C27.52 20.1334 27.3333 20.32 27.1033 20.32Z" fill="#5E4C31"/>
<path d="M36.955 20.32H32.52C32.29 20.32 32.1033 20.1334 32.1033 19.9034C32.1033 19.6734 32.29 19.4867 32.52 19.4867H36.955C37.185 19.4867 37.3717 19.6734 37.3717 19.9034C37.3717 20.1334 37.185 20.32 36.955 20.32Z" fill="#5E4C31"/>
</g>
<defs>
<clipPath id="clip0_4134_1883">
<rect width="44" height="34" fill="white" transform="translate(8 13)"/>
</clipPath>
</defs>
</svg>
