<svg width="60" height="60" viewBox="0 0 60 60" fill="none" xmlns="http://www.w3.org/2000/svg">
<rect width="60" height="60" rx="12" fill="#FFEF7D"/>
<g clip-path="url(#clip0_4134_2009)">
<path d="M30.1783 24.625C30.0183 25.1167 29.93 25.6417 29.93 26.1867C29.93 29.01 32.26 31.2984 35.1333 31.2984C38.0067 31.2984 40.3367 29.01 40.3367 26.1867C40.3367 25.0117 39.9333 23.9317 39.255 23.0684C36.2633 23.5767 31.3317 24.4267 30.1783 24.6267V24.625Z" fill="white"/>
<path d="M20.6133 23.0566C19.93 23.9216 19.5233 25.0066 19.5233 26.185C19.5233 29.0083 21.8533 31.2966 24.7266 31.2966C27.6 31.2966 29.93 29.0083 29.93 26.185C29.93 25.635 29.84 25.1066 29.6783 24.6116C28.3933 24.39 23.54 23.5533 20.6133 23.0566Z" fill="white"/>
<path d="M16.735 39.705C19.6666 39.705 22.0433 37.37 22.0433 34.49C22.0433 31.61 19.6666 29.275 16.735 29.275C13.8033 29.275 11.4266 31.61 11.4266 34.49C11.4266 37.37 13.8033 39.705 16.735 39.705Z" fill="#FBB03B"/>
<path d="M43.36 39.705C46.2916 39.705 48.6683 37.37 48.6683 34.49C48.6683 31.61 46.2916 29.275 43.36 29.275C40.4283 29.275 38.0516 31.61 38.0516 34.49C38.0516 37.37 40.4283 39.705 43.36 39.705Z" fill="#FBB03B"/>
<path d="M24.6933 23.7533C23.8516 24.2483 23.285 25.1516 23.285 26.185C23.285 27.7483 24.5783 29.02 26.1683 29.02C27.7583 29.02 29.0516 27.7483 29.0516 26.185C29.0516 25.505 28.8066 24.88 28.3983 24.39C27.41 24.22 26.0716 23.99 24.695 23.7533H24.6933Z" fill="#5E4C31"/>
<path d="M35.1833 23.7633C33.7867 24.0033 32.4367 24.235 31.4533 24.405C31.0517 24.8916 30.81 25.5116 30.81 26.1866C30.81 27.75 32.1033 29.0216 33.6933 29.0216C35.2833 29.0216 36.5767 27.75 36.5767 26.1866C36.5767 25.16 36.0167 24.2616 35.1833 23.765V23.7633Z" fill="#5E4C31"/>
<path d="M29.3817 24.7799C29.3567 24.7799 29.3317 24.7783 29.3067 24.7733L20.5783 23.1883C20.3517 23.1466 20.2017 22.9299 20.2433 22.7033C20.285 22.4766 20.5017 22.3266 20.7283 22.3683L29.4567 23.9533C29.6833 23.9949 29.8333 24.2116 29.7917 24.4383C29.755 24.6399 29.58 24.7799 29.3817 24.7799Z" fill="#5E4C31"/>
<path d="M30.345 24.78C30.1467 24.78 29.9717 24.6383 29.935 24.4383C29.8933 24.2117 30.0433 23.995 30.27 23.9533L39.22 22.3267C39.4467 22.285 39.6633 22.435 39.705 22.6617C39.7467 22.8883 39.5967 23.105 39.37 23.1467L30.42 24.7733C30.395 24.7783 30.37 24.78 30.345 24.78Z" fill="#5E4C31"/>
<path d="M29.85 34.3C29.7734 34.3 29.695 34.2733 29.6334 34.22C29.4934 34.1 29.4784 33.89 29.5984 33.75C30.5284 32.67 32.7067 31.155 34.9734 32.33C35.1367 32.415 35.2 32.6167 35.115 32.78C35.03 32.9433 34.8284 33.0067 34.665 32.9217C32.7684 31.9383 30.905 33.2533 30.1017 34.185C30.035 34.2617 29.9434 34.3017 29.8484 34.3017L29.85 34.3Z" fill="#5E4C31"/>
<path d="M42.6966 19.3084C42.365 19.3084 42.0066 19.2251 41.62 19.0601C41.4933 19.0051 41.435 18.8584 41.4883 18.7317C41.5433 18.6051 41.69 18.5467 41.8166 18.6001C42.4683 18.8801 42.9783 18.8784 43.425 18.5934C43.86 18.3167 44.1433 17.8601 44.2216 17.5551C44.2566 17.4217 44.3916 17.3401 44.5266 17.3751C44.66 17.4101 44.7416 17.5451 44.7066 17.6801C44.6016 18.0917 44.2483 18.6651 43.695 19.0167C43.3883 19.2117 43.0583 19.3084 42.6983 19.3084H42.6966Z" fill="#5E4C31"/>
<path d="M46.635 20.945C46.6083 20.945 46.5817 20.9416 46.555 20.9316C45.7233 20.6533 45.2267 20.19 45.0367 19.5183C44.8583 18.8883 44.9767 18.225 45.1717 17.8483C45.235 17.7266 45.385 17.6783 45.5083 17.7416C45.6317 17.805 45.6783 17.9566 45.615 18.0783C45.47 18.3583 45.3767 18.8866 45.5167 19.3833C45.66 19.8916 46.04 20.2333 46.7117 20.4583C46.8433 20.5016 46.9133 20.6433 46.8683 20.775C46.8333 20.88 46.7366 20.945 46.6316 20.945H46.635Z" fill="#5E4C31"/>
<path d="M42.665 22.7033C42.6267 22.7033 42.5867 22.695 42.55 22.675C42.4267 22.6116 42.38 22.46 42.4433 22.3383C42.5883 22.0583 42.68 21.53 42.54 21.0333C42.3967 20.525 42.015 20.185 41.3433 19.96C41.2117 19.9166 41.1417 19.775 41.185 19.6433C41.2283 19.5116 41.37 19.4416 41.5017 19.485C42.3333 19.7633 42.83 20.225 43.0217 20.8966C43.2 21.5266 43.0833 22.19 42.8883 22.5683C42.8433 22.655 42.7567 22.7033 42.6667 22.7033H42.665Z" fill="#5E4C31"/>
<path d="M43.5917 23.065C43.5717 23.065 43.55 23.0634 43.53 23.0567C43.3967 23.0234 43.315 22.8867 43.35 22.7534C43.455 22.3417 43.8084 21.7684 44.36 21.415C44.9484 21.04 45.6267 21.025 46.4334 21.3684C46.56 21.4234 46.62 21.57 46.565 21.6967C46.51 21.8234 46.3634 21.8834 46.2367 21.8284C45.585 21.55 45.0734 21.5517 44.6284 21.8367C44.1934 22.1134 43.9117 22.57 43.8334 22.8767C43.805 22.99 43.7034 23.065 43.5917 23.065Z" fill="#5E4C31"/>
</g>
<defs>
<clipPath id="clip0_4134_2009">
<rect width="44" height="34" fill="white" transform="translate(8 13)"/>
</clipPath>
</defs>
</svg>
