<svg width="60" height="60" viewBox="0 0 60 60" fill="none" xmlns="http://www.w3.org/2000/svg">
<rect width="60" height="60" rx="12" fill="#FFEF7D"/>
<g clip-path="url(#clip0_4134_1837)">
<path d="M24.68 34.7917C27.5534 34.7917 29.8834 32.5034 29.8834 29.68C29.8834 26.8567 27.5534 24.5684 24.68 24.5684C21.8067 24.5684 19.4767 26.8567 19.4767 29.68C19.4767 32.5034 21.8067 34.7917 24.68 34.7917Z" fill="white"/>
<path d="M35.0867 34.7917C37.96 34.7917 40.29 32.5034 40.29 29.68C40.29 26.8567 37.96 24.5684 35.0867 24.5684C32.2134 24.5684 29.8834 26.8567 29.8834 29.68C29.8834 32.5034 32.2134 34.7917 35.0867 34.7917Z" fill="white"/>
<path d="M16.6883 43.2C19.62 43.2 21.9967 40.865 21.9967 37.985C21.9967 35.105 19.62 32.77 16.6883 32.77C13.7567 32.77 11.38 35.105 11.38 37.985C11.38 40.865 13.7567 43.2 16.6883 43.2Z" fill="#FBB03B"/>
<path d="M43.3117 43.2C46.2434 43.2 48.62 40.865 48.62 37.985C48.62 35.105 46.2434 32.77 43.3117 32.77C40.38 32.77 38.0034 35.105 38.0034 37.985C38.0034 40.865 40.38 43.2 43.3117 43.2Z" fill="#FBB03B"/>
<path d="M26.12 32.835C27.7115 32.835 29.0017 31.5658 29.0017 30C29.0017 28.4343 27.7115 27.165 26.12 27.165C24.5285 27.165 23.2383 28.4343 23.2383 30C23.2383 31.5658 24.5285 32.835 26.12 32.835Z" fill="#5E4C31"/>
<path d="M33.6467 32.835C35.2382 32.835 36.5283 31.5658 36.5283 30C36.5283 28.4343 35.2382 27.165 33.6467 27.165C32.0552 27.165 30.765 28.4343 30.765 30C30.765 31.5658 32.0552 32.835 33.6467 32.835Z" fill="#5E4C31"/>
<path d="M33.1683 35.4017C32.7416 34.7884 31.9316 34.5767 31.31 34.4901C30.8783 34.4301 30.44 34.3984 30 34.3967C29.56 34.3984 29.1216 34.4301 28.69 34.4901C28.0683 34.5767 27.2583 34.7884 26.8316 35.4017C26.555 35.8001 26.47 36.2201 26.6066 36.8184C27.0216 38.6367 28.1066 40.5551 29.825 40.7451C29.88 40.7517 29.94 40.7551 30.0016 40.7584C30.0633 40.7551 30.1216 40.7517 30.1783 40.7451C31.8966 40.5551 32.9816 38.6367 33.3966 36.8184C33.5333 36.2201 33.4483 35.8001 33.1716 35.4017H33.1683Z" fill="#E5786B"/>
<path d="M20.6183 18.3067C20.505 18.3067 20.3917 18.2617 20.31 18.17C20.155 18 20.1667 17.7367 20.3367 17.5817C20.385 17.5367 20.435 17.49 20.49 17.4384C20.9183 17.0334 21.565 16.42 22.7767 16.0734C24.325 15.63 25.3217 15.87 26.0183 16.1284C26.2333 16.2084 26.3433 16.4484 26.2633 16.6634C26.1833 16.88 25.9433 16.9884 25.7283 16.9084C25.1517 16.695 24.3217 16.4967 23.0067 16.8734C21.99 17.1634 21.455 17.6717 21.0633 18.0434C21.005 18.0984 20.95 18.15 20.8983 18.1984C20.8183 18.2717 20.7183 18.3067 20.6183 18.3067Z" fill="#5E4C31"/>
<path d="M39.1466 18.3066C39.0466 18.3066 38.9466 18.2699 38.8666 18.1983C38.815 18.1499 38.76 18.0983 38.7016 18.0449C38.31 17.6749 37.775 17.1666 36.7583 16.8749C35.4416 16.4983 34.6133 16.6966 34.0366 16.9099C33.8216 16.9899 33.5816 16.8799 33.5016 16.6649C33.4216 16.4499 33.5316 16.2099 33.7466 16.1299C34.4416 15.8716 35.4383 15.6316 36.9883 16.0749C38.2016 16.4216 38.8466 17.0349 39.275 17.4416C39.3283 17.4933 39.3783 17.5399 39.4283 17.5849C39.5983 17.7399 39.61 18.0033 39.455 18.1733C39.3733 18.2633 39.26 18.3083 39.1466 18.3083V18.3066Z" fill="#5E4C31"/>
</g>
<defs>
<clipPath id="clip0_4134_1837">
<rect width="44" height="34" fill="white" transform="translate(8 13)"/>
</clipPath>
</defs>
</svg>
