<svg width="172" height="76" viewBox="0 0 172 76" fill="none" xmlns="http://www.w3.org/2000/svg">
<path d="M24.7123 53.6981H25.0243V53.3862V44.1398V43.8278H24.7123C22.3669 43.8278 19.9808 43.6589 18.184 42.6694C17.294 42.1793 16.5495 41.488 16.0247 40.5094C15.4984 39.5282 15.1835 38.2402 15.1835 36.5445V27.412H23.4575H23.7695V27.1V17.8536V17.5416H23.4575H15.1835V10.5226V10.2106H14.8715H5.62515H5.31317V10.5226V17.5416H2.38892H2.07693V17.8536V27.1V27.412H2.38892H5.31317V38.5919C5.31317 41.8439 6.05127 44.4278 7.29132 46.4708C8.53103 48.5133 10.2617 49.9977 12.2205 51.0677C16.1284 53.2023 20.9634 53.6981 24.7123 53.6981Z" fill="#F5822C" stroke="#F5822C" stroke-width="0.623965"/>
<path d="M66.9892 53.5003H67.3011V53.1884V34.9598C67.3011 24.353 59.633 16.8815 49.4871 16.8815C46.1615 16.8815 43.4248 17.8414 41.4113 19.7338V6.95642V6.64444H41.0993H31.8529H31.5409V6.95642V53.1884V53.5003H31.8529H41.0993H41.4113V53.1884V34.9598C41.4113 32.4211 42.2453 30.3747 43.6563 28.9638C45.0675 27.5526 47.081 26.7519 49.4871 26.7519C51.8588 26.7519 53.8386 27.5517 55.2252 28.962C56.6121 30.3724 57.4308 32.4193 57.4308 34.9598V53.1884V53.5003H57.7428H66.9892Z" fill="#F5822C" stroke="#F5822C" stroke-width="0.623965"/>
<path d="M75.3876 53.1892V53.5012H75.6996H84.4837H84.7957V53.1892V17.8548V17.5428H84.4837H75.6996H75.3876V17.8548V53.1892ZM74.9253 9.66516C74.9253 12.4051 77.3025 14.9306 80.1247 14.9306C83.0155 14.9306 85.324 12.4024 85.324 9.66516C85.324 6.85378 83.0076 4.4658 80.1247 4.4658C77.3106 4.4658 74.9253 6.85103 74.9253 9.66516Z" fill="#F5822C" stroke="#F5822C" stroke-width="0.623965"/>
<path d="M92.3611 53.184V53.4959H92.6731H101.919H102.231V53.184V34.9554C102.231 32.3472 103.051 30.3022 104.443 28.9099C105.836 27.5172 107.832 26.7475 110.241 26.7475C112.651 26.7475 114.646 27.5172 116.039 28.9099C117.431 30.3022 118.251 32.3472 118.251 34.9554V53.184V53.4959H118.563H127.809H128.121V53.184V34.9554C128.121 24.3471 120.386 16.8771 110.241 16.8771C100.03 16.8771 92.3611 24.3479 92.3611 34.9554V53.184Z" fill="#F5822C" stroke="#F5822C" stroke-width="0.623965"/>
<path fill-rule="evenodd" clip-rule="evenodd" d="M165.276 23.874C167.979 27.0394 169.611 31.1472 169.611 35.6363C169.611 45.6445 161.498 53.7578 151.49 53.7578C141.482 53.7578 133.368 45.6445 133.368 35.6363C133.368 25.6281 141.482 17.5148 151.49 17.5148C151.654 17.5148 151.818 17.517 151.981 17.5214L151.978 17.5177L169.609 17.5177L165.276 23.874ZM151.489 27.3127C156.087 27.3127 159.815 31.0404 159.815 35.6388C159.815 40.2371 156.087 43.9648 151.489 43.9648C146.891 43.9648 143.163 40.2371 143.163 35.6388C143.163 31.0404 146.891 27.3127 151.489 27.3127Z" fill="#F5822C"/>
<path fill-rule="evenodd" clip-rule="evenodd" d="M133.647 56.6901C134.255 66.0107 141.937 73.3808 151.325 73.3808C160.713 73.3808 168.395 66.0107 169.003 56.6901H159.379C158.806 60.662 155.418 63.7124 151.324 63.7124C147.231 63.7124 143.843 60.662 143.27 56.6901H133.647Z" fill="#F5822C"/>
</svg>
