<svg width="132" height="102" viewBox="0 0 132 102" fill="none" xmlns="http://www.w3.org/2000/svg">
<g id="&#225;&#132;&#134;&#225;&#133;&#174;&#225;&#132;&#131;&#225;&#133;&#179;&#225;&#132;&#144;&#225;&#133;&#179;&#225;&#132;&#133;&#225;&#133;&#162;&#225;&#132;&#143;&#225;&#133;&#181;&#225;&#134;&#188; (1)_&#225;&#132;&#131;&#225;&#133;&#162;&#225;&#132;&#140;&#225;&#133;&#181; 1 &#225;&#132;&#137;&#225;&#133;&#161;&#225;&#132;&#135;&#225;&#133;&#169;&#225;&#134;&#171; 6 1">
<path id="Vector" d="M50.0401 60.05C58.6601 60.05 65.6501 53.185 65.6501 44.715C65.6501 36.245 58.6601 29.38 50.0401 29.38C41.4201 29.38 34.4301 36.245 34.4301 44.715C34.4301 53.185 41.4201 60.05 50.0401 60.05Z" fill="white"/>
<path id="Vector_2" d="M81.26 60.05C89.88 60.05 96.87 53.185 96.87 44.715C96.87 36.245 89.88 29.38 81.26 29.38C72.64 29.38 65.65 36.245 65.65 44.715C65.65 53.185 72.64 60.05 81.26 60.05Z" fill="white"/>
<path id="Vector_3" d="M26.065 85.275C34.86 85.275 41.99 78.27 41.99 69.63C41.99 60.99 34.86 53.985 26.065 53.985C17.27 53.985 10.14 60.99 10.14 69.63C10.14 78.27 17.27 85.275 26.065 85.275Z" fill="#FBB03B"/>
<path id="Vector_4" d="M105.935 85.275C114.73 85.275 121.86 78.27 121.86 69.63C121.86 60.99 114.73 53.985 105.935 53.985C97.14 53.985 90.01 60.99 90.01 69.63C90.01 78.27 97.14 85.275 105.935 85.275Z" fill="#FBB03B"/>
<path id="Vector_5" d="M49.735 53.71C49.68 53.71 49.625 53.71 49.57 53.71C43.73 53.65 39.445 50.67 38.66 46.125C38.52 45.31 39.065 44.535 39.885 44.39C40.7 44.25 41.48 44.795 41.62 45.615C42.26 49.32 46.32 50.675 49.605 50.71C49.65 50.71 49.695 50.71 49.74 50.71C53.6 50.71 57.805 48.965 58.46 45.585C58.62 44.77 59.405 44.24 60.22 44.4C61.035 44.56 61.565 45.345 61.405 46.16C60.395 51.365 54.68 53.715 49.735 53.715V53.71Z" fill="#5E4C31"/>
<path id="Vector_6" d="M80.96 53.71C80.905 53.71 80.85 53.71 80.795 53.71C74.955 53.65 70.67 50.67 69.885 46.125C69.745 45.31 70.29 44.535 71.11 44.39C71.925 44.25 72.7 44.795 72.845 45.615C73.485 49.32 77.545 50.675 80.83 50.71C84.73 50.755 89.02 49.005 89.685 45.585C89.845 44.77 90.63 44.24 91.445 44.4C92.26 44.56 92.79 45.345 92.63 46.16C91.62 51.365 85.905 53.715 80.96 53.715V53.71Z" fill="#5E4C31"/>
<path id="Vector_7" d="M43.36 24.16C42.115 24.16 40.86 23.95 39.615 23.465C38.97 23.215 38.655 22.49 38.905 21.845C39.155 21.2 39.875 20.885 40.525 21.13C45.835 23.19 51.845 18.745 53.575 15.78C53.925 15.185 54.69 14.985 55.285 15.33C55.88 15.68 56.08 16.445 55.735 17.04C53.97 20.06 48.835 24.15 43.365 24.15L43.36 24.16Z" fill="#5E4C31"/>
<path id="Vector_8" d="M88.64 24.16C83.17 24.16 78.035 20.07 76.27 17.05C75.92 16.455 76.125 15.69 76.72 15.34C77.315 14.995 78.08 15.195 78.43 15.79C80.16 18.755 86.175 23.205 91.48 21.14C92.125 20.89 92.85 21.21 93.1 21.855C93.35 22.5 93.03 23.225 92.39 23.475C91.15 23.955 89.89 24.17 88.645 24.17L88.64 24.16Z" fill="#5E4C31"/>
<path id="Vector_9" d="M76.265 61.475C74.885 59.635 72.255 59 70.24 58.74C68.84 58.56 67.42 58.465 65.995 58.46C64.57 58.465 63.15 58.56 61.75 58.74C59.735 59 57.11 59.635 55.725 61.475C54.83 62.67 54.55 63.93 54.995 65.725C56.34 71.18 59.855 76.935 65.42 77.505C65.6 77.525 65.795 77.535 65.99 77.545C66.19 77.535 66.38 77.525 66.56 77.505C72.125 76.935 75.64 71.18 76.985 65.725C77.425 63.93 77.15 62.67 76.255 61.475H76.265Z" fill="#E5786B"/>
</g>
</svg>
