<svg width="132" height="102" viewBox="0 0 132 102" fill="none" xmlns="http://www.w3.org/2000/svg">
<g id="&#225;&#132;&#134;&#225;&#133;&#174;&#225;&#132;&#131;&#225;&#133;&#179;&#225;&#132;&#144;&#225;&#133;&#179;&#225;&#132;&#133;&#225;&#133;&#162;&#225;&#132;&#143;&#225;&#133;&#181;&#225;&#134;&#188; (1)_&#225;&#132;&#131;&#225;&#133;&#162;&#225;&#132;&#140;&#225;&#133;&#181; 1 &#225;&#132;&#137;&#225;&#133;&#161;&#225;&#132;&#135;&#225;&#133;&#169;&#225;&#134;&#171; 14 1">
<g id="Group">
<path id="Vector" d="M50.0401 53.725C58.6601 53.725 65.6501 46.86 65.6501 38.39C65.6501 29.92 58.6601 23.055 50.0401 23.055C41.4201 23.055 34.4301 29.92 34.4301 38.39C34.4301 46.86 41.4201 53.725 50.0401 53.725Z" fill="white"/>
<path id="Vector_2" d="M50.13 46.895C54.9045 46.895 58.775 43.0872 58.775 38.39C58.775 33.6928 54.9045 29.885 50.13 29.885C45.3555 29.885 41.485 33.6928 41.485 38.39C41.485 43.0872 45.3555 46.895 50.13 46.895Z" fill="#5E4C31"/>
<path id="Vector_3" d="M81.26 53.725C89.88 53.725 96.87 46.86 96.87 38.39C96.87 29.92 89.88 23.055 81.26 23.055C72.64 23.055 65.65 29.92 65.65 38.39C65.65 46.86 72.64 53.725 81.26 53.725Z" fill="white"/>
<path id="Vector_4" d="M81.26 29.885C76.49 29.885 72.61 33.7 72.61 38.39C72.61 43.08 76.49 46.895 81.26 46.895C86.03 46.895 89.905 43.08 89.905 38.39C89.905 33.7 86.025 29.885 81.26 29.885Z" fill="#5E4C31"/>
<path id="Vector_5" d="M26.065 78.95C34.86 78.95 41.99 71.945 41.99 63.305C41.99 54.665 34.86 47.66 26.065 47.66C17.27 47.66 10.14 54.665 10.14 63.305C10.14 71.945 17.27 78.95 26.065 78.95Z" fill="#FBB03B"/>
<path id="Vector_6" d="M105.935 78.95C114.73 78.95 121.86 71.945 121.86 63.305C121.86 54.665 114.73 47.66 105.935 47.66C97.14 47.66 90.01 54.665 90.01 63.305C90.01 71.945 97.14 78.95 105.935 78.95Z" fill="#FBB03B"/>
<path id="Vector_7" d="M96.0201 21.09C95.5401 21.09 95.0801 20.81 94.8751 20.345C93.0201 16.13 85.6101 11.395 78.6651 13.86C78.0151 14.09 77.3001 13.75 77.0701 13.1C76.8401 12.45 77.1801 11.735 77.8301 11.505C86.2201 8.52504 94.8851 14.15 97.1651 19.34C97.4451 19.97 97.1551 20.71 96.5251 20.985C96.3601 21.055 96.1901 21.09 96.0201 21.09Z" fill="#5E4C31"/>
<path id="Vector_8" d="M36.24 20.9C36.08 20.9 35.92 20.87 35.765 20.805C35.125 20.545 34.82 19.815 35.085 19.175C37.235 13.935 45.755 8.09001 54.22 10.86C54.875 11.075 55.235 11.78 55.02 12.435C54.805 13.09 54.1 13.45 53.445 13.235C46.44 10.94 39.15 15.865 37.4 20.125C37.2 20.61 36.735 20.9 36.245 20.9H36.24Z" fill="#5E4C31"/>
<path id="Vector_9" d="M75.64 59.565C74.335 55.975 69.725 53.485 65.65 53.685C61.58 53.48 56.97 55.97 55.66 59.565C55.395 60.3 55.265 61.075 55.305 61.89C55.42 64.115 57.445 64 59.215 63.41C61.13 62.77 63.16 62.445 65.19 62.44V62.455C65.34 62.45 65.495 62.45 65.645 62.445C65.795 62.445 65.95 62.445 66.1 62.455V62.44C68.13 62.445 70.16 62.77 72.075 63.41C73.85 64.005 75.875 64.12 75.985 61.89C76.025 61.08 75.895 60.3 75.63 59.565H75.64Z" fill="#E5786B"/>
</g>
<path id="Vector_10" d="M105.935 32.155C103.435 32.155 101.405 30.04 101.405 27.445V23.925C101.405 23.375 101.855 22.925 102.405 22.925C102.955 22.925 103.405 23.375 103.405 23.925V27.445C103.405 28.94 104.54 30.155 105.935 30.155C107.33 30.155 108.465 28.94 108.465 27.445V23.925C108.465 23.375 108.915 22.925 109.465 22.925C110.015 22.925 110.465 23.375 110.465 23.925V27.445C110.465 30.04 108.43 32.155 105.935 32.155Z" fill="white"/>
<path id="Vector_11" d="M113.715 43.005C111.215 43.005 109.185 40.89 109.185 38.295V34.775C109.185 34.225 109.635 33.775 110.185 33.775C110.735 33.775 111.185 34.225 111.185 34.775V38.295C111.185 39.79 112.32 41.005 113.715 41.005C115.11 41.005 116.245 39.79 116.245 38.295V34.775C116.245 34.225 116.695 33.775 117.245 33.775C117.795 33.775 118.245 34.225 118.245 34.775V38.295C118.245 40.89 116.21 43.005 113.715 43.005Z" fill="white"/>
</g>
</svg>
