<svg width="132" height="102" viewBox="0 0 132 102" fill="none" xmlns="http://www.w3.org/2000/svg">
<g id="&#225;&#132;&#134;&#225;&#133;&#174;&#225;&#132;&#131;&#225;&#133;&#179;&#225;&#132;&#144;&#225;&#133;&#179;&#225;&#132;&#133;&#225;&#133;&#162;&#225;&#132;&#143;&#225;&#133;&#181;&#225;&#134;&#188; (1)_&#225;&#132;&#131;&#225;&#133;&#162;&#225;&#132;&#140;&#225;&#133;&#181; 1 1">
<path id="Vector" d="M50.0401 65.375C58.6601 65.375 65.6501 58.51 65.6501 50.04C65.6501 41.57 58.6601 34.705 50.0401 34.705C41.4201 34.705 34.4301 41.57 34.4301 50.04C34.4301 58.51 41.4201 65.375 50.0401 65.375Z" fill="white"/>
<path id="Vector_2" d="M81.26 65.375C89.88 65.375 96.87 58.51 96.87 50.04C96.87 41.57 89.88 34.705 81.26 34.705C72.64 34.705 65.65 41.57 65.65 50.04C65.65 58.51 72.64 65.375 81.26 65.375Z" fill="white"/>
<path id="Vector_3" d="M26.065 90.6C34.86 90.6 41.99 83.595 41.99 74.955C41.99 66.315 34.86 59.31 26.065 59.31C17.27 59.31 10.14 66.315 10.14 74.955C10.14 83.595 17.27 90.6 26.065 90.6Z" fill="#FBB03B"/>
<path id="Vector_4" d="M105.935 90.6C114.73 90.6 121.86 83.595 121.86 74.955C121.86 66.315 114.73 59.31 105.935 59.31C97.14 59.31 90.01 66.315 90.01 74.955C90.01 83.595 97.14 90.6 105.935 90.6Z" fill="#FBB03B"/>
<path id="Vector_5" d="M47.705 58.16C47.07 58.16 46.46 57.815 46.145 57.21C45.705 56.35 46.04 55.295 46.9 54.855L56.43 49.955L46.92 45.235C46.055 44.805 45.7 43.755 46.13 42.89C46.56 42.025 47.61 41.67 48.475 42.1L61.085 48.36C61.675 48.655 62.05 49.255 62.055 49.915C62.06 50.575 61.69 51.18 61.105 51.485L48.495 57.97C48.24 58.1 47.965 58.165 47.695 58.165L47.705 58.16Z" fill="#5E4C31"/>
<path id="Vector_6" d="M84.73 58.16C84.46 58.16 84.185 58.1 83.93 57.965L71.32 51.48C70.735 51.18 70.365 50.57 70.37 49.91C70.375 49.25 70.75 48.65 71.34 48.355L83.95 42.095C84.815 41.665 85.865 42.02 86.295 42.885C86.725 43.75 86.37 44.8 85.505 45.23L75.995 49.95L85.525 54.85C86.385 55.29 86.725 56.345 86.28 57.205C85.97 57.81 85.355 58.155 84.72 58.155L84.73 58.16Z" fill="#5E4C31"/>
<path id="Vector_7" d="M59.605 28.96C59.425 28.96 59.24 28.92 59.065 28.835L50.685 24.805C50.065 24.505 49.8 23.76 50.1 23.135C50.4 22.515 51.145 22.25 51.77 22.55L60.15 26.58C60.77 26.88 61.035 27.625 60.735 28.25C60.52 28.7 60.075 28.96 59.61 28.96H59.605Z" fill="#5E4C31"/>
<path id="Vector_8" d="M71.725 28.96C71.26 28.96 70.815 28.7 70.6 28.25C70.3 27.63 70.565 26.88 71.185 26.58L79.565 22.55C80.185 22.25 80.935 22.515 81.235 23.135C81.535 23.755 81.27 24.505 80.65 24.805L72.27 28.835C72.095 28.92 71.91 28.96 71.73 28.96H71.725Z" fill="#5E4C31"/>
<path id="Vector_9" d="M72.63 64.595C72.155 64.025 71.32 63.935 70.815 63.935H60.48C59.975 63.935 59.145 64.03 58.665 64.595C58.055 65.51 57.865 66.475 58.17 67.85C59.085 72.03 61.475 76.435 65.26 76.87C65.38 76.885 65.515 76.895 65.65 76.9C65.785 76.89 65.915 76.885 66.04 76.87C69.825 76.435 72.215 72.025 73.13 67.85C73.43 66.475 73.245 65.51 72.635 64.595H72.63Z" fill="#E5786B"/>
</g>
</svg>
