<svg width="132" height="102" viewBox="0 0 132 102" fill="none" xmlns="http://www.w3.org/2000/svg">
<g id="&#225;&#132;&#134;&#225;&#133;&#174;&#225;&#132;&#131;&#225;&#133;&#179;&#225;&#132;&#144;&#225;&#133;&#179;&#225;&#132;&#133;&#225;&#133;&#162;&#225;&#132;&#143;&#225;&#133;&#181;&#225;&#134;&#188; (1)_&#225;&#132;&#131;&#225;&#133;&#162;&#225;&#132;&#140;&#225;&#133;&#181; 1 &#225;&#132;&#137;&#225;&#133;&#161;&#225;&#132;&#135;&#225;&#133;&#169;&#225;&#134;&#171; 12 1">
<path id="Vector" d="M50.1799 59.18C58.7999 59.18 65.7899 52.315 65.7899 43.845C65.7899 35.375 58.7999 28.51 50.1799 28.51C41.5599 28.51 34.5699 35.375 34.5699 43.845C34.5699 52.315 41.5599 59.18 50.1799 59.18Z" fill="white"/>
<path id="Vector_2" d="M54.5 35.34C49.73 35.34 45.85 39.155 45.85 43.845C45.85 48.535 49.73 52.35 54.5 52.35C59.27 52.35 63.15 48.535 63.15 43.845C63.15 39.155 59.27 35.34 54.5 35.34Z" fill="#5E4C31"/>
<path id="Vector_3" d="M81.4 59.18C90.02 59.18 97.01 52.315 97.01 43.845C97.01 35.375 90.02 28.51 81.4 28.51C72.78 28.51 65.79 35.375 65.79 43.845C65.79 52.315 72.78 59.18 81.4 59.18Z" fill="white"/>
<path id="Vector_4" d="M77.0801 35.34C72.3101 35.34 68.4301 39.155 68.4301 43.845C68.4301 48.535 72.3101 52.35 77.0801 52.35C81.8501 52.35 85.7301 48.535 85.7301 43.845C85.7301 39.155 81.8501 35.34 77.0801 35.34Z" fill="#5E4C31"/>
<path id="Vector_5" d="M26.205 84.405C35 84.405 42.13 77.4 42.13 68.76C42.13 60.12 35 53.115 26.205 53.115C17.41 53.115 10.28 60.12 10.28 68.76C10.28 77.4 17.41 84.405 26.205 84.405Z" fill="#FBB03B"/>
<path id="Vector_6" d="M106.08 84.405C114.875 84.405 122.005 77.4 122.005 68.76C122.005 60.12 114.875 53.115 106.08 53.115C97.285 53.115 90.155 60.12 90.155 68.76C90.155 77.4 97.285 84.405 106.08 84.405Z" fill="#FBB03B"/>
<path id="Vector_7" d="M59.89 32.695C55.08 32.695 50.395 29.745 48.13 24.845C47.84 24.22 48.115 23.475 48.74 23.185C49.365 22.895 50.11 23.17 50.4 23.795C52.49 28.33 57.89 31.715 63.295 29.535C63.935 29.275 64.665 29.585 64.92 30.225C65.18 30.865 64.87 31.595 64.23 31.85C62.815 32.42 61.345 32.69 59.89 32.69V32.695Z" fill="#5E4C31"/>
<path id="Vector_8" d="M71.905 32.73C70.47 32.73 69.0249 32.465 67.6299 31.915C66.9899 31.66 66.675 30.935 66.93 30.29C67.185 29.645 67.91 29.335 68.555 29.59C73.975 31.735 79.35 28.32 81.415 23.775C81.7 23.145 82.4399 22.87 83.07 23.155C83.6999 23.44 83.975 24.18 83.69 24.81C81.45 29.745 76.74 32.735 71.91 32.735L71.905 32.73Z" fill="#5E4C31"/>
<path id="Vector_9" d="M59.675 64.29C59.52 64.29 59.36 64.26 59.21 64.2C58.57 63.94 58.26 63.215 58.52 62.575C59.49 60.175 62.15 58.47 65.465 58.12C68.965 57.755 72.1 58.955 73.645 61.255C74.03 61.83 73.875 62.605 73.305 62.99C72.73 63.375 71.955 63.22 71.57 62.65C70.56 61.145 68.265 60.34 65.725 60.605C63.335 60.855 61.46 61.965 60.84 63.505C60.645 63.99 60.175 64.29 59.68 64.29H59.675Z" fill="#5E4C31"/>
</g>
</svg>
