<svg width="132" height="102" viewBox="0 0 132 102" fill="none" xmlns="http://www.w3.org/2000/svg">
<g id="&#225;&#132;&#134;&#225;&#133;&#174;&#225;&#132;&#131;&#225;&#133;&#179;&#225;&#132;&#144;&#225;&#133;&#179;&#225;&#132;&#133;&#225;&#133;&#162;&#225;&#132;&#143;&#225;&#133;&#181;&#225;&#134;&#188; (1)_&#225;&#132;&#131;&#225;&#133;&#162;&#225;&#132;&#140;&#225;&#133;&#181; 1 &#225;&#132;&#137;&#225;&#133;&#161;&#225;&#132;&#135;&#225;&#133;&#169;&#225;&#134;&#171; 5 1">
<path id="Vector" d="M49.825 60.05C58.445 60.05 65.435 53.185 65.435 44.715C65.435 36.245 58.445 29.38 49.825 29.38C41.205 29.38 34.215 36.245 34.215 44.715C34.215 53.185 41.205 60.05 49.825 60.05Z" fill="white"/>
<path id="Vector_2" d="M81.0451 60.05C89.6651 60.05 96.6551 53.185 96.6551 44.715C96.6551 36.245 89.6651 29.38 81.0451 29.38C72.4251 29.38 65.4351 36.245 65.4351 44.715C65.4351 53.185 72.4251 60.05 81.0451 60.05Z" fill="white"/>
<path id="Vector_3" d="M25.85 85.275C34.6451 85.275 41.7751 78.27 41.7751 69.63C41.7751 60.99 34.6451 53.985 25.85 53.985C17.055 53.985 9.92505 60.99 9.92505 69.63C9.92505 78.27 17.055 85.275 25.85 85.275Z" fill="#FBB03B"/>
<path id="Vector_4" d="M105.725 85.275C114.52 85.275 121.65 78.27 121.65 69.63C121.65 60.99 114.52 53.985 105.725 53.985C96.93 53.985 89.8 60.99 89.8 69.63C89.8 78.27 96.93 85.275 105.725 85.275Z" fill="#FBB03B"/>
<path id="Vector_5" d="M49.525 53.71C49.47 53.71 49.415 53.71 49.36 53.71C43.52 53.65 39.235 50.67 38.45 46.125C38.31 45.31 38.855 44.535 39.675 44.39C40.49 44.25 41.265 44.795 41.41 45.615C42.05 49.32 46.11 50.675 49.395 50.71C53.295 50.74 57.585 49.005 58.25 45.585C58.41 44.77 59.195 44.24 60.01 44.4C60.825 44.56 61.355 45.345 61.195 46.16C60.185 51.365 54.47 53.715 49.525 53.715V53.71Z" fill="#5E4C31"/>
<path id="Vector_6" d="M80.745 53.71C80.69 53.71 80.635 53.71 80.58 53.71C74.74 53.65 70.455 50.67 69.67 46.125C69.53 45.31 70.075 44.535 70.895 44.39C71.71 44.25 72.485 44.795 72.63 45.615C73.27 49.32 77.33 50.675 80.615 50.71C84.515 50.755 88.805 49.005 89.47 45.585C89.63 44.77 90.415 44.24 91.23 44.4C92.045 44.56 92.575 45.345 92.415 46.16C91.405 51.365 85.69 53.715 80.745 53.715V53.71Z" fill="#5E4C31"/>
<path id="Vector_7" d="M65.315 67.845C65.125 67.845 64.94 67.845 64.755 67.835C61.205 67.7 58.32 66.4 57.04 64.36C56.745 63.89 56.885 63.275 57.355 62.98C57.825 62.685 58.44 62.83 58.735 63.295C59.635 64.73 62.03 65.73 64.835 65.835C68.035 65.955 70.925 64.935 72.19 63.23C72.52 62.785 73.145 62.695 73.59 63.02C74.035 63.35 74.125 63.975 73.8 64.42C71.92 66.955 68.295 67.845 65.325 67.845H65.315Z" fill="#5E4C31"/>
<path id="Vector_8" d="M57.31 21.96H44.005C43.315 21.96 42.755 21.4 42.755 20.71C42.755 20.02 43.315 19.46 44.005 19.46H57.31C58 19.46 58.56 20.02 58.56 20.71C58.56 21.4 58 21.96 57.31 21.96Z" fill="#5E4C31"/>
<path id="Vector_9" d="M86.8651 21.96H73.5601C72.8701 21.96 72.3101 21.4 72.3101 20.71C72.3101 20.02 72.8701 19.46 73.5601 19.46H86.8651C87.5551 19.46 88.1151 20.02 88.1151 20.71C88.1151 21.4 87.5551 21.96 86.8651 21.96Z" fill="#5E4C31"/>
</g>
</svg>
