<svg width="132" height="102" viewBox="0 0 132 102" fill="none" xmlns="http://www.w3.org/2000/svg">
<g id="&#225;&#132;&#134;&#225;&#133;&#174;&#225;&#132;&#131;&#225;&#133;&#179;&#225;&#132;&#144;&#225;&#133;&#179;&#225;&#132;&#133;&#225;&#133;&#162;&#225;&#132;&#143;&#225;&#133;&#181;&#225;&#134;&#188; (1)_&#225;&#132;&#131;&#225;&#133;&#162;&#225;&#132;&#140;&#225;&#133;&#181; 1 &#225;&#132;&#137;&#225;&#133;&#161;&#225;&#132;&#135;&#225;&#133;&#169;&#225;&#134;&#171; 13 1">
<path id="Vector" d="M66.535 34.875C66.055 36.35 65.79 37.925 65.79 39.56C65.79 48.03 72.78 54.895 81.4 54.895C90.02 54.895 97.01 48.03 97.01 39.56C97.01 36.035 95.8 32.795 93.765 30.205C84.79 31.73 69.995 34.28 66.535 34.88V34.875Z" fill="white"/>
<path id="Vector_2" d="M37.8399 30.17C35.7899 32.765 34.5699 36.02 34.5699 39.555C34.5699 48.025 41.5599 54.89 50.1799 54.89C58.7999 54.89 65.7899 48.025 65.7899 39.555C65.7899 37.905 65.52 36.32 65.035 34.835C61.18 34.17 46.6199 31.66 37.8399 30.17Z" fill="white"/>
<path id="Vector_3" d="M26.205 80.115C35 80.115 42.13 73.11 42.13 64.47C42.13 55.83 35 48.825 26.205 48.825C17.41 48.825 10.28 55.83 10.28 64.47C10.28 73.11 17.41 80.115 26.205 80.115Z" fill="#FBB03B"/>
<path id="Vector_4" d="M106.08 80.115C114.875 80.115 122.005 73.11 122.005 64.47C122.005 55.83 114.875 48.825 106.08 48.825C97.285 48.825 90.155 55.83 90.155 64.47C90.155 73.11 97.285 80.115 106.08 80.115Z" fill="#FBB03B"/>
<path id="Vector_5" d="M50.08 32.26C47.555 33.745 45.855 36.455 45.855 39.555C45.855 44.245 49.735 48.06 54.505 48.06C59.275 48.06 63.155 44.245 63.155 39.555C63.155 37.515 62.42 35.64 61.195 34.17C58.23 33.66 54.215 32.97 50.085 32.26H50.08Z" fill="#5E4C31"/>
<path id="Vector_6" d="M81.5501 32.29C77.3601 33.01 73.3101 33.705 70.3601 34.215C69.1551 35.675 68.4301 37.535 68.4301 39.56C68.4301 44.25 72.3101 48.065 77.0801 48.065C81.8501 48.065 85.7301 44.25 85.7301 39.56C85.7301 36.48 84.0501 33.785 81.5501 32.295V32.29Z" fill="#5E4C31"/>
<path id="Vector_7" d="M64.145 35.34C64.07 35.34 63.995 35.335 63.92 35.32L37.735 30.565C37.055 30.44 36.605 29.79 36.73 29.11C36.855 28.43 37.505 27.98 38.185 28.105L64.37 32.86C65.05 32.985 65.5 33.635 65.375 34.315C65.265 34.92 64.74 35.34 64.145 35.34Z" fill="#5E4C31"/>
<path id="Vector_8" d="M67.035 35.34C66.44 35.34 65.915 34.915 65.805 34.315C65.68 33.635 66.13 32.985 66.81 32.86L93.66 27.98C94.34 27.855 94.99 28.305 95.115 28.985C95.24 29.665 94.79 30.315 94.11 30.44L67.26 35.32C67.185 35.335 67.11 35.34 67.035 35.34Z" fill="#5E4C31"/>
<path id="Vector_9" d="M65.55 63.9C65.32 63.9 65.0849 63.82 64.8999 63.66C64.4799 63.3 64.4349 62.67 64.7949 62.25C67.5849 59.01 74.1199 54.465 80.9199 57.99C81.4099 58.245 81.5999 58.85 81.3449 59.34C81.0899 59.83 80.485 60.02 79.995 59.765C74.305 56.815 68.7149 60.76 66.3049 63.555C66.1049 63.785 65.8299 63.905 65.5449 63.905L65.55 63.9Z" fill="#5E4C31"/>
<path id="Vector_10" d="M104.09 18.925C103.095 18.925 102.02 18.675 100.86 18.18C100.48 18.015 100.305 17.575 100.465 17.195C100.63 16.815 101.07 16.64 101.45 16.8C103.405 17.64 104.935 17.635 106.275 16.78C107.58 15.95 108.43 14.58 108.665 13.665C108.77 13.265 109.175 13.02 109.58 13.125C109.98 13.23 110.225 13.635 110.12 14.04C109.805 15.275 108.745 16.995 107.085 18.05C106.165 18.635 105.175 18.925 104.095 18.925H104.09Z" fill="#5E4C31"/>
<path id="Vector_11" d="M115.905 23.835C115.825 23.835 115.745 23.825 115.665 23.795C113.17 22.96 111.68 21.57 111.11 19.555C110.575 17.665 110.93 15.675 111.515 14.545C111.705 14.18 112.155 14.035 112.525 14.225C112.895 14.415 113.035 14.87 112.845 15.235C112.41 16.075 112.13 17.66 112.55 19.15C112.98 20.675 114.12 21.7 116.135 22.375C116.53 22.505 116.74 22.93 116.605 23.325C116.5 23.64 116.21 23.835 115.895 23.835H115.905Z" fill="#5E4C31"/>
<path id="Vector_12" d="M103.995 29.11C103.88 29.11 103.76 29.085 103.65 29.025C103.28 28.835 103.14 28.38 103.33 28.015C103.765 27.175 104.04 25.59 103.62 24.1C103.19 22.575 102.045 21.555 100.03 20.88C99.635 20.75 99.425 20.325 99.555 19.93C99.685 19.535 100.11 19.325 100.505 19.455C103 20.29 104.49 21.675 105.065 23.69C105.6 25.58 105.25 27.57 104.665 28.705C104.53 28.965 104.27 29.11 104 29.11H103.995Z" fill="#5E4C31"/>
<path id="Vector_13" d="M106.775 30.195C106.715 30.195 106.65 30.19 106.59 30.17C106.19 30.07 105.945 29.66 106.05 29.26C106.365 28.025 107.425 26.305 109.08 25.245C110.845 24.12 112.88 24.075 115.3 25.105C115.68 25.27 115.86 25.71 115.695 26.09C115.53 26.47 115.09 26.65 114.71 26.485C112.755 25.65 111.22 25.655 109.885 26.51C108.58 27.34 107.735 28.71 107.5 29.63C107.415 29.97 107.11 30.195 106.775 30.195Z" fill="#5E4C31"/>
</g>
</svg>
