<svg width="132" height="102" viewBox="0 0 132 102" fill="none" xmlns="http://www.w3.org/2000/svg">
<g id="&#225;&#132;&#134;&#225;&#133;&#174;&#225;&#132;&#131;&#225;&#133;&#179;&#225;&#132;&#144;&#225;&#133;&#179;&#225;&#132;&#133;&#225;&#133;&#162;&#225;&#132;&#143;&#225;&#133;&#181;&#225;&#134;&#188; (1)_&#225;&#132;&#131;&#225;&#133;&#162;&#225;&#132;&#140;&#225;&#133;&#181; 1 &#225;&#132;&#137;&#225;&#133;&#161;&#225;&#132;&#135;&#225;&#133;&#169;&#225;&#134;&#171; 3 1">
<path id="Vector" d="M35.755 18.4C36.17 17.96 36.605 17.54 37.065 17.145C37.285 16.955 37.515 16.775 37.745 16.59C37.88 16.485 37.705 16.62 37.69 16.635C37.755 16.585 37.825 16.535 37.89 16.485C38.025 16.385 38.16 16.29 38.3 16.195C38.785 15.865 39.285 15.56 39.8 15.28C40.06 15.14 40.32 15.005 40.585 14.88C40.72 14.82 40.85 14.755 40.985 14.695C41.06 14.66 41.14 14.625 41.215 14.595C41.245 14.58 41.495 14.475 41.325 14.545C41.175 14.61 41.55 14.455 41.615 14.43C41.75 14.375 41.89 14.325 42.03 14.275C42.33 14.165 42.625 14.07 42.925 13.975C43.505 13.8 44.1 13.65 44.7 13.53C44.99 13.47 45.28 13.42 45.57 13.375C45.635 13.365 45.695 13.355 45.755 13.35C45.7 13.36 45.44 13.385 45.73 13.35C45.895 13.33 46.065 13.31 46.23 13.295C46.815 13.24 47.405 13.215 47.995 13.215C48.69 13.215 49.38 13.27 50.07 13.345C50.245 13.365 50 13.335 49.985 13.33C50.09 13.345 50.19 13.36 50.295 13.375C50.46 13.4 50.625 13.43 50.795 13.46C51.145 13.525 51.495 13.605 51.84 13.695C52.605 13.89 53.51 13.45 53.695 12.665C53.88 11.88 53.46 11.05 52.645 10.845C47.425 9.52502 41.655 10.495 37.15 13.4C35.865 14.23 34.67 15.2 33.63 16.31C33.095 16.88 33.015 17.85 33.63 18.4C34.21 18.925 35.19 19.01 35.755 18.4Z" fill="#5E4C31"/>
<path id="Vector_2" d="M79.5599 14.05C80.1449 13.88 80.7399 13.74 81.3449 13.635C81.4899 13.61 81.6349 13.59 81.7799 13.565C81.8099 13.565 82.0149 13.53 81.8299 13.555C81.6249 13.585 81.8949 13.55 81.9449 13.54C82.2599 13.505 82.5749 13.475 82.8899 13.455C83.4799 13.42 84.0649 13.41 84.6549 13.43C84.9499 13.44 85.2449 13.455 85.5399 13.485C85.6849 13.5 85.8349 13.51 85.9799 13.53C86.0649 13.54 86.1449 13.55 86.2299 13.56C86.4599 13.585 85.9799 13.52 86.2049 13.56C87.4149 13.745 88.6049 14.015 89.7599 14.42C90.0399 14.515 90.3099 14.625 90.5849 14.73C90.7449 14.79 90.5349 14.705 90.5199 14.7C90.5949 14.735 90.6749 14.765 90.7499 14.8C90.9049 14.865 91.0599 14.94 91.2099 15.005C91.7399 15.255 92.2599 15.53 92.7649 15.83C93.0699 16.01 93.3699 16.2 93.6649 16.4C93.7999 16.495 93.9399 16.59 94.0749 16.69C94.1249 16.725 94.1749 16.765 94.2249 16.8C94.4499 16.97 94.1349 16.72 94.2699 16.835C94.8049 17.275 95.3249 17.715 95.8149 18.205C96.3649 18.755 97.3949 18.79 97.9399 18.205C98.4849 17.62 98.5299 16.705 97.9399 16.115C94.1599 12.345 88.6999 10.28 83.3249 10.49C81.7849 10.55 80.2399 10.785 78.7649 11.215C78.0099 11.43 77.4599 12.265 77.7149 13.035C77.9699 13.805 78.7599 14.3 79.5699 14.065H79.5649L79.5599 14.05Z" fill="#5E4C31"/>
<path id="Vector_3" d="M50.1749 65.375C58.7949 65.375 65.7849 58.51 65.7849 50.04C65.7849 41.57 58.7949 34.705 50.1749 34.705C41.5549 34.705 34.5649 41.57 34.5649 50.04C34.5649 58.51 41.5549 65.375 50.1749 65.375Z" fill="white"/>
<path id="Vector_4" d="M81.4 65.375C90.02 65.375 97.01 58.51 97.01 50.04C97.01 41.57 90.02 34.705 81.4 34.705C72.78 34.705 65.79 41.57 65.79 50.04C65.79 58.51 72.78 65.375 81.4 65.375Z" fill="white"/>
<path id="Vector_5" d="M26.2 90.6C34.995 90.6 42.125 83.595 42.125 74.955C42.125 66.315 34.995 59.31 26.2 59.31C17.405 59.31 10.275 66.315 10.275 74.955C10.275 83.595 17.405 90.6 26.2 90.6Z" fill="#FBB03B"/>
<path id="Vector_6" d="M106.075 90.6C114.87 90.6 122 83.595 122 74.955C122 66.315 114.87 59.31 106.075 59.31C97.28 59.31 90.15 66.315 90.15 74.955C90.15 83.595 97.28 90.6 106.075 90.6Z" fill="#FBB03B"/>
<path id="Vector_7" d="M49.875 59.035C49.82 59.035 49.765 59.035 49.71 59.035C43.87 58.975 39.585 55.995 38.8 51.45C38.66 50.635 39.205 49.86 40.025 49.715C40.84 49.575 41.615 50.12 41.76 50.94C42.4 54.645 46.46 56 49.745 56.035C53.625 56.085 57.935 54.33 58.6 50.91C58.76 50.095 59.545 49.565 60.36 49.725C61.175 49.885 61.705 50.67 61.545 51.485C60.535 56.69 54.82 59.04 49.875 59.04V59.035Z" fill="#5E4C31"/>
<path id="Vector_8" d="M81.095 59.035C81.04 59.035 80.985 59.035 80.93 59.035C75.09 58.975 70.805 55.995 70.02 51.45C69.88 50.635 70.425 49.86 71.245 49.715C72.06 49.575 72.835 50.12 72.98 50.94C73.62 54.645 77.68 56 80.965 56.035C81.01 56.035 81.055 56.035 81.1 56.035C84.96 56.035 89.165 54.29 89.82 50.91C89.98 50.095 90.765 49.565 91.58 49.725C92.395 49.885 92.925 50.67 92.765 51.485C91.755 56.69 86.04 59.04 81.095 59.04V59.035Z" fill="#5E4C31"/>
<path id="Vector_9" d="M75.645 67.205C74.365 65.365 71.935 64.73 70.07 64.47C68.775 64.29 67.46 64.195 66.14 64.19C64.82 64.195 63.505 64.29 62.21 64.47C60.345 64.73 57.915 65.365 56.635 67.205C55.805 68.4 55.55 69.66 55.96 71.455C57.205 76.91 60.46 82.665 65.615 83.235C65.78 83.255 65.96 83.265 66.145 83.275C66.33 83.265 66.505 83.255 66.675 83.235C71.83 82.665 75.085 76.91 76.33 71.455C76.74 69.66 76.485 68.4 75.655 67.205H75.645Z" fill="#E5786B"/>
</g>
</svg>
