<svg width="132" height="102" viewBox="0 0 132 102" fill="none" xmlns="http://www.w3.org/2000/svg">
<g id="&#225;&#132;&#134;&#225;&#133;&#174;&#225;&#132;&#131;&#225;&#133;&#179;&#225;&#132;&#144;&#225;&#133;&#179;&#225;&#132;&#133;&#225;&#133;&#162;&#225;&#132;&#143;&#225;&#133;&#181;&#225;&#134;&#188; (1)_&#225;&#132;&#131;&#225;&#133;&#162;&#225;&#132;&#140;&#225;&#133;&#181; 1 &#225;&#132;&#137;&#225;&#133;&#161;&#225;&#132;&#135;&#225;&#133;&#169;&#225;&#134;&#171; 16">
<path id="Vector" d="M50.0401 65.375C58.6601 65.375 65.6501 58.51 65.6501 50.04C65.6501 41.57 58.6601 34.705 50.0401 34.705C41.4201 34.705 34.4301 41.57 34.4301 50.04C34.4301 58.51 41.4201 65.375 50.0401 65.375Z" fill="white"/>
<path id="Vector_2" d="M81.26 65.375C89.88 65.375 96.87 58.51 96.87 50.04C96.87 41.57 89.88 34.705 81.26 34.705C72.64 34.705 65.65 41.57 65.65 50.04C65.65 58.51 72.64 65.375 81.26 65.375Z" fill="white"/>
<path id="Vector_3" d="M26.065 90.6C34.86 90.6 41.99 83.595 41.99 74.955C41.99 66.315 34.86 59.31 26.065 59.31C17.27 59.31 10.14 66.315 10.14 74.955C10.14 83.595 17.27 90.6 26.065 90.6Z" fill="#FBB03B"/>
<path id="Vector_4" d="M105.935 90.6C114.73 90.6 121.86 83.595 121.86 74.955C121.86 66.315 114.73 59.31 105.935 59.31C97.14 59.31 90.01 66.315 90.01 74.955C90.01 83.595 97.14 90.6 105.935 90.6Z" fill="#FBB03B"/>
<path id="Vector_5" d="M65.43 73.02C65.06 73.02 64.7 73.01 64.355 72.985C60.465 72.725 57.39 71.185 56.125 68.87C55.86 68.385 56.04 67.78 56.525 67.515C57.01 67.25 57.615 67.43 57.88 67.915C58.8 69.6 61.33 70.78 64.485 70.99C68.32 71.245 71.835 69.995 73.44 67.8C73.765 67.355 74.39 67.255 74.835 67.585C75.28 67.91 75.38 68.535 75.05 68.98C72.86 71.975 68.825 73.02 65.425 73.02H65.43Z" fill="#5E4C31"/>
<path id="Vector_6" d="M61.575 49.055C58.175 44.05 51.7 43.41 47.185 44.385C42.27 45.445 38.835 48.295 38.22 51.825C38.14 52.285 38.245 52.75 38.515 53.13C38.785 53.51 39.185 53.765 39.645 53.845C39.745 53.865 39.845 53.87 39.945 53.87C40.795 53.87 41.52 53.26 41.665 52.42C42.02 50.385 44.53 48.53 47.92 47.8C51.37 47.055 56.255 47.455 58.675 51.015C58.94 51.4 59.335 51.665 59.795 51.75C60.255 51.84 60.72 51.74 61.105 51.48C61.905 50.94 62.11 49.845 61.57 49.05L61.575 49.055Z" fill="#5E4C31"/>
<path id="Vector_7" d="M93.76 51.825C93.145 48.295 89.71 45.445 84.795 44.385C80.28 43.415 73.805 44.05 70.405 49.055C69.865 49.855 70.07 50.945 70.87 51.485C71.67 52.03 72.76 51.82 73.3 51.02C75.72 47.46 80.61 47.065 84.055 47.805C87.44 48.535 89.955 50.39 90.31 52.425C90.455 53.265 91.18 53.875 92.03 53.875C92.13 53.875 92.23 53.865 92.33 53.85C92.79 53.77 93.19 53.515 93.46 53.135C93.73 52.755 93.835 52.29 93.755 51.83L93.76 51.825Z" fill="#5E4C31"/>
<path id="Vector_8" d="M37.115 23.12C36.775 23.155 36.425 23.05 36.155 22.81C35.64 22.35 35.595 21.56 36.06 21.045C36.19 20.9 36.33 20.74 36.475 20.57C37.63 19.23 39.375 17.205 42.885 15.8C47.375 14.01 50.42 14.425 52.575 14.985C53.245 15.16 53.645 15.84 53.47 16.51C53.295 17.18 52.61 17.58 51.945 17.405C50.16 16.94 47.625 16.6 43.81 18.125C40.865 19.3 39.42 20.975 38.365 22.2C38.21 22.38 38.06 22.55 37.92 22.71C37.705 22.95 37.415 23.09 37.115 23.12Z" fill="#5E4C31"/>
<path id="Vector_9" d="M92.86 22.75C92.56 22.735 92.265 22.61 92.035 22.38C91.885 22.23 91.73 22.065 91.565 21.895C90.45 20.725 88.93 19.115 85.93 18.085C82.045 16.75 79.53 17.21 77.77 17.76C77.115 17.965 76.41 17.6 76.205 16.94C76 16.28 76.365 15.58 77.025 15.375C79.15 14.71 82.17 14.15 86.745 15.72C90.325 16.95 92.165 18.89 93.38 20.175C93.535 20.335 93.675 20.49 93.815 20.625C94.3 21.115 94.295 21.91 93.805 22.395C93.545 22.65 93.2 22.77 92.86 22.755V22.75Z" fill="#5E4C31"/>
</g>
</svg>
