<svg width="132" height="102" viewBox="0 0 132 102" fill="none" xmlns="http://www.w3.org/2000/svg">
<g id="&#225;&#132;&#134;&#225;&#133;&#174;&#225;&#132;&#131;&#225;&#133;&#179;&#225;&#132;&#144;&#225;&#133;&#179;&#225;&#132;&#133;&#225;&#133;&#162;&#225;&#132;&#143;&#225;&#133;&#181;&#225;&#134;&#188; (1)_&#225;&#132;&#131;&#225;&#133;&#162;&#225;&#132;&#140;&#225;&#133;&#181; 1 &#225;&#132;&#137;&#225;&#133;&#161;&#225;&#132;&#135;&#225;&#133;&#169;&#225;&#134;&#171; 2 1">
<path id="Vector" d="M50.0401 65.375C58.6601 65.375 65.6501 58.51 65.6501 50.04C65.6501 41.57 58.6601 34.705 50.0401 34.705C41.4201 34.705 34.4301 41.57 34.4301 50.04C34.4301 58.51 41.4201 65.375 50.0401 65.375Z" fill="white"/>
<path id="Vector_2" d="M81.26 65.375C89.88 65.375 96.87 58.51 96.87 50.04C96.87 41.57 89.88 34.705 81.26 34.705C72.64 34.705 65.65 41.57 65.65 50.04C65.65 58.51 72.64 65.375 81.26 65.375Z" fill="white"/>
<path id="Vector_3" d="M26.065 90.6C34.86 90.6 41.99 83.595 41.99 74.955C41.99 66.315 34.86 59.31 26.065 59.31C17.27 59.31 10.14 66.315 10.14 74.955C10.14 83.595 17.27 90.6 26.065 90.6Z" fill="#FBB03B"/>
<path id="Vector_4" d="M105.935 90.6C114.73 90.6 121.86 83.595 121.86 74.955C121.86 66.315 114.73 59.31 105.935 59.31C97.14 59.31 90.01 66.315 90.01 74.955C90.01 83.595 97.14 90.6 105.935 90.6Z" fill="#FBB03B"/>
<path id="Vector_5" d="M54.36 59.505C59.1345 59.505 63.005 55.6972 63.005 51C63.005 46.3028 59.1345 42.495 54.36 42.495C49.5855 42.495 45.715 46.3028 45.715 51C45.715 55.6972 49.5855 59.505 54.36 59.505Z" fill="#5E4C31"/>
<path id="Vector_6" d="M76.94 59.505C81.7146 59.505 85.585 55.6972 85.585 51C85.585 46.3028 81.7146 42.495 76.94 42.495C72.1655 42.495 68.295 46.3028 68.295 51C68.295 55.6972 72.1655 59.505 76.94 59.505Z" fill="#5E4C31"/>
<path id="Vector_7" d="M75.505 67.205C74.225 65.365 71.795 64.73 69.93 64.47C68.635 64.29 67.32 64.195 66 64.19C64.68 64.195 63.365 64.29 62.07 64.47C60.205 64.73 57.775 65.365 56.495 67.205C55.665 68.4 55.41 69.66 55.82 71.455C57.065 76.91 60.32 82.665 65.475 83.235C65.64 83.255 65.82 83.265 66.005 83.275C66.19 83.265 66.365 83.255 66.535 83.235C71.69 82.665 74.945 76.91 76.19 71.455C76.6 69.66 76.345 68.4 75.515 67.205H75.505Z" fill="#E5786B"/>
<path id="Vector_8" d="M37.855 15.92C37.515 15.92 37.175 15.785 36.93 15.51C36.465 15 36.5 14.21 37.01 13.745C37.155 13.61 37.305 13.47 37.47 13.315C38.755 12.1 40.695 10.26 44.33 9.22002C48.975 7.89002 51.965 8.61002 54.055 9.38502C54.7 9.62502 55.03 10.345 54.79 10.99C54.55 11.64 53.83 11.965 53.185 11.725C51.455 11.085 48.965 10.49 45.02 11.62C41.97 12.49 40.365 14.015 39.19 15.13C39.015 15.295 38.85 15.45 38.695 15.595C38.455 15.815 38.155 15.92 37.855 15.92Z" fill="#5E4C31"/>
<path id="Vector_9" d="M93.44 15.92C93.14 15.92 92.84 15.81 92.6 15.595C92.445 15.45 92.28 15.295 92.105 15.135C90.93 14.025 89.325 12.5 86.275 11.625C82.325 10.495 79.84 11.09 78.11 11.73C77.465 11.97 76.745 11.64 76.505 10.995C76.265 10.35 76.595 9.62999 77.24 9.38999C79.325 8.61499 82.315 7.89499 86.965 9.22499C90.605 10.265 92.54 12.105 93.825 13.325C93.985 13.48 94.135 13.62 94.285 13.755C94.795 14.22 94.83 15.01 94.365 15.52C94.12 15.79 93.78 15.925 93.44 15.925V15.92Z" fill="#5E4C31"/>
</g>
</svg>
