<svg width="132" height="102" viewBox="0 0 132 102" fill="none" xmlns="http://www.w3.org/2000/svg">
<g id="&#225;&#132;&#134;&#225;&#133;&#174;&#225;&#132;&#131;&#225;&#133;&#179;&#225;&#132;&#144;&#225;&#133;&#179;&#225;&#132;&#133;&#225;&#133;&#162;&#225;&#132;&#143;&#225;&#133;&#181;&#225;&#134;&#188; (1)_&#225;&#132;&#131;&#225;&#133;&#162;&#225;&#132;&#140;&#225;&#133;&#181; 1 &#225;&#132;&#137;&#225;&#133;&#161;&#225;&#132;&#135;&#225;&#133;&#169;&#225;&#134;&#171; 11 1">
<path id="Vector" d="M63.2751 35.645L34.5251 42.08C34.4651 42.635 34.4301 43.2 34.4301 43.77C34.4301 52.24 41.4201 59.105 50.0401 59.105C58.6601 59.105 65.6501 52.24 65.6501 43.77C65.6501 40.785 64.7801 38 63.2801 35.645H63.2751Z" fill="white"/>
<path id="Vector_2" d="M68.17 35.415C66.58 37.82 65.65 40.685 65.65 43.765C65.65 52.235 72.64 59.1 81.26 59.1C89.88 59.1 96.87 52.235 96.87 43.765C96.87 43.1 96.82 42.445 96.74 41.805L68.17 35.415Z" fill="white"/>
<path id="Vector_3" d="M26.065 84.33C34.86 84.33 41.99 77.325 41.99 68.685C41.99 60.045 34.86 53.04 26.065 53.04C17.27 53.04 10.14 60.045 10.14 68.685C10.14 77.325 17.27 84.33 26.065 84.33Z" fill="#FBB03B"/>
<path id="Vector_4" d="M105.935 84.33C114.73 84.33 121.86 77.325 121.86 68.685C121.86 60.045 114.73 53.04 105.935 53.04C97.14 53.04 90.01 60.045 90.01 68.685C90.01 77.325 97.14 84.33 105.935 84.33Z" fill="#FBB03B"/>
<path id="Vector_5" d="M76.85 64.99C75.43 61.145 70.42 58.48 66 58.7C61.575 58.48 56.57 61.15 55.15 64.99C54.86 65.775 54.72 66.61 54.765 67.475C54.89 69.86 57.09 69.735 59.015 69.1C61.095 68.415 63.3 68.07 65.505 68.06V68.08C65.67 68.075 65.835 68.075 66 68.07C66.165 68.07 66.33 68.07 66.495 68.08V68.06C68.7 68.065 70.905 68.41 72.985 69.1C74.91 69.735 77.11 69.86 77.235 67.475C77.28 66.605 77.14 65.775 76.85 64.99Z" fill="#E5786B"/>
<path id="Vector_6" d="M58.995 36.605L47.025 39.285C46.195 40.59 45.71 42.125 45.71 43.775C45.71 48.465 49.59 52.28 54.36 52.28C59.13 52.28 63.01 48.465 63.01 43.775C63.01 40.765 61.405 38.12 59 36.61L58.995 36.605Z" fill="#5E4C31"/>
<path id="Vector_7" d="M72.62 36.415C70.035 37.89 68.29 40.63 68.29 43.77C68.29 48.46 72.17 52.275 76.94 52.275C81.71 52.275 85.59 48.46 85.59 43.77C85.59 41.995 85.03 40.345 84.08 38.975L72.62 36.41V36.415Z" fill="#5E4C31"/>
<path id="Vector_8" d="M34.86 43.255C34.295 43.255 33.78 42.87 33.645 42.295C33.485 41.625 33.9 40.95 34.57 40.79L62.385 34.135C63.06 33.975 63.73 34.39 63.89 35.06C64.05 35.73 63.635 36.405 62.965 36.565L35.15 43.22C35.05 43.245 34.955 43.255 34.86 43.255Z" fill="#5E4C31"/>
<path id="Vector_9" d="M96.965 43.255C96.87 43.255 96.77 43.245 96.675 43.22L68.505 36.48C67.835 36.32 67.42 35.645 67.58 34.975C67.74 34.305 68.41 33.89 69.085 34.05L97.255 40.79C97.925 40.95 98.34 41.625 98.18 42.295C98.045 42.87 97.53 43.255 96.965 43.255Z" fill="#5E4C31"/>
</g>
</svg>
