<svg width="132" height="102" viewBox="0 0 132 102" fill="none" xmlns="http://www.w3.org/2000/svg">
<g id="&#225;&#132;&#134;&#225;&#133;&#174;&#225;&#132;&#131;&#225;&#133;&#179;&#225;&#132;&#144;&#225;&#133;&#179;&#225;&#132;&#133;&#225;&#133;&#162;&#225;&#132;&#143;&#225;&#133;&#181;&#225;&#134;&#188; (1)_&#225;&#132;&#131;&#225;&#133;&#162;&#225;&#132;&#140;&#225;&#133;&#181; 1 &#225;&#132;&#137;&#225;&#133;&#161;&#225;&#132;&#135;&#225;&#133;&#169;&#225;&#134;&#171; 9 1">
<path id="Vector" d="M80.11 28.17C72.025 28.75 65.645 35.37 65.645 43.46C65.645 51.55 72.635 58.795 81.255 58.795C89.875 58.795 96.865 51.93 96.865 43.46C96.865 40.325 95.905 37.415 94.265 34.985C88.85 34.97 83.085 31.37 80.11 28.17Z" fill="white"/>
<path id="Vector_2" d="M51.9251 28.24C48.9101 31.64 42.5801 35.64 36.8151 35.315C35.3051 37.675 34.4301 40.465 34.4301 43.46C34.4301 51.93 41.4201 58.795 50.0401 58.795C58.6601 58.795 65.6501 51.93 65.6501 43.46C65.6501 35.615 59.6551 29.155 51.9251 28.24Z" fill="white"/>
<path id="Vector_3" d="M26.065 84.02C34.86 84.02 41.99 77.015 41.99 68.375C41.99 59.735 34.86 52.73 26.065 52.73C17.27 52.73 10.14 59.735 10.14 68.375C10.14 77.015 17.27 84.02 26.065 84.02Z" fill="#FBB03B"/>
<path id="Vector_4" d="M105.935 84.02C114.73 84.02 121.86 77.015 121.86 68.375C121.86 59.735 114.73 52.73 105.935 52.73C97.14 52.73 90.01 59.735 90.01 68.375C90.01 77.015 97.14 84.02 105.935 84.02Z" fill="#FBB03B"/>
<path id="Vector_5" d="M54.36 38.51C49.59 38.51 45.71 42.325 45.71 47.015C45.71 51.705 49.59 55.52 54.36 55.52C59.13 55.52 63.01 51.705 63.01 47.015C63.01 42.325 59.13 38.51 54.36 38.51Z" fill="#5E4C31"/>
<path id="Vector_6" d="M76.94 38.51C72.17 38.51 68.29 42.325 68.29 47.015C68.29 51.705 72.17 55.52 76.94 55.52C81.71 55.52 85.59 51.705 85.59 47.015C85.59 42.325 81.71 38.51 76.94 38.51Z" fill="#5E4C31"/>
<path id="Vector_7" d="M96.065 36.41C86.785 36.41 78.335 29.74 76.4 24.785C76.15 24.14 76.465 23.415 77.11 23.165C77.755 22.915 78.48 23.23 78.73 23.875C80.445 28.27 88.72 34.5 97.275 33.865C97.965 33.81 98.56 34.33 98.615 35.02C98.665 35.71 98.15 36.31 97.46 36.36C96.995 36.395 96.53 36.41 96.07 36.41H96.065Z" fill="#5E4C31"/>
<path id="Vector_8" d="M60.1651 64.465C59.9801 64.465 59.7951 64.415 59.6251 64.305C59.1601 64.005 59.0251 63.39 59.3251 62.925C60.7401 60.72 62.9951 59.435 65.5051 59.4C68.0801 59.365 70.4251 60.64 71.9601 62.9C72.2701 63.355 72.1551 63.98 71.6951 64.29C71.2401 64.6 70.6151 64.485 70.3051 64.025C69.1651 62.35 67.4551 61.4 65.6001 61.4C65.5751 61.4 65.5501 61.4 65.5251 61.4C63.6951 61.425 62.0451 62.375 61.0001 64.005C60.8101 64.305 60.4851 64.465 60.1551 64.465H60.1651Z" fill="#5E4C31"/>
<path id="Vector_9" d="M35.705 36.41C35.24 36.41 34.78 36.395 34.315 36.36C33.625 36.31 33.11 35.71 33.16 35.02C33.21 34.33 33.805 33.81 34.5 33.865C43.06 34.485 51.33 28.265 53.045 23.875C53.295 23.23 54.02 22.915 54.665 23.165C55.31 23.415 55.625 24.14 55.375 24.785C53.44 29.735 44.985 36.41 35.71 36.41H35.705Z" fill="#5E4C31"/>
<path id="Vector_10" d="M35.94 59.4C39.2426 59.4 41.92 56.7227 41.92 53.42C41.92 50.1173 39.2426 47.44 35.94 47.44C32.6373 47.44 29.96 50.1173 29.96 53.42C29.96 56.7227 32.6373 59.4 35.94 59.4Z" fill="white"/>
<path id="Vector_11" d="M94.85 60.145C98.1527 60.145 100.83 57.4677 100.83 54.165C100.83 50.8623 98.1527 48.185 94.85 48.185C91.5473 48.185 88.87 50.8623 88.87 54.165C88.87 57.4677 91.5473 60.145 94.85 60.145Z" fill="white"/>
</g>
</svg>
