<svg width="132" height="102" viewBox="0 0 132 102" fill="none" xmlns="http://www.w3.org/2000/svg">
<g id="&#225;&#132;&#134;&#225;&#133;&#174;&#225;&#132;&#131;&#225;&#133;&#179;&#225;&#132;&#144;&#225;&#133;&#179;&#225;&#132;&#133;&#225;&#133;&#162;&#225;&#132;&#143;&#225;&#133;&#181;&#225;&#134;&#188; (1)_&#225;&#132;&#131;&#225;&#133;&#162;&#225;&#132;&#140;&#225;&#133;&#181; 1 &#225;&#132;&#137;&#225;&#133;&#161;&#225;&#132;&#135;&#225;&#133;&#169;&#225;&#134;&#171; 10 1">
<path id="Vector" d="M81.26 59.105C89.88 59.105 96.87 52.24 96.87 43.77C96.87 35.3 89.88 28.435 81.26 28.435C72.64 28.435 65.65 35.3 65.65 43.77C65.65 52.24 72.64 59.105 81.26 59.105Z" fill="white"/>
<path id="Vector_2" d="M50.0401 59.105C58.6601 59.105 65.6501 52.24 65.6501 43.77C65.6501 35.3 58.6601 28.435 50.0401 28.435C41.4201 28.435 34.4301 35.3 34.4301 43.77C34.4301 52.24 41.4201 59.105 50.0401 59.105Z" fill="white"/>
<path id="Vector_3" d="M26.065 84.33C34.86 84.33 41.99 77.325 41.99 68.685C41.99 60.045 34.86 53.04 26.065 53.04C17.27 53.04 10.14 60.045 10.14 68.685C10.14 77.325 17.27 84.33 26.065 84.33Z" fill="#FBB03B"/>
<path id="Vector_4" d="M105.935 84.33C114.73 84.33 121.86 77.325 121.86 68.685C121.86 60.045 114.73 53.04 105.935 53.04C97.14 53.04 90.01 60.045 90.01 68.685C90.01 77.325 97.14 84.33 105.935 84.33Z" fill="#FBB03B"/>
<path id="Vector_5" d="M49.735 53.035C49.68 53.035 49.625 53.035 49.57 53.035C43.73 52.975 39.445 49.995 38.66 45.45C38.52 44.635 39.065 43.855 39.885 43.715C40.7 43.57 41.48 44.12 41.62 44.94C42.26 48.645 46.32 50 49.605 50.035C49.65 50.035 49.695 50.035 49.74 50.035C53.6 50.035 57.805 48.29 58.46 44.91C58.62 44.1 59.405 43.57 60.22 43.725C61.035 43.885 61.565 44.67 61.405 45.485C60.395 50.69 54.68 53.04 49.735 53.04V53.035Z" fill="#5E4C31"/>
<path id="Vector_6" d="M80.96 53.035C80.905 53.035 80.85 53.035 80.795 53.035C74.955 52.975 70.67 49.995 69.885 45.45C69.745 44.635 70.29 43.855 71.11 43.715C71.925 43.57 72.7 44.12 72.845 44.94C73.485 48.645 77.545 50 80.83 50.035C84.73 50.085 89.02 48.33 89.685 44.91C89.845 44.095 90.63 43.565 91.445 43.725C92.26 43.885 92.79 44.67 92.63 45.485C91.62 50.69 85.905 53.04 80.96 53.04V53.035Z" fill="#5E4C31"/>
<path id="Vector_7" d="M40.9851 24.88C39.8451 24.88 38.6801 24.735 37.5101 24.415C36.8451 24.235 36.4501 23.545 36.6301 22.88C36.8101 22.215 37.5001 21.82 38.1651 22C44.4951 23.72 50.7751 19.155 52.1551 15.375C52.3951 14.725 53.1101 14.395 53.7601 14.63C54.4101 14.865 54.7401 15.585 54.5051 16.235C53.0301 20.27 47.4101 24.88 40.9851 24.88Z" fill="#5E4C31"/>
<path id="Vector_8" d="M90.31 24.88C83.885 24.88 78.265 20.27 76.79 16.235C76.555 15.585 76.885 14.87 77.535 14.63C78.18 14.395 78.9 14.725 79.14 15.375C80.52 19.15 86.805 23.72 93.13 22C93.795 21.82 94.485 22.21 94.665 22.88C94.845 23.545 94.455 24.235 93.785 24.415C92.615 24.735 91.45 24.88 90.31 24.88Z" fill="#5E4C31"/>
<path id="Vector_9" d="M98.94 69.45C98.94 73.58 95.455 76.93 91.155 76.93C86.855 76.93 83.37 73.58 83.37 69.45C83.37 65.32 91.155 54.31 91.155 54.31C91.155 54.31 98.94 65.32 98.94 69.45Z" fill="#4AADFF"/>
<path id="Vector_10" d="M57.82 66.155C57.58 66.155 57.335 66.07 57.145 65.895C56.74 65.52 56.71 64.89 57.085 64.48C59.01 62.375 62.035 61.14 65.38 61.09C68.85 61.04 72.065 62.265 74.195 64.455C74.58 64.85 74.57 65.485 74.175 65.87C73.78 66.255 73.145 66.245 72.76 65.85C71.015 64.055 68.335 63.045 65.41 63.09C62.615 63.13 60.115 64.13 58.56 65.83C58.365 66.045 58.095 66.155 57.82 66.155Z" fill="#5E4C31"/>
</g>
</svg>
