<svg width="132" height="102" viewBox="0 0 132 102" fill="none" xmlns="http://www.w3.org/2000/svg">
<g id="&#225;&#132;&#134;&#225;&#133;&#174;&#225;&#132;&#131;&#225;&#133;&#179;&#225;&#132;&#144;&#225;&#133;&#179;&#225;&#132;&#133;&#225;&#133;&#162;&#225;&#132;&#143;&#225;&#133;&#181;&#225;&#134;&#188; (1)_&#225;&#132;&#131;&#225;&#133;&#162;&#225;&#132;&#140;&#225;&#133;&#181; 1 &#225;&#132;&#137;&#225;&#133;&#161;&#225;&#132;&#135;&#225;&#133;&#169;&#225;&#134;&#171; 4 1">
<path id="Vector" d="M49.685 60.425C58.305 60.425 65.2949 53.56 65.2949 45.09C65.2949 36.62 58.305 29.755 49.685 29.755C41.065 29.755 34.075 36.62 34.075 45.09C34.075 53.56 41.065 60.425 49.685 60.425Z" fill="white"/>
<path id="Vector_2" d="M54.01 36.585C49.24 36.585 45.36 40.4 45.36 45.09C45.36 49.78 49.24 53.595 54.01 53.595C58.78 53.595 62.66 49.78 62.66 45.09C62.66 40.4 58.78 36.585 54.01 36.585Z" fill="#5E4C31"/>
<path id="Vector_3" d="M80.91 60.425C89.53 60.425 96.52 53.56 96.52 45.09C96.52 36.62 89.53 29.755 80.91 29.755C72.29 29.755 65.3 36.62 65.3 45.09C65.3 53.56 72.29 60.425 80.91 60.425Z" fill="white"/>
<path id="Vector_4" d="M76.5851 36.585C71.8151 36.585 67.9351 40.4 67.9351 45.09C67.9351 49.78 71.8151 53.595 76.5851 53.595C81.3551 53.595 85.2351 49.78 85.2351 45.09C85.2351 40.4 81.3551 36.585 76.5851 36.585Z" fill="#5E4C31"/>
<path id="Vector_5" d="M25.71 85.65C34.505 85.65 41.635 78.645 41.635 70.005C41.635 61.365 34.505 54.36 25.71 54.36C16.915 54.36 9.78503 61.365 9.78503 70.005C9.78503 78.645 16.915 85.65 25.71 85.65Z" fill="#FBB03B"/>
<path id="Vector_6" d="M105.585 85.65C114.38 85.65 121.51 78.645 121.51 70.005C121.51 61.365 114.38 54.36 105.585 54.36C96.79 54.36 89.66 61.365 89.66 70.005C89.66 78.645 96.79 85.65 105.585 85.65Z" fill="#FBB03B"/>
<path id="Vector_7" d="M65.115 66.44C60.845 66.44 56.64 65.57 54.835 63.83C54.435 63.445 54.425 62.815 54.805 62.415C55.185 62.015 55.82 62.005 56.22 62.385C58.87 64.935 70.755 65.33 74.435 62.33C74.86 61.98 75.495 62.045 75.84 62.475C76.19 62.905 76.125 63.535 75.695 63.88C73.605 65.585 69.325 66.435 65.11 66.435L65.115 66.44Z" fill="#5E4C31"/>
<path id="Vector_8" d="M41.99 21.96C41.615 21.96 41.245 21.79 40.995 21.47C40.575 20.92 40.68 20.135 41.225 19.715C45.565 16.385 50.605 13.855 58.035 17.85C58.645 18.175 58.87 18.935 58.545 19.545C58.22 20.155 57.46 20.38 56.85 20.055C50.995 16.905 47.11 18.35 42.745 21.7C42.52 21.875 42.25 21.96 41.985 21.96H41.99Z" fill="#5E4C31"/>
<path id="Vector_9" d="M88.635 21.96C88.37 21.96 88.1 21.875 87.875 21.7C83.505 18.35 79.625 16.905 73.77 20.055C73.16 20.38 72.405 20.155 72.075 19.545C71.75 18.935 71.975 18.18 72.585 17.85C80.015 13.855 85.055 16.385 89.395 19.715C89.945 20.135 90.045 20.92 89.625 21.47C89.38 21.79 89.01 21.96 88.63 21.96H88.635Z" fill="#5E4C31"/>
</g>
</svg>
