<svg width="132" height="102" viewBox="0 0 132 102" fill="none" xmlns="http://www.w3.org/2000/svg">
<g id="&#225;&#132;&#134;&#225;&#133;&#174;&#225;&#132;&#131;&#225;&#133;&#179;&#225;&#132;&#144;&#225;&#133;&#179;&#225;&#132;&#133;&#225;&#133;&#162;&#225;&#132;&#143;&#225;&#133;&#181;&#225;&#134;&#188; (1)_&#225;&#132;&#131;&#225;&#133;&#162;&#225;&#132;&#140;&#225;&#133;&#181; 1 &#225;&#132;&#137;&#225;&#133;&#161;&#225;&#132;&#135;&#225;&#133;&#169;&#225;&#134;&#171; 8 1">
<path id="Vector" d="M51.0099 28.02C48.3349 31.56 41.955 36.1 36.02 35.88C34.78 38.08 34.075 40.605 34.075 43.295C34.075 51.765 41.065 58.63 49.685 58.63C58.305 58.63 65.2949 51.765 65.2949 43.295C65.2949 35.265 59.0099 28.68 51.0099 28.015V28.02Z" fill="white"/>
<path id="Vector_2" d="M80.21 27.98C71.915 28.34 65.3 35.06 65.3 43.3C65.3 51.54 72.29 58.635 80.91 58.635C89.53 58.635 96.52 51.77 96.52 43.3C96.52 40.455 95.73 37.795 94.355 35.515C88.75 35.85 82.905 31.545 80.21 27.985V27.98Z" fill="white"/>
<path id="Vector_3" d="M52.425 39.89C47.655 39.89 43.775 43.705 43.775 48.395C43.775 53.085 47.655 56.9 52.425 56.9C57.195 56.9 61.075 53.085 61.075 48.395C61.075 43.705 57.195 39.89 52.425 39.89Z" fill="#5E4C31"/>
<path id="Vector_4" d="M77.88 39.89C73.11 39.89 69.23 43.705 69.23 48.395C69.23 53.085 73.11 56.9 77.88 56.9C82.65 56.9 86.53 53.085 86.53 48.395C86.53 43.705 82.65 39.89 77.88 39.89Z" fill="#5E4C31"/>
<path id="Vector_5" d="M25.71 83.86C34.505 83.86 41.635 76.855 41.635 68.215C41.635 59.575 34.505 52.57 25.71 52.57C16.915 52.57 9.78503 59.575 9.78503 68.215C9.78503 76.855 16.915 83.86 25.71 83.86Z" fill="#FBB03B"/>
<path id="Vector_6" d="M105.585 83.86C114.38 83.86 121.51 76.855 121.51 68.215C121.51 59.575 114.38 52.57 105.585 52.57C96.79 52.57 89.66 59.575 89.66 68.215C89.66 76.855 96.79 83.86 105.585 83.86Z" fill="#FBB03B"/>
<path id="Vector_7" d="M63.5749 64.495C62.9549 64.495 62.4149 64.035 62.3349 63.405C62.2499 62.72 62.7299 62.095 63.4149 62.005L74.7299 60.56C75.4199 60.475 76.0399 60.955 76.1299 61.64C76.2199 62.325 75.7349 62.95 75.0499 63.04L63.7349 64.485C63.6799 64.49 63.6299 64.495 63.5749 64.495Z" fill="#5E4C31"/>
<path id="Vector_8" d="M95.82 36.41C86.54 36.41 78.09 29.74 76.155 24.785C75.905 24.14 76.22 23.415 76.865 23.165C77.51 22.915 78.235 23.23 78.485 23.875C80.2 28.27 88.475 34.5 97.03 33.865C97.72 33.81 98.315 34.33 98.37 35.02C98.42 35.71 97.905 36.31 97.215 36.36C96.75 36.395 96.285 36.41 95.825 36.41H95.82Z" fill="#5E4C31"/>
<path id="Vector_9" d="M35.46 36.41C34.995 36.41 34.535 36.395 34.07 36.36C33.38 36.31 32.865 35.71 32.915 35.02C32.965 34.33 33.56 33.81 34.255 33.865C42.815 34.485 51.085 28.265 52.8 23.875C53.05 23.23 53.775 22.915 54.42 23.165C55.065 23.415 55.38 24.14 55.13 24.785C53.195 29.735 44.74 36.41 35.465 36.41H35.46Z" fill="#5E4C31"/>
</g>
</svg>
