<svg width="132" height="102" viewBox="0 0 132 102" fill="none" xmlns="http://www.w3.org/2000/svg">
<g id="&#225;&#132;&#134;&#225;&#133;&#174;&#225;&#132;&#131;&#225;&#133;&#179;&#225;&#132;&#144;&#225;&#133;&#179;&#225;&#132;&#133;&#225;&#133;&#162;&#225;&#132;&#143;&#225;&#133;&#181;&#225;&#134;&#188; (1)_&#225;&#132;&#131;&#225;&#133;&#162;&#225;&#132;&#140;&#225;&#133;&#181; 1 &#225;&#132;&#137;&#225;&#133;&#161;&#225;&#132;&#135;&#225;&#133;&#169;&#225;&#134;&#171; 15 1">
<g id="Group">
<path id="Vector" d="M50.0401 53.805C58.6601 53.805 65.6501 46.94 65.6501 38.47C65.6501 30 58.6601 23.135 50.0401 23.135C41.4201 23.135 34.4301 30 34.4301 38.47C34.4301 46.94 41.4201 53.805 50.0401 53.805Z" fill="white"/>
<g id="Group_2">
<path id="Vector_2" d="M54.36 46.47C58.86 46.47 62.505 42.885 62.505 38.47C62.505 34.055 58.86 30.47 54.36 30.47C49.86 30.47 46.215 34.05 46.215 38.47C46.215 42.89 49.86 46.47 54.36 46.47Z" fill="#5E4C31"/>
<path id="Vector_3" d="M54.36 46.975C49.59 46.975 45.715 43.16 45.715 38.47C45.715 33.78 49.595 29.965 54.36 29.965C59.125 29.965 63.005 33.78 63.005 38.47C63.005 43.16 59.125 46.975 54.36 46.975ZM54.36 30.97C50.145 30.97 46.72 34.335 46.72 38.47C46.72 42.605 50.15 45.97 54.36 45.97C58.57 45.97 62 42.605 62 38.47C62 34.335 58.57 30.97 54.36 30.97Z" fill="#5E4C31"/>
</g>
<path id="Vector_4" d="M81.26 53.805C89.88 53.805 96.87 46.94 96.87 38.47C96.87 30 89.88 23.135 81.26 23.135C72.64 23.135 65.65 30 65.65 38.47C65.65 46.94 72.64 53.805 81.26 53.805Z" fill="white"/>
<g id="Group_3">
<path id="Vector_5" d="M76.94 46.47C81.44 46.47 85.085 42.885 85.085 38.47C85.085 34.055 81.44 30.47 76.94 30.47C72.44 30.47 68.795 34.05 68.795 38.47C68.795 42.89 72.44 46.47 76.94 46.47Z" fill="#5E4C31"/>
<path id="Vector_6" d="M76.94 46.975C72.17 46.975 68.295 43.16 68.295 38.47C68.295 33.78 72.175 29.965 76.94 29.965C81.705 29.965 85.585 33.78 85.585 38.47C85.585 43.16 81.705 46.975 76.94 46.975ZM76.94 30.97C72.725 30.97 69.3 34.335 69.3 38.47C69.3 42.605 72.73 45.97 76.94 45.97C81.15 45.97 84.58 42.605 84.58 38.47C84.58 34.335 81.15 30.97 76.94 30.97Z" fill="#5E4C31"/>
</g>
<path id="Vector_7" d="M26.065 79.03C34.86 79.03 41.99 72.025 41.99 63.385C41.99 54.745 34.86 47.74 26.065 47.74C17.27 47.74 10.14 54.745 10.14 63.385C10.14 72.025 17.27 79.03 26.065 79.03Z" fill="#FBB03B"/>
<path id="Vector_8" d="M105.935 79.03C114.73 79.03 121.86 72.025 121.86 63.385C121.86 54.745 114.73 47.74 105.935 47.74C97.14 47.74 90.01 54.745 90.01 63.385C90.01 72.025 97.14 79.03 105.935 79.03Z" fill="#FBB03B"/>
<path id="Vector_9" d="M37.9351 28.04C36.6751 28.04 35.3901 27.875 34.0951 27.52C33.4301 27.335 33.0401 26.645 33.2251 25.98C33.4101 25.315 34.0951 24.925 34.7651 25.11C41.8701 27.085 48.9251 21.835 50.4801 17.5C50.7101 16.85 51.4301 16.51 52.0801 16.745C52.7301 16.975 53.0701 17.695 52.8351 18.345C51.2151 22.875 45.0251 28.045 37.9401 28.045L37.9351 28.04Z" fill="#5E4C31"/>
<path id="Vector_10" d="M92.755 28.04C85.67 28.04 79.48 22.87 77.86 18.34C77.625 17.69 77.965 16.975 78.615 16.74C79.265 16.505 79.98 16.845 80.215 17.495C81.765 21.83 88.82 27.08 95.93 25.105C96.595 24.92 97.285 25.31 97.47 25.975C97.655 26.64 97.265 27.33 96.6 27.515C95.305 27.875 94.02 28.035 92.76 28.035L92.755 28.04Z" fill="#5E4C31"/>
<path id="Vector_11" d="M70.635 56.78C70.635 58.295 68.405 58.72 65.65 58.72C62.895 58.72 60.665 58.235 60.665 56.72C60.665 55.205 62.895 53.23 65.65 53.23C68.405 53.23 70.635 55.26 70.635 56.78Z" fill="#E5786B"/>
</g>
<path id="Vector_12" d="M107.25 34.94C106.7 34.94 106.25 34.49 106.25 33.94V19.5C106.25 18.95 106.7 18.5 107.25 18.5C107.8 18.5 108.25 18.95 108.25 19.5V33.94C108.25 34.49 107.8 34.94 107.25 34.94Z" fill="#407BFF"/>
<path id="Vector_13" d="M112.17 40.64C111.62 40.64 111.17 40.19 111.17 39.64V25C111.17 24.45 111.62 24 112.17 24C112.72 24 113.17 24.45 113.17 25V39.64C113.17 40.19 112.72 40.64 112.17 40.64Z" fill="#407BFF"/>
<path id="Vector_14" d="M117.315 33.14C116.765 33.14 116.315 32.69 116.315 32.14V22.355C116.315 21.805 116.765 21.355 117.315 21.355C117.865 21.355 118.315 21.805 118.315 22.355V32.14C118.315 32.69 117.865 33.14 117.315 33.14Z" fill="#407BFF"/>
</g>
</svg>
