<svg width="132" height="102" viewBox="0 0 132 102" fill="none" xmlns="http://www.w3.org/2000/svg">
<g id="&#225;&#132;&#134;&#225;&#133;&#174;&#225;&#132;&#131;&#225;&#133;&#179;&#225;&#132;&#144;&#225;&#133;&#179;&#225;&#132;&#133;&#225;&#133;&#162;&#225;&#132;&#143;&#225;&#133;&#181;&#225;&#134;&#188; (1)_&#225;&#132;&#131;&#225;&#133;&#162;&#225;&#132;&#140;&#225;&#133;&#181; 1 &#225;&#132;&#137;&#225;&#133;&#161;&#225;&#132;&#135;&#225;&#133;&#169;&#225;&#134;&#171; 7 1">
<path id="Vector" d="M49.685 60.05C58.305 60.05 65.2949 53.185 65.2949 44.715C65.2949 36.245 58.305 29.38 49.685 29.38C41.065 29.38 34.075 36.245 34.075 44.715C34.075 53.185 41.065 60.05 49.685 60.05Z" fill="white"/>
<path id="Vector_2" d="M80.91 60.05C89.53 60.05 96.52 53.185 96.52 44.715C96.52 36.245 89.53 29.38 80.91 29.38C72.29 29.38 65.3 36.245 65.3 44.715C65.3 53.185 72.29 60.05 80.91 60.05Z" fill="white"/>
<path id="Vector_3" d="M25.71 85.275C34.505 85.275 41.635 78.27 41.635 69.63C41.635 60.99 34.505 53.985 25.71 53.985C16.915 53.985 9.78503 60.99 9.78503 69.63C9.78503 78.27 16.915 85.275 25.71 85.275Z" fill="#FBB03B"/>
<path id="Vector_4" d="M105.585 85.275C114.38 85.275 121.51 78.27 121.51 69.63C121.51 60.99 114.38 53.985 105.585 53.985C96.79 53.985 89.66 60.99 89.66 69.63C89.66 78.27 96.79 85.275 105.585 85.275Z" fill="#FBB03B"/>
<path id="Vector_5" d="M75.915 61.475C74.535 59.635 71.905 59 69.89 58.74C68.49 58.56 67.07 58.465 65.645 58.46C64.22 58.465 62.8 58.56 61.4 58.74C59.385 59 56.76 59.635 55.375 61.475C54.48 62.67 54.2 63.93 54.645 65.725C55.99 71.18 59.505 76.935 65.07 77.505C65.25 77.525 65.445 77.535 65.64 77.545C65.84 77.535 66.03 77.525 66.21 77.505C71.775 76.935 75.29 71.18 76.635 65.725C77.075 63.93 76.8 62.67 75.905 61.475H75.915Z" fill="#E5786B"/>
<path id="Vector_6" d="M37.61 47.79C36.875 47.79 36.235 47.25 36.13 46.505C36.01 45.685 36.58 44.925 37.4 44.805L59.215 41.655C60.035 41.54 60.795 42.105 60.915 42.925C61.035 43.745 60.465 44.505 59.645 44.625L37.83 47.775C37.755 47.785 37.685 47.79 37.615 47.79H37.61Z" fill="#5E4C31"/>
<path id="Vector_7" d="M93.23 47.79C93.16 47.79 93.085 47.785 93.015 47.775L71.2 44.625C70.38 44.505 69.81 43.745 69.93 42.925C70.05 42.105 70.805 41.535 71.63 41.655L93.445 44.805C94.265 44.925 94.835 45.685 94.715 46.505C94.605 47.25 93.965 47.79 93.235 47.79H93.23Z" fill="#5E4C31"/>
<path id="Vector_8" d="M36.695 21.355C36.355 21.355 36.015 21.22 35.77 20.945C35.305 20.435 35.34 19.645 35.85 19.18C35.995 19.045 36.145 18.905 36.31 18.75C37.595 17.535 39.535 15.695 43.17 14.655C47.815 13.325 50.805 14.045 52.895 14.82C53.54 15.06 53.87 15.78 53.63 16.425C53.39 17.075 52.67 17.4 52.025 17.16C50.295 16.52 47.805 15.925 43.86 17.055C40.81 17.925 39.205 19.45 38.03 20.565C37.855 20.73 37.69 20.885 37.535 21.03C37.295 21.25 36.995 21.355 36.695 21.355Z" fill="#5E4C31"/>
<path id="Vector_9" d="M92.275 21.355C91.975 21.355 91.675 21.245 91.435 21.03C91.28 20.885 91.115 20.73 90.94 20.57C89.765 19.46 88.16 17.935 85.11 17.06C81.16 15.93 78.675 16.525 76.945 17.165C76.3 17.405 75.58 17.075 75.34 16.43C75.1 15.785 75.43 15.065 76.075 14.825C78.16 14.05 81.15 13.33 85.8 14.66C89.44 15.7 91.375 17.54 92.66 18.76C92.82 18.915 92.97 19.055 93.12 19.19C93.63 19.655 93.665 20.445 93.2 20.955C92.955 21.225 92.615 21.36 92.275 21.36V21.355Z" fill="#5E4C31"/>
</g>
</svg>
