<svg width="160" height="160" viewBox="0 0 160 160" fill="none" xmlns="http://www.w3.org/2000/svg">
<g clip-path="url(#clip0_3788_58637)">
<path d="M81.6806 14.7124C81.6578 14.1951 81.5551 13.6702 81.3554 13.1871V3.73686C81.3554 2.76121 80.9313 1.73612 80.241 1.04765C79.8967 0.676789 79.4878 0.414334 79.0162 0.260285C78.5635 0.022554 78.0748 -0.087753 77.5499 -0.0668327C76.5666 -0.0230902 75.5453 0.300223 74.8606 1.04765C74.1779 1.79127 73.7462 2.70606 73.7462 3.73686V11.0323C68.0216 11.369 62.3142 12.3998 56.8635 14.138C50.3934 16.2015 44.1782 19.2046 38.6058 23.0919C33.0866 26.9432 28.0962 31.5285 23.9616 36.8442C21.8068 39.6133 19.8174 42.485 18.1077 45.5508C16.4074 48.5976 14.9677 51.7946 13.7563 55.0658C11.3542 61.5491 10.0686 68.47 9.84798 75.3755C9.73386 78.9301 9.90503 82.4371 10.4547 85.9536C10.9168 88.9186 11.7745 91.7314 12.9518 94.4872C14.8688 98.9717 18.043 102.901 22.1605 105.545C25.7151 107.827 30.0722 109.01 34.2924 108.867C38.4422 108.726 42.6472 107.45 46.0591 105.054C47.7841 103.842 49.3683 102.464 50.6692 100.799C51.4432 99.8086 52.1811 98.812 52.7897 97.7108C53.4021 96.6039 53.9042 95.4286 54.3416 94.2419C54.6802 93.3176 54.9464 92.3685 55.1442 91.4062C55.3515 90.4001 55.2926 89.3826 54.76 88.4755C54.2979 87.6862 53.3945 86.9331 52.4873 86.7277C51.5136 86.5051 50.42 86.5546 49.5566 87.1118C48.754 87.6291 48.0066 88.4184 47.8088 89.3845C47.5863 90.4705 47.2744 91.5374 46.8731 92.5701C46.3596 93.7017 45.7339 94.7782 45.0017 95.7823C44.2485 96.7009 43.406 97.5396 42.4874 98.2928C41.4909 99.0174 40.4239 99.6393 39.3037 100.151C38.1056 100.617 36.8599 100.959 35.5913 101.166C34.3342 101.298 33.0676 101.3 31.8105 101.17C30.5895 100.969 29.3932 100.642 28.2388 100.195C27.1376 99.6906 26.0916 99.0763 25.1122 98.3651C24.0776 97.5206 23.1343 96.5697 22.2898 95.5351C21.2781 94.1639 20.4317 92.6785 19.7338 91.1228C18.7486 88.6771 18.1134 86.1058 17.733 83.4983C17.3013 79.8563 17.3317 76.1553 17.6189 72.5057C17.6893 71.6042 17.7825 70.7046 17.8928 69.807C18.4652 65.7503 19.4371 61.7526 20.8064 57.89C21.1354 56.9619 21.4892 56.0452 21.8619 55.1342C23.4633 51.4085 25.4241 47.8406 27.7177 44.4972C28.3016 43.6452 28.9102 42.8122 29.5359 41.9906C32.052 38.7917 34.8705 35.8324 37.9496 33.1679C38.7294 32.4927 39.5301 31.8404 40.3422 31.2033C43.6666 28.6815 47.2268 26.4772 50.9735 24.64C51.8825 24.195 52.803 23.7709 53.733 23.3677C57.7535 21.7017 61.9376 20.4332 66.2091 19.5982C67.2989 19.3852 68.3963 19.2027 69.4955 19.0448C72.276 18.693 75.0774 18.5161 77.8808 18.5142C78.8564 18.5142 79.8796 18.0901 80.57 17.3997C81.2299 16.7398 81.7263 15.6576 81.6845 14.7105L81.6806 14.7124Z" fill="white"/>
<path d="M149.794 70.1303C149.373 66.5586 148.732 63.025 147.747 59.5636C145.903 53.0821 143.031 46.8327 139.28 41.2317C135.564 35.6821 131.059 30.6499 125.865 26.4468C123.122 24.2273 120.25 22.1752 117.207 20.3875C114.13 18.5789 110.905 17.0574 107.594 15.7299C101.093 13.1225 94.1895 11.6295 87.2097 11.0989C86.9016 11.0761 86.5935 11.0571 86.2854 11.038V3.73686C86.2854 2.76121 85.8613 1.73612 85.1709 1.04765C84.8267 0.676789 84.4178 0.414334 83.9461 0.260285C83.4935 0.022554 83.0047 -0.087753 82.4798 -0.0668327C81.4965 -0.0230902 80.4753 0.300223 79.7906 1.04765C79.1078 1.79127 78.6761 2.70606 78.6761 3.73686V13.1909C78.4555 13.6816 78.33 14.2141 78.3509 14.7105C78.3946 15.6938 78.718 16.715 79.4654 17.3997C80.209 18.0825 81.1238 18.5123 82.1546 18.5142C84.9123 18.5161 87.6661 18.6892 90.4029 19.0277C94.7201 19.6382 98.9745 20.669 103.084 22.1258C104.085 22.4795 105.074 22.8599 106.055 23.2631C109.933 24.9272 113.647 26.9622 117.13 29.3471C117.97 29.9234 118.796 30.5205 119.608 31.1348C122.848 33.67 125.849 36.5075 128.546 39.6171C129.227 40.4006 129.883 41.2051 130.524 42.0229C132.943 45.2104 135.064 48.6204 136.831 52.2111C137.264 53.0935 137.677 53.9874 138.069 54.8889C139.628 58.6545 140.819 62.5723 141.602 66.5738C141.796 67.5647 141.962 68.5593 142.108 69.5578C142.588 73.3292 142.761 77.1728 142.529 80.967C142.477 81.8171 142.399 82.6653 142.299 83.5097C141.918 86.1134 141.283 88.6808 140.3 91.1228C139.602 92.6785 138.755 94.1639 137.744 95.5351C136.899 96.5697 135.956 97.5206 134.921 98.365C133.942 99.0763 132.896 99.6906 131.795 100.195C130.642 100.643 129.444 100.971 128.223 101.17C126.966 101.301 125.699 101.298 124.442 101.166C123.172 100.957 121.928 100.617 120.73 100.151C119.61 99.6393 118.543 99.0174 117.546 98.2928C116.627 97.5396 115.785 96.7009 115.032 95.7823C114.3 94.7782 113.674 93.7017 113.16 92.5701C112.759 91.5374 112.447 90.4705 112.225 89.3845C112.04 88.485 111.249 87.5626 110.477 87.1118C109.661 86.6345 108.461 86.4329 107.546 86.7277C106.626 87.0262 105.737 87.5968 105.273 88.4755C104.777 89.415 104.674 90.3621 104.889 91.4062C105.777 95.7291 108.035 99.8637 111.264 102.884C114.281 105.704 118.141 107.76 122.225 108.471C124.299 108.833 126.391 109.002 128.487 108.749C129.693 108.605 130.889 108.433 132.063 108.112C133.255 107.787 134.398 107.319 135.526 106.813C139.733 104.93 143.196 101.463 145.539 97.5377C148.645 92.3324 149.908 86.2066 150.18 80.2119C150.332 76.8552 150.185 73.4623 149.792 70.1265L149.794 70.1303Z" fill="white"/>
<path d="M81.4893 15.853C81.4665 15.3357 81.3638 14.8108 81.1641 14.3277V4.87748C81.1641 3.90184 80.74 2.87674 80.0497 2.18827C79.7054 1.81741 79.2965 1.55496 78.8249 1.40091C78.3722 1.16318 77.8835 1.05287 77.3585 1.07379C76.3753 1.11753 75.354 1.44085 74.6693 2.18827C73.9866 2.93189 73.5549 3.84668 73.5549 4.87748V12.173C67.8303 12.5096 62.1229 13.5404 56.6722 15.2787C50.2021 17.3422 43.9869 20.3452 38.4145 24.2326C32.8953 28.0838 27.9049 32.6691 23.7703 37.9848C21.6155 40.7539 19.6261 43.6257 17.9164 46.6914C16.2161 49.7382 14.7764 52.9352 13.565 56.2064C11.1667 62.6898 9.88109 69.6106 9.66048 76.5162C9.54636 80.0707 9.71753 83.5777 10.2672 87.0942C10.7293 90.0592 11.587 92.872 12.7643 95.6278C14.6813 100.112 17.8555 104.042 21.973 106.685C25.5276 108.967 29.8847 110.15 34.1049 110.008C38.2547 109.867 42.4597 108.591 45.8716 106.194C47.5966 104.983 49.1808 103.604 50.4817 101.94C51.2557 100.949 51.9936 99.9526 52.6022 98.8514C53.2146 97.7446 53.7167 96.5692 54.1541 95.3825C54.4927 94.4582 54.7589 93.5092 54.9567 92.5468C55.164 91.5408 55.1051 90.5233 54.5725 89.6161C54.1104 88.8268 53.207 88.0737 52.2998 87.8683C51.3261 87.6458 50.2325 87.6952 49.3691 88.2525C48.5665 88.7698 47.8191 89.559 47.6213 90.5252C47.3988 91.6111 47.0869 92.6781 46.6856 93.7108C46.1721 94.8424 45.5464 95.9188 44.8142 96.923C44.061 97.8416 43.2185 98.6803 42.2999 99.4334C41.3034 100.158 40.2364 100.78 39.1162 101.292C37.9181 101.757 36.6724 102.1 35.4038 102.307C34.1467 102.438 32.8801 102.44 31.623 102.311C30.402 102.109 29.2057 101.782 28.0513 101.335C26.9501 100.831 25.9041 100.217 24.9247 99.5057C23.8901 98.6613 22.9468 97.7103 22.1023 96.6757C21.0906 95.3045 20.2442 93.8192 19.5463 92.2635C18.5611 89.8177 17.9259 87.2464 17.5455 84.639C17.1138 80.9969 17.1442 77.2959 17.4314 73.6463C17.5018 72.7448 17.595 71.8452 17.7053 70.9476C18.2777 66.8909 19.2496 62.8933 20.6189 59.0306C20.9479 58.1025 21.3017 57.1858 21.6744 56.2748C23.2758 52.5491 25.2366 48.9813 27.5302 45.6378C28.1141 44.7858 28.7227 43.9528 29.3484 43.1312C31.8645 39.9323 34.683 36.973 37.7621 34.3085C38.5419 33.6334 39.3426 32.981 40.1547 32.3439C43.4791 29.8221 47.0393 27.6178 50.786 25.7807C51.695 25.3356 52.6155 24.9115 53.5455 24.5083C57.566 22.8423 61.7501 21.5738 66.0216 20.7389C67.1114 20.5259 68.2088 20.3433 69.308 20.1854C72.0885 19.8336 74.8899 19.6567 77.6933 19.6548C78.6689 19.6548 79.6921 19.2307 80.3825 18.5403C81.0424 17.8804 81.5388 16.7982 81.4969 15.8511L81.4893 15.853Z" fill="url(#paint0_linear_3788_58637)"/>
<path d="M149.603 71.2709C149.183 67.6992 148.542 64.1656 147.557 60.7042C145.712 54.2227 142.84 47.9733 139.09 42.3724C135.374 36.8228 130.868 31.7905 125.674 27.5874C122.932 25.368 120.06 23.3159 117.017 21.5281C113.94 19.7195 110.714 18.198 107.403 16.8705C100.903 14.2631 93.999 12.7701 87.0193 12.2395C86.7112 12.2167 86.4031 12.1977 86.095 12.1787V4.87748C86.095 3.90184 85.6709 2.87674 84.9805 2.18827C84.6362 1.81741 84.2274 1.55496 83.7557 1.40091C83.3031 1.16318 82.8143 1.05287 82.2894 1.07379C81.3061 1.11753 80.2848 1.44085 79.6002 2.18827C78.9174 2.93189 78.4857 3.84668 78.4857 4.87748V14.3316C78.2651 14.8222 78.1395 15.3547 78.1605 15.8511C78.2042 16.8344 78.5275 17.8557 79.2749 18.5403C80.0186 19.2231 80.9334 19.6529 81.9642 19.6548C84.7218 19.6567 87.4757 19.8298 90.2125 20.1683C94.5296 20.7788 98.7841 21.8096 102.894 23.2664C103.894 23.6202 104.883 24.0005 105.865 24.4037C109.742 26.0678 113.457 28.1028 116.939 30.4877C117.78 31.064 118.605 31.6612 119.417 32.2755C122.658 34.8106 125.659 37.6482 128.356 40.7577C129.037 41.5412 129.693 42.3457 130.334 43.1635C132.753 46.351 134.873 49.761 136.64 53.3517C137.074 54.2342 137.487 55.128 137.878 56.0295C139.438 59.7952 140.628 63.713 141.412 67.7144C141.606 68.7053 141.771 69.7 141.918 70.6984C142.397 74.4698 142.57 78.3134 142.338 82.1076C142.287 82.9577 142.209 83.8059 142.108 84.6504C141.728 87.254 141.093 89.8215 140.109 92.2634C139.411 93.8192 138.565 95.3045 137.553 96.6757C136.709 97.7103 135.765 98.6613 134.731 99.5057C133.751 100.217 132.705 100.831 131.604 101.335C130.452 101.784 129.254 102.111 128.033 102.311C126.775 102.442 125.509 102.438 124.252 102.307C122.981 102.098 121.737 101.757 120.539 101.292C119.419 100.78 118.352 100.158 117.356 99.4334C116.437 98.6803 115.594 97.8416 114.841 96.923C114.109 95.9188 113.483 94.8423 112.97 93.7108C112.569 92.678 112.257 91.6111 112.034 90.5252C111.85 89.6256 111.059 88.7032 110.286 88.2525C109.471 87.7751 108.27 87.5735 107.356 87.8683C106.435 88.1669 105.547 88.7374 105.083 89.6161C104.587 90.5556 104.484 91.5027 104.699 92.5468C105.587 96.8697 107.844 101.004 111.074 104.024C114.09 106.845 117.951 108.901 122.034 109.612C124.109 109.973 126.201 110.143 128.297 109.89C129.503 109.745 130.699 109.574 131.872 109.253C133.065 108.927 134.208 108.46 135.336 107.954C139.542 106.071 143.006 102.604 145.349 98.6784C148.455 93.473 149.717 87.3472 149.989 81.3526C150.141 77.9958 149.995 74.6029 149.601 71.2671L149.603 71.2709Z" fill="url(#paint1_linear_3788_58637)"/>
<path d="M81.451 160.001C95.6371 160.001 107.137 157.868 107.137 155.238C107.137 152.608 95.6371 150.476 81.451 150.476C67.2648 150.476 55.7646 152.608 55.7646 155.238C55.7646 157.868 67.2648 160.001 81.451 160.001Z" fill="#403F41"/>
<path d="M79.8942 137.456C109.704 137.456 133.87 113.29 133.87 83.4797C133.87 53.6694 109.704 29.5034 79.8942 29.5034C50.084 29.5034 25.918 53.6694 25.918 83.4797C25.918 113.29 50.084 137.456 79.8942 137.456Z" fill="url(#paint2_linear_3788_58637)"/>
<mask id="mask0_3788_58637" style="mask-type:alpha" maskUnits="userSpaceOnUse" x="25" y="29" width="109" height="109">
<path d="M79.7663 137.553C109.577 137.553 133.743 113.387 133.743 83.5764C133.743 53.7661 109.577 29.6001 79.7663 29.6001C49.956 29.6001 25.79 53.7661 25.79 83.5764C25.79 113.387 49.956 137.553 79.7663 137.553Z" fill="url(#paint3_linear_3788_58637)"/>
</mask>
<g mask="url(#mask0_3788_58637)">
<path d="M124.265 128.587C124.067 127.426 123.732 126.297 123.278 125.213C122.724 123.893 122.122 122.634 121.285 121.47C120.469 120.336 119.583 119.254 118.54 118.322C116.418 116.424 113.928 114.994 111.188 114.195C109.786 113.786 108.307 113.568 106.85 113.49C105.756 113.431 104.704 113.535 103.624 113.726C101.789 114.051 100.028 114.802 98.3447 115.574C96.6159 116.367 94.9556 117.305 93.3391 118.301C91.6217 119.361 89.9519 120.492 88.3125 121.668C86.5647 122.921 84.853 124.228 83.1623 125.559C82.1106 126.386 81.0722 127.229 80.0452 128.084C79.623 127.733 79.1988 127.383 78.7709 127.037C77.2247 125.781 75.6538 124.555 74.0639 123.355C72.4796 122.16 70.8707 121.002 69.2218 119.897C67.5691 118.788 65.8783 117.731 64.1305 116.778C62.3428 115.804 60.4771 114.924 58.5467 114.273C56.8103 113.688 54.9674 113.383 53.136 113.494C50.2318 113.667 47.4152 114.454 44.8763 115.892C43.6572 116.582 42.5123 117.444 41.4758 118.383C40.4335 119.326 39.5378 120.424 38.7276 121.571C37.9003 122.742 37.305 124.007 36.7573 125.329C36.3084 126.415 35.9851 127.554 35.7987 128.714C35.561 130.192 35.4165 131.671 35.5249 133.166C35.6314 134.619 35.8596 136.087 36.2951 137.481C37.1434 140.192 38.5811 142.658 40.5077 144.743C41.4605 145.774 42.5655 146.669 43.718 147.466C44.8934 148.28 46.1714 148.874 47.4951 149.406C48.5868 149.845 49.7298 150.155 50.8937 150.33C52.1508 150.519 53.4441 150.697 54.7183 150.589C56.5821 150.431 58.3565 149.975 60.0948 149.298C62.1165 148.51 64.0754 147.578 65.9753 146.534C67.7593 145.553 69.4975 144.49 71.2035 143.381C72.8106 142.337 74.3891 141.249 75.9448 140.133C77.1905 139.239 78.421 138.324 79.6382 137.39C79.7732 137.288 79.9063 137.183 80.0395 137.08C80.7527 137.63 81.4677 138.174 82.1904 138.71C83.5997 139.758 85.028 140.781 86.4753 141.776C88.1318 142.913 89.8168 144.012 91.538 145.051C93.2478 146.084 94.9956 147.061 96.7985 147.921C98.6148 148.786 100.496 149.602 102.449 150.106C103.425 150.357 104.434 150.517 105.439 150.595C106.719 150.694 108.027 150.513 109.286 150.315C110.448 150.133 111.587 149.815 112.677 149.37C113.999 148.828 115.269 148.235 116.443 147.411C118.757 145.789 120.731 143.744 122.141 141.281C123.588 138.75 124.381 135.937 124.565 133.035C124.661 131.544 124.512 130.057 124.261 128.587H124.265ZM70.6995 135.717C68.1529 137.48 65.5436 139.165 62.8335 140.667C61.4565 141.43 60.0511 142.143 58.6057 142.769C57.3638 143.269 56.08 143.699 54.7601 143.925C54.0013 143.988 53.2387 143.961 52.4817 143.881C51.4376 143.71 50.4144 143.432 49.4274 143.05C48.4879 142.62 47.594 142.097 46.7591 141.489C45.9717 140.842 45.2509 140.119 44.6043 139.332C44.0014 138.503 43.4841 137.617 43.0562 136.685C42.6777 135.705 42.4001 134.691 42.227 133.657C42.1167 132.588 42.1148 131.51 42.227 130.439C42.3982 129.402 42.6758 128.387 43.0543 127.407C43.4841 126.468 44.0071 125.574 44.6157 124.739C45.2623 123.952 45.985 123.231 46.7743 122.584C47.6035 121.981 48.4898 121.464 49.4217 121.036C50.4125 120.652 51.4395 120.372 52.4874 120.201C53.233 120.121 53.9899 120.089 54.7373 120.152C55.8119 120.344 56.8579 120.688 57.8735 121.095C59.7449 121.911 61.5345 122.91 63.2728 123.976C65.2298 125.178 67.1278 126.477 68.9859 127.826C69.8532 128.455 70.709 129.1 71.5591 129.752C72.7421 130.671 73.9117 131.609 75.0661 132.563C73.6321 133.642 72.1772 134.693 70.7014 135.715L70.6995 135.717ZM117.858 133.657C117.685 134.691 117.407 135.705 117.028 136.685C116.602 137.617 116.083 138.503 115.482 139.332C114.836 140.119 114.115 140.842 113.327 141.489C112.493 142.097 111.599 142.62 110.659 143.05C109.672 143.432 108.649 143.71 107.605 143.881C106.848 143.961 106.085 143.99 105.326 143.925C103.997 143.695 102.704 143.261 101.454 142.757C98.7517 141.588 96.1804 140.117 93.689 138.558C91.2014 137.002 88.7841 135.334 86.4182 133.602C85.9504 133.259 85.4844 132.913 85.0223 132.565C85.4901 132.177 85.9618 131.791 86.4335 131.411C87.1048 130.869 87.7819 130.334 88.4627 129.806C90.123 128.531 91.81 127.293 93.5368 126.112C95.414 124.829 97.3386 123.604 99.3375 122.516C100.281 122.002 101.243 121.523 102.226 121.093C103.236 120.69 104.278 120.348 105.349 120.156C106.097 120.095 106.852 120.127 107.599 120.205C108.647 120.376 109.674 120.656 110.665 121.04C111.597 121.466 112.483 121.985 113.312 122.588C114.1 123.235 114.822 123.956 115.469 124.743C116.078 125.578 116.601 126.472 117.03 127.411C117.409 128.391 117.686 129.406 117.858 130.443C117.968 131.512 117.968 132.59 117.858 133.661V133.657Z" fill="#A17226"/>
</g>
<path d="M124.338 124.942C124.14 123.782 123.806 122.652 123.351 121.568C122.798 120.248 122.195 118.989 121.358 117.825C120.542 116.692 119.656 115.61 118.614 114.678C116.491 112.78 114.002 111.35 111.261 110.551C109.859 110.142 108.38 109.923 106.923 109.845C105.829 109.786 104.778 109.891 103.697 110.081C101.862 110.406 100.101 111.157 98.418 111.93C96.6892 112.723 95.0289 113.66 93.4123 114.657C91.6949 115.716 90.0251 116.848 88.3857 118.023C86.6379 119.276 84.9263 120.583 83.2355 121.914C82.1838 122.742 81.1454 123.584 80.1184 124.44C79.6962 124.088 79.2721 123.738 78.8442 123.392C77.298 122.137 75.7271 120.91 74.1371 119.71C72.5529 118.516 70.9439 117.357 69.295 116.253C67.6423 115.144 65.9516 114.086 64.2038 113.133C62.416 112.16 60.5503 111.279 58.62 110.629C56.8836 110.043 55.0407 109.739 53.2092 109.849C50.3051 110.022 47.4885 110.809 44.9495 112.247C43.7304 112.938 42.5855 113.799 41.549 114.739C40.5068 115.682 39.611 116.779 38.8008 117.926C37.9735 119.098 37.3783 120.362 36.8305 121.684C36.3817 122.77 36.0584 123.909 35.872 125.069C35.6343 126.547 35.4897 128.027 35.5981 129.522C35.7046 130.975 35.9329 132.443 36.3684 133.837C37.2166 136.547 38.6544 139.014 40.581 141.098C41.5338 142.129 42.6388 143.025 43.7913 143.822C44.9666 144.636 46.2447 145.229 47.5683 145.762C48.66 146.201 49.803 146.511 50.9669 146.686C52.2241 146.874 53.5173 147.053 54.7915 146.944C56.6553 146.787 58.4298 146.33 60.1681 145.653C62.1897 144.866 64.1486 143.934 66.0486 142.89C67.8325 141.908 69.5708 140.845 71.2767 139.736C72.8838 138.692 74.4623 137.605 76.018 136.488C77.2637 135.594 78.4942 134.679 79.7114 133.746C79.8464 133.643 79.9796 133.538 80.1127 133.436C80.8259 133.985 81.541 134.529 82.2637 135.066C83.673 136.113 85.1012 137.137 86.5485 138.131C88.205 139.269 89.8901 140.368 91.6113 141.406C93.321 142.439 95.0688 143.417 96.8718 144.276C98.688 145.142 100.569 145.957 102.522 146.461C103.498 146.712 104.508 146.872 105.512 146.95C106.792 147.049 108.1 146.868 109.359 146.671C110.521 146.488 111.66 146.17 112.75 145.725C114.072 145.183 115.342 144.59 116.516 143.766C118.83 142.144 120.805 140.1 122.214 137.637C123.661 135.105 124.454 132.293 124.639 129.39C124.734 127.899 124.585 126.412 124.334 124.942H124.338ZM70.7727 132.072C68.2262 133.835 65.6168 135.52 62.9067 137.023C61.5298 137.785 60.1243 138.498 58.6789 139.124C57.437 139.624 56.1533 140.054 54.8334 140.28C54.0745 140.343 53.3119 140.317 52.555 140.237C51.5109 140.066 50.4877 139.788 49.5006 139.406C48.5611 138.976 47.6672 138.453 46.8323 137.844C46.045 137.198 45.3242 136.475 44.6775 135.687C44.0746 134.858 43.5573 133.972 43.1294 133.04C42.751 132.061 42.4733 131.047 42.3002 130.012C42.1899 128.944 42.188 127.865 42.3002 126.794C42.4714 125.758 42.7491 124.742 43.1275 123.763C43.5573 122.823 44.0804 121.93 44.6889 121.095C45.3356 120.307 46.0583 119.586 46.8475 118.94C47.6767 118.337 48.563 117.82 49.4949 117.392C50.4858 117.008 51.5128 116.728 52.5607 116.557C53.3062 116.477 54.0631 116.445 54.8106 116.507C55.8851 116.699 56.9311 117.044 57.9467 117.451C59.8181 118.267 61.6078 119.265 63.346 120.332C65.303 121.534 67.2011 122.833 69.0592 124.181C69.9264 124.811 70.7823 125.456 71.6324 126.108C72.8153 127.026 73.985 127.964 75.1394 128.919C73.7054 129.997 72.2505 131.049 70.7746 132.07L70.7727 132.072ZM117.931 130.012C117.758 131.047 117.48 132.061 117.102 133.04C116.676 133.972 116.156 134.858 115.555 135.687C114.909 136.475 114.188 137.198 113.401 137.844C112.566 138.453 111.672 138.976 110.732 139.406C109.745 139.788 108.722 140.066 107.678 140.237C106.921 140.317 106.158 140.345 105.4 140.28C104.07 140.05 102.777 139.617 101.527 139.113C98.825 137.943 96.2537 136.473 93.7622 134.913C91.2746 133.358 88.8574 131.69 86.4915 129.957C86.0236 129.615 85.5577 129.269 85.0955 128.921C85.5634 128.533 86.035 128.147 86.5067 127.766C87.1781 127.224 87.8551 126.69 88.536 126.161C90.1963 124.887 91.8832 123.649 93.6101 122.468C95.4872 121.184 97.4119 119.959 99.4107 118.871C100.354 118.358 101.316 117.879 102.3 117.449C103.31 117.046 104.352 116.703 105.422 116.511C106.17 116.45 106.925 116.483 107.672 116.561C108.72 116.732 109.747 117.011 110.738 117.396C111.67 117.822 112.556 118.341 113.385 118.944C114.173 119.59 114.896 120.311 115.542 121.098C116.151 121.933 116.674 122.827 117.104 123.767C117.482 124.746 117.76 125.762 117.931 126.798C118.041 127.867 118.041 128.945 117.931 130.016V130.012Z" fill="white"/>
<path d="M124.338 125.892C124.14 124.732 123.806 123.602 123.351 122.518C122.798 121.198 122.195 119.939 121.358 118.776C120.542 117.642 119.656 116.56 118.614 115.628C116.491 113.73 114.002 112.3 111.261 111.501C109.859 111.092 108.38 110.873 106.923 110.795C105.829 110.736 104.778 110.841 103.697 111.031C101.862 111.356 100.101 112.108 98.418 112.88C96.6892 113.673 95.0289 114.61 93.4123 115.607C91.6949 116.666 90.0251 117.798 88.3857 118.973C86.6379 120.227 84.9263 121.533 83.2355 122.864C82.1838 123.692 81.1454 124.534 80.1184 125.39C79.6962 125.038 79.2721 124.688 78.8442 124.342C77.298 123.087 75.7271 121.86 74.1371 120.66C72.5529 119.466 70.9439 118.308 69.295 117.203C67.6423 116.094 65.9516 115.036 64.2038 114.084C62.416 113.11 60.5503 112.229 58.62 111.579C56.8836 110.993 55.0407 110.689 53.2092 110.799C50.3051 110.972 47.4885 111.76 44.9495 113.197C43.7304 113.888 42.5855 114.749 41.549 115.689C40.5068 116.632 39.611 117.73 38.8008 118.876C37.9735 120.048 37.3783 121.313 36.8305 122.634C36.3817 123.72 36.0584 124.86 35.872 126.02C35.6343 127.497 35.4897 128.977 35.5981 130.472C35.7046 131.925 35.9329 133.393 36.3684 134.787C37.2166 137.497 38.6544 139.964 40.581 142.048C41.5338 143.079 42.6388 143.975 43.7913 144.772C44.9666 145.586 46.2447 146.179 47.5683 146.712C48.66 147.151 49.803 147.461 50.9669 147.636C52.2241 147.824 53.5173 148.003 54.7915 147.895C56.6553 147.737 58.4298 147.28 60.1681 146.603C62.1897 145.816 64.1486 144.884 66.0486 143.84C67.8325 142.859 69.5708 141.795 71.2767 140.687C72.8838 139.643 74.4623 138.555 76.018 137.438C77.2637 136.544 78.4942 135.63 79.7114 134.696C79.8464 134.593 79.9796 134.489 80.1127 134.386C80.8259 134.935 81.541 135.479 82.2637 136.016C83.673 137.064 85.1012 138.087 86.5485 139.082C88.205 140.219 89.8901 141.318 91.6113 142.357C93.321 143.389 95.0688 144.367 96.8718 145.226C98.688 146.092 100.569 146.908 102.522 147.412C103.498 147.663 104.508 147.822 105.512 147.9C106.792 147.999 108.1 147.819 109.359 147.621C110.521 147.438 111.66 147.121 112.75 146.676C114.072 146.134 115.342 145.54 116.516 144.717C118.83 143.094 120.805 141.05 122.214 138.587C123.661 136.056 124.454 133.243 124.639 130.341C124.734 128.85 124.585 127.362 124.334 125.892H124.338ZM70.7727 133.022C68.2262 134.785 65.6168 136.47 62.9067 137.973C61.5298 138.735 60.1243 139.449 58.6789 140.074C57.437 140.574 56.1533 141.004 54.8334 141.231C54.0745 141.293 53.3119 141.267 52.555 141.187C51.5109 141.016 50.4877 140.738 49.5006 140.356C48.5611 139.926 47.6672 139.403 46.8323 138.794C46.045 138.148 45.3242 137.425 44.6775 136.638C44.0746 135.808 43.5573 134.922 43.1294 133.99C42.751 133.011 42.4733 131.997 42.3002 130.963C42.1899 129.894 42.188 128.815 42.3002 127.745C42.4714 126.708 42.7491 125.693 43.1275 124.713C43.5573 123.774 44.0804 122.88 44.6889 122.045C45.3356 121.257 46.0583 120.537 46.8475 119.89C47.6767 119.287 48.563 118.77 49.4949 118.342C50.4858 117.958 51.5128 117.678 52.5607 117.507C53.3062 117.427 54.0631 117.395 54.8106 117.458C55.8851 117.65 56.9311 117.994 57.9467 118.401C59.8181 119.217 61.6078 120.215 63.346 121.282C65.303 122.484 67.2011 123.783 69.0592 125.131C69.9264 125.761 70.7823 126.406 71.6324 127.058C72.8153 127.977 73.985 128.914 75.1394 129.869C73.7054 130.947 72.2505 131.999 70.7746 133.02L70.7727 133.022ZM117.931 130.963C117.758 131.997 117.48 133.011 117.102 133.99C116.676 134.922 116.156 135.808 115.555 136.638C114.909 137.425 114.188 138.148 113.401 138.794C112.566 139.403 111.672 139.926 110.732 140.356C109.745 140.738 108.722 141.016 107.678 141.187C106.921 141.267 106.158 141.295 105.4 141.231C104.07 141 102.777 140.567 101.527 140.063C98.825 138.893 96.2537 137.423 93.7622 135.864C91.2746 134.308 88.8574 132.64 86.4915 130.907C86.0236 130.565 85.5577 130.219 85.0955 129.871C85.5634 129.483 86.035 129.097 86.5067 128.716C87.1781 128.174 87.8551 127.64 88.536 127.111C90.1963 125.837 91.8832 124.599 93.6101 123.418C95.4872 122.134 97.4119 120.909 99.4107 119.822C100.354 119.308 101.316 118.829 102.3 118.399C103.31 117.996 104.352 117.653 105.422 117.461C106.17 117.4 106.925 117.433 107.672 117.511C108.72 117.682 109.747 117.962 110.738 118.346C111.67 118.772 112.556 119.291 113.385 119.894C114.173 120.54 114.896 121.261 115.542 122.049C116.151 122.884 116.674 123.777 117.104 124.717C117.482 125.696 117.76 126.712 117.931 127.748C118.041 128.817 118.041 129.896 117.931 130.966V130.963Z" fill="url(#paint4_linear_3788_58637)"/>
<g clip-path="url(#clip1_3788_58637)">
<path d="M72.0004 77.7428C72.2182 78.7628 72.9825 79.5748 73.8369 80.1748C74.8358 80.8788 76.0609 81.2988 77.2754 81.5088C79.7863 81.9408 82.7159 81.7048 84.875 80.3048C85.8445 79.6748 86.7534 78.7488 86.9251 77.5968C86.9733 77.2768 86.8434 76.9528 86.4853 76.8588C86.1901 76.7808 85.7608 76.9548 85.7126 77.2788C85.6833 77.4708 85.6351 77.6568 85.5618 77.8388C85.5158 77.9508 85.5409 77.8828 85.5535 77.8608C85.5325 77.9068 85.5074 77.9508 85.4844 77.9968C85.4299 78.0968 85.3692 78.1948 85.3022 78.2888C85.1032 78.5728 84.7493 78.9128 84.431 79.1408C83.5452 79.7748 82.4856 80.1348 81.405 80.3328C79.2753 80.7228 76.8064 80.5228 74.9238 79.4308C74.4756 79.1708 74.0987 78.8808 73.7511 78.4888C73.6485 78.3728 73.5165 78.1848 73.4097 77.9908C73.3804 77.9388 73.3532 77.8848 73.3281 77.8308C73.3699 77.9228 73.3071 77.7748 73.3029 77.7568C73.2631 77.6488 73.2338 77.5388 73.2108 77.4268C73.1438 77.1088 72.7501 76.9268 72.4381 77.0068C72.0925 77.0968 71.9313 77.4268 71.9983 77.7448L72.0004 77.7428Z" fill="#5E4C31"/>
<path d="M69.7801 75.2662C75.1777 75.2662 79.5533 71.0872 79.5533 65.9321C79.5533 60.7771 75.1777 56.5981 69.7801 56.5981C64.3825 56.5981 60.0068 60.7771 60.0068 65.9321C60.0068 71.0872 64.3825 75.2662 69.7801 75.2662Z" fill="white"/>
<path d="M89.327 75.2662C94.7246 75.2662 99.1003 71.0872 99.1003 65.9321C99.1003 60.7771 94.7246 56.5981 89.327 56.5981C83.9294 56.5981 79.5537 60.7771 79.5537 65.9321C79.5537 71.0872 83.9294 75.2662 89.327 75.2662Z" fill="white"/>
<path d="M82.4532 67.018C82.6731 68.026 83.427 68.814 84.2667 69.406C85.1065 69.998 86.2121 70.398 87.2676 70.58C89.4978 70.964 92.0903 70.776 94.0148 69.534C94.9572 68.926 95.866 68.018 96.0377 66.898C96.088 66.566 96.0964 66.276 95.9121 65.974C95.7592 65.726 95.4598 65.488 95.1603 65.422C94.5656 65.292 93.7154 65.596 93.6149 66.26C93.5918 66.41 93.5122 66.562 93.4955 66.708C93.4955 66.696 93.6379 66.424 93.5478 66.586C93.5332 66.612 93.5206 66.64 93.506 66.668C93.4599 66.75 93.4117 66.83 93.3573 66.908C93.3384 66.936 93.2945 66.98 93.2798 67.012C93.2882 66.996 93.4829 66.782 93.3489 66.924C93.2861 66.99 93.2253 67.06 93.1604 67.124C93.1018 67.182 93.039 67.238 92.9761 67.292C92.9385 67.324 92.9008 67.354 92.8631 67.386C92.7123 67.506 92.817 67.396 92.907 67.356C92.7207 67.44 92.551 67.588 92.3668 67.686C92.2809 67.732 92.195 67.774 92.1071 67.816C92.0568 67.84 92.0045 67.864 91.9521 67.886C91.7762 67.962 91.8872 67.954 91.971 67.88C91.9019 67.94 91.726 67.97 91.6359 67.998C91.5459 68.026 91.4495 68.056 91.3553 68.082C91.1208 68.148 90.8841 68.202 90.6433 68.246C90.5281 68.268 90.4129 68.286 90.2957 68.304C90.1931 68.32 90.1219 68.28 90.3648 68.296C90.3229 68.294 90.2726 68.306 90.2308 68.31C89.9774 68.336 89.724 68.352 89.4685 68.358C88.9848 68.37 88.5136 68.302 88.034 68.29C88.0675 68.29 88.3293 68.336 88.1052 68.296C88.0466 68.286 87.9901 68.278 87.9314 68.268C87.8309 68.25 87.7304 68.232 87.632 68.212C87.3932 68.162 87.1587 68.102 86.9262 68.03C86.8278 68 86.7294 67.966 86.6331 67.932C86.5786 67.912 86.5242 67.892 86.4718 67.872C86.3106 67.814 86.6875 67.968 86.5367 67.896C86.3273 67.796 86.1179 67.702 85.919 67.584C85.8289 67.532 85.741 67.478 85.6572 67.42C85.6384 67.408 85.563 67.342 85.5337 67.334C85.6781 67.442 85.7137 67.468 85.6405 67.412C85.6111 67.39 85.5839 67.368 85.5546 67.344C85.4017 67.218 85.2656 67.08 85.1295 66.938C85.096 66.902 84.9913 66.784 85.1232 66.934C85.2593 67.092 85.1337 66.942 85.1065 66.902C85.0541 66.826 85.0038 66.746 84.9599 66.666C84.941 66.63 84.9243 66.594 84.9054 66.56C84.8363 66.434 85.008 66.844 84.9515 66.658C84.9243 66.566 84.8949 66.476 84.874 66.382C84.74 65.766 83.9463 65.354 83.3285 65.544C82.6459 65.754 82.3087 66.36 82.4511 67.02L82.4532 67.018Z" fill="#5E4C31"/>
<path d="M65.5467 47.0842H74.9116C75.4037 47.0842 75.877 46.6702 75.8539 46.1842C75.8309 45.6982 75.4393 45.2842 74.9116 45.2842H65.5467C65.0546 45.2842 64.5813 45.6982 64.6043 46.1842C64.6274 46.6702 65.019 47.0842 65.5467 47.0842Z" fill="#5E4C31"/>
<path d="M84.6062 46.9997H93.9711C94.4633 46.9997 94.9365 46.5857 94.9135 46.0997C94.8905 45.6137 94.4989 45.1997 93.9711 45.1997H84.6062C84.1141 45.1997 83.6409 45.6137 83.6639 46.0997C83.6869 46.5857 84.0785 46.9997 84.6062 46.9997Z" fill="#5E4C31"/>
<path d="M63.3956 67.018C63.6155 68.026 64.3694 68.814 65.2091 69.406C66.0488 69.998 67.1545 70.398 68.21 70.58C70.4402 70.964 73.0327 70.776 74.9572 69.534C75.8996 68.926 76.8084 68.018 76.9801 66.898C77.0304 66.566 77.0388 66.276 76.8545 65.974C76.7016 65.726 76.4022 65.488 76.1027 65.422C75.508 65.292 74.6578 65.596 74.5572 66.26C74.5342 66.41 74.4546 66.562 74.4379 66.708C74.4379 66.696 74.5803 66.424 74.4902 66.586C74.4756 66.612 74.463 66.64 74.4483 66.668C74.4023 66.75 74.3541 66.83 74.2997 66.908C74.2808 66.936 74.2368 66.98 74.2222 67.012C74.2306 66.996 74.4253 66.782 74.2913 66.924C74.2285 66.99 74.1677 67.06 74.1028 67.124C74.0442 67.182 73.9814 67.238 73.9185 67.292C73.8808 67.324 73.8431 67.354 73.8054 67.386C73.6547 67.506 73.7594 67.396 73.8494 67.356C73.663 67.44 73.4934 67.588 73.3091 67.686C73.2233 67.732 73.1374 67.774 73.0495 67.816C72.9992 67.84 72.9469 67.864 72.8945 67.886C72.7186 67.962 72.8296 67.954 72.9134 67.88C72.8442 67.94 72.6683 67.97 72.5783 67.998C72.4882 68.026 72.3919 68.056 72.2977 68.082C72.0631 68.148 71.8265 68.202 71.5857 68.246C71.4705 68.268 71.3553 68.286 71.2381 68.304C71.1354 68.32 71.0642 68.28 71.3072 68.296C71.2653 68.294 71.215 68.306 71.1731 68.31C70.9198 68.336 70.6664 68.352 70.4109 68.358C69.9271 68.37 69.456 68.302 68.9764 68.29C69.0099 68.29 69.2717 68.336 69.0476 68.296C68.989 68.286 68.9324 68.278 68.8738 68.268C68.7733 68.25 68.6728 68.232 68.5743 68.212C68.3356 68.162 68.1011 68.102 67.8686 68.03C67.7702 68 67.6718 67.966 67.5754 67.932C67.521 67.912 67.4666 67.892 67.4142 67.872C67.253 67.814 67.6299 67.968 67.4791 67.896C67.2697 67.796 67.0603 67.702 66.8614 67.584C66.7713 67.532 66.6834 67.478 66.5996 67.42C66.5807 67.408 66.5054 67.342 66.476 67.334C66.6205 67.442 66.6561 67.468 66.5828 67.412C66.5535 67.39 66.5263 67.368 66.497 67.344C66.3441 67.218 66.208 67.08 66.0719 66.938C66.0384 66.902 65.9337 66.784 66.0656 66.934C66.2017 67.092 66.0761 66.942 66.0488 66.902C65.9965 66.826 65.9462 66.746 65.9022 66.666C65.8834 66.63 65.8666 66.594 65.8478 66.56C65.7787 66.434 65.9504 66.844 65.8939 66.658C65.8666 66.566 65.8373 66.476 65.8164 66.382C65.6824 65.766 64.8887 65.354 64.2709 65.544C63.5882 65.754 63.2511 66.36 63.3935 67.02L63.3956 67.018Z" fill="#5E4C31"/>
<path d="M54.7689 90.6187C60.2753 90.6187 64.739 86.3556 64.739 81.0967C64.739 75.8379 60.2753 71.5747 54.7689 71.5747C49.2626 71.5747 44.7988 75.8379 44.7988 81.0967C44.7988 86.3556 49.2626 90.6187 54.7689 90.6187Z" fill="#FBB03B"/>
<path d="M104.78 90.6187C110.286 90.6187 114.75 86.3556 114.75 81.0967C114.75 75.8379 110.286 71.5747 104.78 71.5747C99.2733 71.5747 94.8096 75.8379 94.8096 81.0967C94.8096 86.3556 99.2733 90.6187 104.78 90.6187Z" fill="#FBB03B"/>
</g>
</g>
<defs>
<linearGradient id="paint0_linear_3788_58637" x1="43.1253" y1="117.303" x2="45.6776" y2="43.3081" gradientUnits="userSpaceOnUse">
<stop stop-color="#F9BD4B"/>
<stop offset="0.3" stop-color="#FAC650"/>
<stop offset="0.79" stop-color="#FDDF5F"/>
<stop offset="1" stop-color="#FFEC67"/>
</linearGradient>
<linearGradient id="paint1_linear_3788_58637" x1="108.409" y1="122.491" x2="116.914" y2="6.82307" gradientUnits="userSpaceOnUse">
<stop stop-color="#F9BD4B"/>
<stop offset="0.3" stop-color="#FAC650"/>
<stop offset="0.79" stop-color="#FDDF5F"/>
<stop offset="1" stop-color="#FFEC67"/>
</linearGradient>
<linearGradient id="paint2_linear_3788_58637" x1="78.2929" y1="178.694" x2="79.995" y2="77.4832" gradientUnits="userSpaceOnUse">
<stop stop-color="#F9BD4B"/>
<stop offset="0.3" stop-color="#FAC650"/>
<stop offset="0.79" stop-color="#FDDF5F"/>
<stop offset="1" stop-color="#FFEC67"/>
</linearGradient>
<linearGradient id="paint3_linear_3788_58637" x1="78.1649" y1="178.79" x2="79.8671" y2="77.5798" gradientUnits="userSpaceOnUse">
<stop stop-color="#F9BD4B"/>
<stop offset="0.3" stop-color="#FAC650"/>
<stop offset="0.79" stop-color="#FDDF5F"/>
<stop offset="1" stop-color="#FFEC67"/>
</linearGradient>
<linearGradient id="paint4_linear_3788_58637" x1="79.2055" y1="159.502" x2="80.9058" y2="103.369" gradientUnits="userSpaceOnUse">
<stop stop-color="#F9BD4B"/>
<stop offset="0.3" stop-color="#F9C650"/>
<stop offset="0.51" stop-color="#FBD056"/>
<stop offset="1" stop-color="#FFEC67"/>
</linearGradient>
<clipPath id="clip0_3788_58637">
<rect width="160" height="160" fill="white"/>
</clipPath>
<clipPath id="clip1_3788_58637">
<rect width="71.2" height="56" fill="white" transform="translate(44.2002 39.9995)"/>
</clipPath>
</defs>
</svg>
