<svg width="24" height="24" viewBox="0 0 24 24" fill="none" xmlns="http://www.w3.org/2000/svg">
<path fill-rule="evenodd" clip-rule="evenodd" d="M19.8752 9.93704C20.0019 4.41597 16.4193 1 12.0001 1C7.58092 1 4.12501 4.41597 4.12501 9.93704V15.2746C4.12501 16.3238 3.00099 16.8 3 17.9452C3.001 18.6486 3.56015 19.2187 4.25307 19.2187H19.7469C20.438 19.2187 21 18.6535 21 17.9452C21 16.9336 19.875 16.3536 19.875 15.2746L19.8752 9.93704Z" fill="white"/>
<path fill-rule="evenodd" clip-rule="evenodd" d="M9.46604 20.9055C9.46876 20.9183 9.47149 20.9303 9.47438 20.942C9.76547 22.1259 10.7861 23 12.0003 23C13.2117 23 14.2303 22.1301 14.5241 20.9504C14.5278 20.9357 14.5314 20.9201 14.535 20.9036C14.5966 20.6149 14.4245 20.328 14.1506 20.2631C14.114 20.2545 14.0765 20.25 14.0389 20.25H9.96158C9.68089 20.25 9.45312 20.4901 9.45312 20.7859C9.45312 20.8263 9.45753 20.8662 9.46604 20.9055Z" fill="white"/>
</svg>
