<svg width="20" height="20" viewBox="0 0 20 20" fill="none" xmlns="http://www.w3.org/2000/svg">
<g id="icon">
<path id="Vector" fill-rule="evenodd" clip-rule="evenodd" d="M7.18733 16.75C6.89983 16.75 6.61233 16.6375 6.38733 16.425C6.17742 16.2142 6.05957 15.9288 6.05957 15.6313C6.05957 15.3338 6.17742 15.0484 6.38733 14.8375L11.2248 10L6.38733 5.17503C6.17742 4.96419 6.05957 4.67879 6.05957 4.38128C6.05957 4.08377 6.17742 3.79836 6.38733 3.58753C6.59817 3.37762 6.88357 3.25977 7.18108 3.25977C7.4786 3.25977 7.764 3.37762 7.97483 3.58753L13.5998 9.21253C13.8097 9.42336 13.9276 9.70877 13.9276 10.0063C13.9276 10.3038 13.8097 10.5892 13.5998 10.8L7.97483 16.425C7.76233 16.6375 7.47483 16.75 7.18733 16.75Z" fill="#565656"/>
</g>
</svg>
