<svg width="20" height="20" viewBox="0 0 20 20" fill="none" xmlns="http://www.w3.org/2000/svg">
<g id="icon/color" clip-path="url(#clip0_4084_3216)">
<circle id="Ellipse 619" cx="10.0002" cy="10" r="9.16667" fill="#FFC327"/>
<path id="C" d="M11.9032 8.76796C11.8359 8.32367 11.6437 7.97271 11.3263 7.71509C11.009 7.45748 10.6113 7.3268 10.1334 7.32307C9.71155 7.3268 9.34192 7.43321 9.02457 7.64229C8.71095 7.85137 8.46827 8.15752 8.29652 8.56075C8.12478 8.96024 8.0389 9.44001 8.0389 10C8.0389 10.5713 8.12478 11.0566 8.29652 11.4561C8.472 11.8556 8.71468 12.158 9.02457 12.3634C9.33819 12.5687 9.70408 12.6733 10.1222 12.677C10.5889 12.6733 10.9828 12.5501 11.3039 12.3074C11.625 12.061 11.8247 11.7212 11.9032 11.2881L13.6057 11.2993C13.5422 11.8108 13.3611 12.285 13.0624 12.7218C12.7637 13.1586 12.3605 13.5096 11.8527 13.7747C11.345 14.036 10.7607 14.1667 10.0998 14.1667C9.37179 14.1667 8.72215 14.0024 8.15091 13.6739C7.58341 13.3416 7.13725 12.8618 6.81243 12.2346C6.48761 11.6036 6.3252 10.8588 6.3252 10C6.3252 9.13759 6.48761 8.39274 6.81243 7.7655C7.14098 7.13826 7.59088 6.66036 8.16211 6.33181C8.73335 5.99952 9.37926 5.83337 10.0998 5.83337C10.7233 5.83337 11.2871 5.94911 11.7911 6.1806C12.2952 6.41208 12.704 6.7481 13.0176 7.18866C13.335 7.62922 13.531 8.15566 13.6057 8.76796H11.9032Z" fill="#FEFBF4"/>
</g>
<defs>
<clipPath id="clip0_4084_3216">
<rect width="20" height="20" fill="white"/>
</clipPath>
</defs>
</svg>
