<svg width="36" height="36" viewBox="0 0 36 36" fill="none" xmlns="http://www.w3.org/2000/svg">
<circle cx="18" cy="18" r="16" fill="#FEF6F0"/>
<path d="M18 4.5C25.5 4.5 31.5 10.5 31.5 18C31.5 25.5 25.5 31.5 18 31.5C10.5 31.5 4.5 25.5 4.5 18C4.5 10.5 10.5 4.5 18 4.5ZM18 1.5C8.85 1.5 1.5 8.85 1.5 18C1.5 27.15 8.85 34.5 18 34.5C27.15 34.5 34.5 27.15 34.5 18C34.5 8.85 27.15 1.5 18 1.5Z" fill="#F5822C"/>
<path d="M16.3664 24.0666C16.0164 24.0666 15.6664 23.95 15.4331 23.6L10.0664 18.2333C9.48307 17.65 9.48307 16.8333 10.0664 16.25C10.6497 15.6666 11.4664 15.6666 12.0497 16.25L16.3664 20.5666L24.0664 12.8666C24.6497 12.2833 25.4664 12.2833 26.0497 12.8666C26.6331 13.45 26.6331 14.2666 26.0497 14.85L17.4164 23.4833C17.0664 23.95 16.7164 24.0666 16.3664 24.0666Z" fill="#F5822C"/>
</svg>
