<svg width="20" height="20" viewBox="0 0 20 20" fill="none" xmlns="http://www.w3.org/2000/svg">
<g id="icon/circle+check" clip-path="url(#clip0_232_6354)">
<circle id="Ellipse 616" cx="9.99935" cy="10" r="8.33333" fill="#43BC5C"/>
<path id="Vector" fill-rule="evenodd" clip-rule="evenodd" d="M14.3327 8.49998L9.66602 13.1666C9.49935 13.3333 9.33268 13.4166 9.08268 13.4166C8.83268 13.4166 8.66602 13.3333 8.49935 13.1666L5.66602 10.3333C5.33268 9.99998 5.33268 9.49998 5.66602 9.16665C5.99935 8.83331 6.49935 8.83331 6.83268 9.16665L9.08268 11.4166L13.166 7.33331C13.4993 6.99998 13.9993 6.99998 14.3327 7.33331C14.666 7.66665 14.666 8.16665 14.3327 8.49998Z" fill="white"/>
<path id="Vector_2" d="M10.0007 2.49998C14.1673 2.49998 17.5006 5.83331 17.5006 9.99998C17.5006 14.1666 14.1673 17.5 10.0007 17.5C5.83398 17.5 2.50065 14.1666 2.50065 9.99998C2.50065 5.83331 5.83398 2.49998 10.0007 2.49998ZM10.0007 0.833313C4.91732 0.833313 0.833984 4.91665 0.833984 9.99998C0.833984 15.0833 4.91732 19.1666 10.0007 19.1666C15.084 19.1666 19.1673 15.0833 19.1673 9.99998C19.1673 4.91665 15.084 0.833313 10.0007 0.833313Z" fill="#43BC5C"/>
</g>
<defs>
<clipPath id="clip0_232_6354">
<rect width="20" height="20" fill="white"/>
</clipPath>
</defs>
</svg>
