<svg width="24" height="24" viewBox="0 0 24 24" fill="none" xmlns="http://www.w3.org/2000/svg">
<g id="icon">
<path id="Vector" fill-rule="evenodd" clip-rule="evenodd" d="M3.95093 7.75801H17.3929L14.8989 10.252C14.7077 10.4613 14.6045 10.7363 14.6109 11.0197C14.6173 11.3031 14.7328 11.5732 14.9334 11.7736C15.1339 11.974 15.404 12.0893 15.6874 12.0955C15.9709 12.1018 16.2458 11.9984 16.4549 11.807L20.8259 7.43501C20.929 7.33334 21.0108 7.2122 21.0666 7.07865C21.1225 6.94509 21.1512 6.80177 21.1512 6.65701C21.1512 6.51225 21.1225 6.36894 21.0666 6.23538C21.0108 6.10182 20.929 5.98069 20.8259 5.87901L16.4549 1.50901C16.3533 1.40463 16.232 1.32146 16.098 1.26435C15.964 1.20723 15.82 1.1773 15.6743 1.1763C15.5286 1.17529 15.3842 1.20323 15.2494 1.25849C15.1146 1.31375 14.9922 1.39523 14.8891 1.4982C14.7861 1.60118 14.7045 1.72359 14.6492 1.85834C14.5938 1.99309 14.5658 2.13749 14.5667 2.28316C14.5676 2.42883 14.5975 2.57287 14.6545 2.70691C14.7115 2.84096 14.7946 2.96234 14.8989 3.06401L17.3929 5.55801H3.95093C3.6592 5.55801 3.37941 5.67391 3.17312 5.8802C2.96683 6.08649 2.85093 6.36628 2.85093 6.65801C2.85093 6.94975 2.96683 7.22954 3.17312 7.43583C3.37941 7.64212 3.6592 7.75801 3.95093 7.75801ZM20.0489 16.241H6.60693L9.09993 13.747C9.30167 13.5398 9.41367 13.2614 9.41167 12.9722C9.40967 12.6829 9.29385 12.4061 9.08926 12.2017C8.88468 11.9972 8.60781 11.8816 8.31858 11.8798C8.02936 11.878 7.75106 11.9901 7.54393 12.192L3.17193 16.563C3.06926 16.6649 2.98776 16.7861 2.93215 16.9196C2.87653 17.0532 2.8479 17.1964 2.8479 17.341C2.8479 17.4857 2.87653 17.6289 2.93215 17.7624C2.98776 17.8959 3.06926 18.0171 3.17193 18.119L7.54393 22.491C7.6461 22.5932 7.76739 22.6742 7.90088 22.7295C8.03437 22.7848 8.17745 22.8133 8.32193 22.8133C8.46642 22.8133 8.6095 22.7848 8.74298 22.7295C8.87647 22.6742 8.99777 22.5932 9.09993 22.491C9.2021 22.3888 9.28315 22.2676 9.33844 22.1341C9.39373 22.0006 9.42219 21.8575 9.42219 21.713C9.42219 21.5685 9.39373 21.4255 9.33844 21.292C9.28315 21.1585 9.2021 21.0372 9.09993 20.935L6.60593 18.441H20.0479C20.3397 18.441 20.6195 18.3251 20.8258 18.1188C21.032 17.9125 21.1479 17.6328 21.1479 17.341C21.1479 17.0493 21.032 16.7695 20.8258 16.5632C20.6195 16.3569 20.3397 16.241 20.0479 16.241" fill="#565656"/>
</g>
</svg>
