<svg width="16" height="16" viewBox="0 0 16 16" fill="none" xmlns="http://www.w3.org/2000/svg">
<g id="icon" clip-path="url(#clip0_4299_7418)">
<path id="Vector" fill-rule="evenodd" clip-rule="evenodd" d="M8.00033 11.412C7.78815 11.412 7.58467 11.3277 7.43464 11.1777C7.28461 11.0277 7.20033 10.8242 7.20033 10.612C7.20033 10.3998 7.28461 10.1964 7.43464 10.0463C7.58467 9.89631 7.78815 9.81202 8.00033 9.81202C8.2125 9.81202 8.41598 9.89631 8.56601 10.0463C8.71604 10.1964 8.80032 10.3998 8.80032 10.612C8.80032 10.8242 8.71604 11.0277 8.56601 11.1777C8.41598 11.3277 8.2125 11.412 8.00033 11.412ZM7.33366 4.85535C7.33366 4.67854 7.4039 4.50897 7.52892 4.38395C7.65394 4.25892 7.82351 4.18869 8.00033 4.18869C8.17714 4.18869 8.34671 4.25892 8.47173 4.38395C8.59675 4.50897 8.66699 4.67854 8.66699 4.85535V8.18869C8.66699 8.3655 8.59675 8.53507 8.47173 8.66009C8.34671 8.78512 8.17714 8.85535 8.00033 8.85535C7.82351 8.85535 7.65394 8.78512 7.52892 8.66009C7.4039 8.53507 7.33366 8.3655 7.33366 8.18869V4.85535ZM8.00033 0.666687C3.95033 0.666687 0.666992 3.95002 0.666992 8.00002C0.666992 12.0507 3.95033 15.3334 8.00033 15.3334C12.0503 15.3334 15.3337 12.0507 15.3337 8.00002C15.3337 3.95002 12.0503 0.666687 8.00033 0.666687Z" fill="#FC5555"/>
</g>
<defs>
<clipPath id="clip0_4299_7418">
<rect width="16" height="16" fill="white"/>
</clipPath>
</defs>
</svg>
