<svg width="24" height="24" viewBox="0 0 24 24" fill="none" xmlns="http://www.w3.org/2000/svg">
<g clip-path="url(#clip0_193_21599)">
<g clip-path="url(#clip1_193_21599)">
<path fill-rule="evenodd" clip-rule="evenodd" d="M12.6832 5.00969C13.7472 3.60693 15.2261 3.60001 15.2261 3.60001C15.2261 3.60001 15.4461 4.91894 14.3893 6.1897C13.2607 7.54642 11.9781 7.32447 11.9781 7.32447C11.9781 7.32447 11.7373 6.25756 12.6832 5.00995V5.00969Z" fill="white"/>
<path fill-rule="evenodd" clip-rule="evenodd" d="M12.1132 8.2482C12.6606 8.2482 13.6762 7.49559 14.9985 7.49559C17.2743 7.49559 18.1696 9.11578 18.1696 9.11578C18.1696 9.11578 16.4186 10.0116 16.4186 12.185C16.4186 14.6369 18.6 15.4818 18.6 15.4818C18.6 15.4818 17.0751 19.7761 15.0155 19.7761C14.0693 19.7761 13.3341 19.1381 12.3372 19.1381C11.3402 19.1381 10.3135 19.7997 9.65701 19.7997C7.77616 19.8 5.40002 15.7267 5.40002 12.4522C5.40002 9.17778 7.41121 7.54083 9.29765 7.54083C10.5239 7.54083 11.4756 8.24847 12.1132 8.24847V8.2482Z" fill="white"/>
</g>
</g>
<defs>
<clipPath id="clip0_193_21599">
<rect width="24" height="24" fill="white"/>
</clipPath>
<clipPath id="clip1_193_21599">
<rect width="13.2" height="16.2" fill="white" transform="translate(5.40002 3.60001)"/>
</clipPath>
</defs>
</svg>
