<svg width="24" height="24" viewBox="0 0 24 24" fill="none" xmlns="http://www.w3.org/2000/svg">
<g clip-path="url(#clip0_193_21600)">
<path fill-rule="evenodd" clip-rule="evenodd" d="M20.4 12.1907C20.4 11.5948 20.3451 11.0227 20.2442 10.4727H12.1716V13.7219H16.7849C16.5862 14.772 15.9822 15.6615 15.0746 16.2574V18.3647H17.8451C19.4658 16.9023 20.4008 14.7491 20.4008 12.1907H20.4Z" fill="#3E82F1"/>
<path fill-rule="evenodd" clip-rule="evenodd" d="M12.1715 20.4C14.4858 20.4 16.4262 19.6475 17.8442 18.3647L15.0737 16.2574C14.3057 16.7615 13.3246 17.059 12.1707 17.059C9.93799 17.059 8.04844 15.5816 7.37418 13.5961H4.5116V15.7723C5.9223 18.5174 8.82041 20.4 12.1715 20.4Z" fill="#32A753"/>
<path fill-rule="evenodd" clip-rule="evenodd" d="M7.37503 13.5961C7.20384 13.092 7.10613 12.5539 7.10613 12C7.10613 11.4461 7.20384 10.908 7.37503 10.4039V8.22772H4.51164C3.93105 9.3617 3.59998 10.6445 3.59998 12C3.59998 13.3556 3.93105 14.6383 4.51164 15.7723L7.37503 13.5961Z" fill="#F9BB00"/>
<path fill-rule="evenodd" clip-rule="evenodd" d="M12.1715 6.94101C13.4296 6.94101 14.5601 7.36517 15.4484 8.19686L17.9072 5.78725C16.4222 4.43249 14.4818 3.60001 12.1715 3.60001C8.82041 3.60001 5.9223 5.48259 4.5116 8.22772L7.37499 10.4039C8.04925 8.41843 9.93879 6.94101 12.1715 6.94101Z" fill="#E74133"/>
</g>
<defs>
<clipPath id="clip0_193_21600">
<rect width="16.8" height="16.8" fill="white" transform="translate(3.59998 3.60001)"/>
</clipPath>
</defs>
</svg>
