<svg width="40" height="40" viewBox="0 0 40 40" fill="none" xmlns="http://www.w3.org/2000/svg">
<g id="icon">
<path id="Vector" fill-rule="evenodd" clip-rule="evenodd" d="M28.1446 11.0733C28.1447 12.1447 27.9338 13.2056 27.5239 14.1955C27.114 15.1853 26.5132 16.0847 25.7557 16.8424C24.9982 17.6 24.0989 18.2011 23.1091 18.6112C22.1194 19.0213 21.0585 19.2324 19.9871 19.2325C17.8234 19.2327 15.7482 18.3734 14.2181 16.8436C12.6879 15.3137 11.8282 13.2387 11.828 11.075C11.8279 10.0036 12.0388 8.94273 12.4487 7.95288C12.8586 6.96302 13.4594 6.06359 14.2169 5.30594C15.7467 3.7758 17.8217 2.91605 19.9855 2.91583C22.1492 2.91561 24.2244 3.77494 25.7545 5.30476C27.2847 6.83459 28.1444 8.90961 28.1446 11.0733ZM19.9863 21.7283C8.23797 21.7283 3.66797 29.205 3.66797 32.6833C3.66797 36.16 13.3963 37.0867 19.9863 37.0867C26.5763 37.0867 36.3046 36.16 36.3046 32.6833C36.3046 29.205 31.7346 21.7283 19.9863 21.7283Z" fill="#F5822C"/>
</g>
</svg>
