<svg width="24" height="24" viewBox="0 0 24 24" fill="none" xmlns="http://www.w3.org/2000/svg">
<g id="status=status28">
<path id="Vector" fill-rule="evenodd" clip-rule="evenodd" d="M15.25 8.5907C19.2541 8.5907 22.5 11.5273 22.5 15.1502C22.5 16.8951 21.7419 18.4762 20.5142 19.6521L21.1135 22.586C21.1263 22.6487 21.1213 22.7138 21.0993 22.7739C21.0772 22.834 21.0388 22.8868 20.9884 22.9263C20.9381 22.9658 20.8777 22.9906 20.8141 22.9978C20.7504 23.005 20.6861 22.9944 20.6281 22.9671L17.3615 21.4253C16.6736 21.6143 15.9634 21.71 15.25 21.7097C11.2459 21.7097 8 18.7732 8 15.1502C8 11.5273 11.2459 8.5907 15.25 8.5907" fill="#F5822C"/>
<path id="Subtract" fill-rule="evenodd" clip-rule="evenodd" d="M1.5 8.55952C1.5 4.9366 4.74593 2 8.75 2C12.402 2 15.4234 4.44294 15.9264 7.62141C15.7044 7.60519 15.4798 7.59692 15.2532 7.59692C10.7464 7.59692 7.08327 10.865 7.0014 14.9252C6.87983 14.8978 6.75884 14.8676 6.63852 14.8346L3.37188 16.3764C3.31395 16.4037 3.24957 16.4143 3.18594 16.4071C3.12231 16.3999 3.06194 16.3752 3.01158 16.3356C2.96121 16.2961 2.92284 16.2433 2.90075 16.1832C2.87865 16.1231 2.87371 16.058 2.88648 15.9953L3.48581 13.0614C2.25814 11.8855 1.5 10.3044 1.5 8.55952Z" fill="#F5822C"/>
</g>
</svg>
