<svg width="24" height="24" viewBox="0 0 24 24" fill="none" xmlns="http://www.w3.org/2000/svg">
<g id="icon">
<path id="Vector" fill-rule="evenodd" clip-rule="evenodd" d="M21.0698 8.20401L12.6228 1.48701C12.4461 1.34617 12.2268 1.26947 12.0008 1.26947C11.7748 1.26947 11.5555 1.34617 11.3788 1.48701L2.93078 8.20401C2.69533 8.39129 2.50517 8.62927 2.37444 8.90023C2.24372 9.1712 2.17582 9.46816 2.17578 9.76901V19.187C2.17578 19.8235 2.42864 20.434 2.87873 20.8841C3.32881 21.3342 3.93926 21.587 4.57578 21.587H10.0008V16.835C10.0008 16.5698 10.1061 16.3154 10.2937 16.1279C10.4812 15.9404 10.7356 15.835 11.0008 15.835H13.0008C13.266 15.835 13.5204 15.9404 13.7079 16.1279C13.8954 16.3154 14.0008 16.5698 14.0008 16.835V21.587H19.4248C20.0613 21.587 20.6718 21.3342 21.1218 20.8841C21.5719 20.434 21.8248 19.8235 21.8248 19.187V9.77001C21.8247 9.46916 21.7568 9.1722 21.6261 8.90123C21.4954 8.63027 21.3052 8.39229 21.0698 8.20501" fill="#F5822C"/>
</g>
</svg>
