<svg width="28" height="28" viewBox="0 0 28 28" fill="none" xmlns="http://www.w3.org/2000/svg">
<rect width="28" height="28" rx="14" fill="#F7A05E"/>
<g clip-path="url(#clip0_3788_58678)">
<path d="M21.5317 10.5142C21.3532 9.2796 20.0826 9.85024 19.0706 7.93441C18.8179 7.47188 18.634 6.9449 18.5373 6.37681C18.4809 5.96981 18.2253 5.56155 17.8128 5.46658C17.6813 5.41698 11.258 5.46658 11.1092 5.44963C10.6874 5.44963 10.3211 5.8227 10.2355 6.34544C9.62329 9.98591 6.99097 9.04474 7.23686 10.9351C7.83803 16.0179 10.8235 21.2808 14.0934 22.5544C15.9376 22.601 20.4463 19.1382 21.5317 10.5137V10.5142Z" fill="#404B5B"/>
<path d="M20.5422 10.9361C19.2076 19.5932 14.8527 22.0462 13.6856 22.5554C11.7019 22.3612 7.88423 19.8735 6.24862 10.9361C5.99425 9.05633 8.63929 9.978 9.24723 6.34601C9.3333 5.8237 9.69959 5.4502 10.1214 5.4502H16.6694C17.0916 5.4502 17.4575 5.82327 17.5435 6.34601C17.8026 7.92014 18.7298 9.18436 19.9329 9.64308C20.3675 9.80842 20.6286 10.3727 20.5422 10.9361Z" fill="#515F72"/>
<path d="M20.2251 10.2923C20.3459 10.3385 20.4528 10.4161 20.5431 10.5153C20.3837 9.31932 18.9897 9.74794 18.082 7.93555C18.4941 9.06199 19.2729 9.92982 20.2251 10.2927V10.2923Z" fill="#8695A5"/>
<path d="M6.54154 11.5848C6.28462 9.70839 8.92923 10.6292 9.53972 6.99467C9.62578 6.47194 9.99165 6.09886 10.4139 6.09886C10.7047 6.20146 17.6304 5.82541 17.5486 6.3774C17.474 5.84958 17.1013 5.44682 16.6689 5.45022H10.121C9.6987 5.45022 9.33283 5.82329 9.24677 6.34603C7.941 12.1732 3.90074 6.32525 8.04105 17.0495C7.41403 15.5814 6.88027 13.7834 6.54111 11.5848H6.54154Z" fill="#8695A5"/>
<path d="M18.8529 12.9427C19.8666 9.18441 17.5484 11.7659 16.7128 7.94902C16.6441 7.53524 16.3516 7.23975 16.0142 7.23975H13.0944C12.907 8.72231 12.7366 10.4787 12.6514 12.3865C14.5515 12.3657 16.6518 12.5099 18.8529 12.9423V12.9427Z" fill="#ECECE3"/>
<path d="M13.0935 7.24023H10.7787C10.4413 7.24023 10.1487 7.53573 10.08 7.94951C9.28683 11.6684 6.96824 9.29428 7.90475 12.7847C9.25292 12.5727 10.8631 12.4065 12.6509 12.387C12.7357 10.4792 12.9065 8.72279 13.0939 7.24023H13.0935Z" fill="white"/>
<path d="M12.6504 12.3857C10.8626 12.4057 9.25289 12.5714 7.9043 12.7834C9.07907 18.26 11.8665 20.1407 12.9519 20.6795C12.5779 17.8412 12.5351 14.9744 12.65 12.3857H12.6504Z" fill="#D8D8D4"/>
<path d="M12.6502 12.3863C12.5349 14.9749 12.5777 17.8417 12.9521 20.68C14.3549 21.1316 17.4574 18.704 18.8518 12.9421C16.6506 12.5096 14.5504 12.3651 12.6502 12.3863Z" fill="#BABABA"/>
<path d="M8.89178 13.3377C7.95527 9.84562 10.2705 12.2257 11.0671 8.50254C11.1358 8.08876 11.4283 7.79327 11.7658 7.79327C12.9804 7.79327 15.4529 7.79327 16.6734 7.79327C16.5657 7.46301 16.3063 7.23959 16.0125 7.23959C14.7169 7.24637 12.0595 7.2345 10.7779 7.23959C9.65998 7.26969 10.368 9.71759 8.16895 10.5583C7.82173 10.6893 7.61272 11.1361 7.68225 11.5817C8.19396 16.6882 11.8098 20.561 13.1932 20.7895C11.8883 19.8865 9.85161 17.8125 8.89178 13.3377Z" fill="white"/>
</g>
<defs>
<clipPath id="clip0_3788_58678">
<rect width="15.3089" height="17.1111" fill="white" transform="translate(6.22266 5.44434)"/>
</clipPath>
</defs>
</svg>
