<svg width="28" height="28" viewBox="0 0 28 28" fill="none" xmlns="http://www.w3.org/2000/svg">
<rect width="28" height="28" rx="14" fill="#FFF084"/>
<path fill-rule="evenodd" clip-rule="evenodd" d="M13.9878 6.67236C13.7522 6.67236 13.5334 6.73408 13.3482 6.8519C12.7311 7.22219 11.637 9.24196 11.0984 10.308C10.9581 10.5829 10.7169 10.7624 10.4083 10.8073C9.22451 10.9924 6.9691 11.4076 6.42488 11.8789C6.25657 12.0248 6.13314 12.2043 6.0602 12.4343C5.98726 12.6587 5.98165 12.8832 6.03215 13.0964C6.19485 13.7977 7.77701 15.464 8.62419 16.3055C8.843 16.5244 8.93837 16.8105 8.88788 17.1135C8.69712 18.2973 8.39977 20.5695 8.68029 21.2315C8.76445 21.4335 8.8991 21.6131 9.09547 21.7533C9.28622 21.8936 9.49942 21.9665 9.71823 21.989C10.4364 22.0507 12.5066 21.0632 13.5726 20.519C13.8475 20.3788 14.1505 20.3788 14.4254 20.519C15.4914 21.0632 17.5617 22.0563 18.2798 21.989C18.4986 21.9721 18.7062 21.8936 18.9026 21.7533C19.0933 21.6131 19.228 21.4335 19.3178 21.2315C19.5983 20.5695 19.2953 18.2917 19.1102 17.1135C19.0597 16.8049 19.1551 16.5244 19.3739 16.3055C20.221 15.4584 21.8032 13.7977 21.9659 13.0964C22.0164 12.8832 22.0108 12.6587 21.9378 12.4343C21.8649 12.2099 21.7359 12.0248 21.5732 11.8789C21.0289 11.4076 18.7735 10.9924 17.5897 10.8073C17.2812 10.7568 17.0399 10.5829 16.8996 10.308C16.3554 9.24196 15.267 7.22219 14.6498 6.8519C14.4647 6.73969 14.2459 6.67236 14.0102 6.67236H13.9878Z" fill="url(#paint0_radial_3788_58642)"/>
<path style="mix-blend-mode:screen" opacity="0.5" fill-rule="evenodd" clip-rule="evenodd" d="M13.2123 9.13463C13.1506 9.23562 13.1001 9.32539 13.0608 9.39272C12.7747 9.88083 12.5054 10.3858 12.2529 10.8907C11.9219 11.5359 11.3272 11.9735 10.609 12.0857C10.048 12.1755 9.48693 12.2765 8.93149 12.3943C8.85294 12.4112 8.75757 12.4336 8.63975 12.456C8.31995 12.529 8.0787 12.7478 7.97771 13.062C7.87672 13.3762 7.94405 13.6903 8.15725 13.9372C8.23579 14.027 8.30312 14.0999 8.35361 14.1616C8.73512 14.5824 9.12786 14.992 9.5262 15.3959C10.0368 15.9065 10.2668 16.6134 10.1546 17.3259C10.0648 17.887 9.98626 18.448 9.93016 19.0147C9.92455 19.0932 9.91332 19.1942 9.9021 19.312C9.87405 19.6374 10.0031 19.9348 10.2724 20.1312C10.5361 20.3219 10.8615 20.3612 11.1645 20.2322C11.2711 20.1873 11.3664 20.1424 11.4338 20.1143C11.9499 19.8843 12.4661 19.6374 12.971 19.3794C13.6162 19.0483 14.3568 19.0483 15.002 19.3794C15.507 19.6374 16.0175 19.8843 16.5393 20.1143C16.6122 20.148 16.702 20.1873 16.8086 20.2322C17.1116 20.3612 17.4314 20.3275 17.7007 20.1312C17.9644 19.9404 18.099 19.6431 18.071 19.312C18.0597 19.1942 18.0485 19.0932 18.0429 19.0147C17.9868 18.448 17.9083 17.887 17.8185 17.3259C17.7063 16.6134 17.9307 15.9065 18.4469 15.3959C18.8508 14.9976 19.2435 14.5824 19.6195 14.1616C19.6699 14.1055 19.7373 14.027 19.8158 13.9372C20.0346 13.6903 20.0963 13.3705 19.9954 13.062C19.8944 12.7478 19.6531 12.529 19.3333 12.456C19.2211 12.428 19.1201 12.4112 19.0416 12.3943C18.4861 12.2765 17.9251 12.1755 17.364 12.0857C16.6459 11.9735 16.0512 11.5415 15.7202 10.8907C15.4621 10.3858 15.1928 9.88083 14.9123 9.39272C14.873 9.32539 14.8225 9.23562 14.7608 9.13463C14.5925 8.85411 14.3119 8.69141 13.9809 8.69141C13.6499 8.69141 13.3694 8.85411 13.2011 9.13463H13.2123Z" fill="url(#paint1_radial_3788_58642)"/>
<path style="mix-blend-mode:screen" fill-rule="evenodd" clip-rule="evenodd" d="M8.62737 19.1442C11.326 15.0205 15.7695 12.1423 20.9087 11.5476C19.9942 11.2166 18.4738 10.9417 17.5761 10.8014C17.2675 10.7509 17.0263 10.577 16.886 10.3021C16.3418 9.2361 15.2533 7.21633 14.6362 6.84604C14.451 6.73383 14.2322 6.6665 13.9966 6.6665C13.761 6.6665 13.5421 6.72822 13.357 6.84604C12.7398 7.21633 11.6458 9.2361 11.1072 10.3021C10.9669 10.577 10.7257 10.7565 10.4171 10.8014C9.2333 10.9866 6.97789 11.4017 6.43367 11.873C6.26536 12.0189 6.14193 12.1984 6.06899 12.4285C5.99605 12.6529 5.99044 12.8773 6.04094 13.0905C6.20364 13.7918 7.7858 15.4581 8.63298 16.2997C8.85179 16.5185 8.94716 16.8046 8.89667 17.1076C8.81251 17.6462 8.7003 18.4036 8.63298 19.1386L8.62737 19.1442Z" fill="url(#paint2_radial_3788_58642)"/>
<g style="mix-blend-mode:multiply">
<path fill-rule="evenodd" clip-rule="evenodd" d="M18.4865 21.8823C17.7347 21.9889 15.5578 20.3113 14.4357 19.3856C14.144 19.1444 13.8298 19.1444 13.5381 19.3856C12.416 20.3113 10.2391 21.9889 9.4873 21.8823C9.25727 21.8486 9.03847 21.7252 8.83649 21.4839C8.79721 21.439 8.76355 21.3942 8.72989 21.3437C8.81405 21.5008 8.93187 21.6354 9.08896 21.7532C9.27972 21.8935 9.49291 21.9664 9.71172 21.9889C10.4299 22.0506 12.5001 21.0631 13.5661 20.5189C13.841 20.3787 14.144 20.3787 14.4189 20.5189C15.4849 21.0631 17.5552 22.0562 18.2733 21.9889C18.4921 21.972 18.6997 21.8935 18.8961 21.7532C19.0532 21.641 19.171 21.5008 19.2551 21.3437C19.2215 21.3942 19.1878 21.439 19.1485 21.4839C18.9466 21.7196 18.7221 21.8486 18.4977 21.8823H18.4865ZM11.4117 10.7118C11.8437 9.54483 12.7077 7.40163 13.3529 6.84619C12.7358 7.21648 11.6417 9.23625 11.0975 10.3022C10.9572 10.5772 10.716 10.7567 10.4074 10.8016C9.22361 10.9867 6.9682 11.4019 6.42398 11.8732C7.14773 11.4356 9.45364 11.2729 10.6992 11.2224C11.0414 11.2111 11.2939 11.026 11.4117 10.7062V10.7118ZM16.5677 10.7118C16.6855 11.0316 16.938 11.2168 17.2803 11.228C18.5258 11.2785 20.8317 11.4412 21.5554 11.8788C21.0112 11.4075 18.7558 10.9923 17.572 10.8072C17.2634 10.7567 17.0222 10.5828 16.8819 10.3079C16.3377 9.24186 15.2493 7.22209 14.6265 6.8518C15.2661 7.40724 16.1357 9.54483 16.5677 10.7174V10.7118ZM9.62757 16.8889C9.74539 16.5523 9.65001 16.255 9.35265 16.053C8.28666 15.3068 6.36227 13.8705 6.03125 13.0907C6.19395 13.7976 7.77611 15.4583 8.62329 16.3055C8.8421 16.5243 8.93748 16.8104 8.88698 17.1134C8.69623 18.2972 8.39887 20.5694 8.67939 21.2315C8.49425 20.4123 9.20678 18.1176 9.62757 16.8889ZM19.3617 16.3055C20.2089 15.4583 21.7911 13.7976 21.9538 13.0907C21.6228 13.8705 19.6984 15.3068 18.6324 16.053C18.3406 16.2606 18.2453 16.5523 18.3575 16.8889C18.7839 18.1176 19.4908 20.4123 19.3056 21.2315C19.5862 20.5694 19.2832 18.2916 19.098 17.1134C19.0476 16.8048 19.1429 16.5243 19.3617 16.3055Z" fill="url(#paint3_radial_3788_58642)"/>
</g>
<path style="mix-blend-mode:screen" fill-rule="evenodd" clip-rule="evenodd" d="M7.58679 11.665C8.68083 11.4967 9.58412 11.4743 10.6782 11.435C11.1438 11.4182 11.3739 11.3789 11.5814 10.902C12.1032 9.71259 12.3389 8.74759 13.0177 7.54695C13.1019 7.39547 13.1917 7.23837 13.3151 7.11494C13.5788 6.85125 13.8986 6.98029 13.8425 7.36741C13.6293 8.78125 13.3768 10.1895 13.0794 11.5865C12.8494 12.6637 12.221 12.6918 11.256 12.6581C10.0947 12.6132 8.50691 12.5178 7.35676 12.3495C6.34126 12.2036 6.83499 11.7772 7.59801 11.6594L7.58679 11.665Z" fill="url(#paint4_radial_3788_58642)"/>
<path fill-rule="evenodd" clip-rule="evenodd" d="M12.833 8.83753C13.091 8.92729 13.1527 9.42094 12.9676 9.93703C12.7825 10.4531 12.4235 10.7953 12.1654 10.7056C11.9074 10.6158 11.8457 10.1221 12.0308 9.60606C12.2159 9.08997 12.5749 8.74778 12.833 8.83753Z" fill="white"/>
<path fill-rule="evenodd" clip-rule="evenodd" d="M13.293 7.56882C13.4388 7.63613 13.4444 7.92784 13.3098 8.21393C13.1752 8.50563 12.9452 8.68514 12.7993 8.61783C12.6535 8.55051 12.6478 8.25881 12.7825 7.97272C12.9171 7.68101 13.1471 7.5015 13.293 7.56882Z" fill="white"/>
<path style="mix-blend-mode:screen" fill-rule="evenodd" clip-rule="evenodd" d="M18.2469 19.273C18.5947 19.2057 18.9481 19.531 19.0434 19.9966C19.1332 20.4622 18.9312 20.8998 18.5834 20.9671C18.2356 21.0344 17.8822 20.7091 17.7869 20.2435C17.6915 19.7779 17.8991 19.3403 18.2469 19.273Z" fill="url(#paint5_radial_3788_58642)"/>
<path style="mix-blend-mode:screen" fill-rule="evenodd" clip-rule="evenodd" d="M19.8465 14.947C19.3808 15.3398 18.8647 15.6371 18.4102 16.0018C18.1858 16.1757 18.0399 16.3945 18.1241 16.748C18.1914 17.0341 18.3261 17.309 18.4102 17.5896C18.702 18.5602 18.4439 18.5826 17.9277 17.8196C17.6977 17.4886 17.4957 17.1407 17.2937 16.7873C16.8954 16.0916 17.0413 15.7157 17.7145 15.3454C18.3148 15.02 18.9769 14.7731 19.6221 14.5487C20.1943 14.3523 20.3739 14.4926 19.8521 14.9358L19.8465 14.947Z" fill="url(#paint6_radial_3788_58642)"/>
<defs>
<radialGradient id="paint0_radial_3788_58642" cx="0" cy="0" r="1" gradientUnits="userSpaceOnUse" gradientTransform="translate(10.5879 7.59809) scale(16.2367 16.2367)">
<stop stop-color="#FCF800"/>
<stop offset="1" stop-color="#FC9700"/>
</radialGradient>
<radialGradient id="paint1_radial_3788_58642" cx="0" cy="0" r="1" gradientUnits="userSpaceOnUse" gradientTransform="translate(11.7087 11.9343) scale(10.7889)">
<stop stop-color="#FFF261"/>
<stop offset="0.11" stop-color="#FAED5F"/>
<stop offset="0.23" stop-color="#ECE05A"/>
<stop offset="0.36" stop-color="#D6CB51"/>
<stop offset="0.5" stop-color="#B6AD45"/>
<stop offset="0.64" stop-color="#8E8636"/>
<stop offset="0.78" stop-color="#5C5723"/>
<stop offset="0.92" stop-color="#22210D"/>
<stop offset="1"/>
</radialGradient>
<radialGradient id="paint2_radial_3788_58642" cx="0" cy="0" r="1" gradientUnits="userSpaceOnUse" gradientTransform="translate(10.1254 6.89653) scale(14.2899 14.2899)">
<stop stop-color="#FFF261"/>
<stop offset="0.11" stop-color="#FAED5F"/>
<stop offset="0.23" stop-color="#ECE05A"/>
<stop offset="0.36" stop-color="#D6CB51"/>
<stop offset="0.5" stop-color="#B6AD45"/>
<stop offset="0.64" stop-color="#8E8636"/>
<stop offset="0.78" stop-color="#5C5723"/>
<stop offset="0.92" stop-color="#22210D"/>
<stop offset="1"/>
</radialGradient>
<radialGradient id="paint3_radial_3788_58642" cx="0" cy="0" r="1" gradientUnits="userSpaceOnUse" gradientTransform="translate(15.1763 17.0292) scale(11.3556 11.3556)">
<stop stop-color="#E89A51"/>
<stop offset="1" stop-color="white"/>
</radialGradient>
<radialGradient id="paint4_radial_3788_58642" cx="0" cy="0" r="1" gradientUnits="userSpaceOnUse" gradientTransform="translate(9.87586 7.06445) scale(7.16458)">
<stop stop-color="#FFFACF"/>
<stop offset="1"/>
</radialGradient>
<radialGradient id="paint5_radial_3788_58642" cx="0" cy="0" r="1" gradientUnits="userSpaceOnUse" gradientTransform="translate(20.0924 20.6417) scale(3.62946)">
<stop stop-color="#FFF380"/>
<stop offset="1"/>
</radialGradient>
<radialGradient id="paint6_radial_3788_58642" cx="0" cy="0" r="1" gradientUnits="userSpaceOnUse" gradientTransform="translate(21.1593 17.713) scale(5.459 5.45899)">
<stop/>
<stop offset="0.08" stop-color="#222111"/>
<stop offset="0.22" stop-color="#5C582E"/>
<stop offset="0.36" stop-color="#8E8747"/>
<stop offset="0.5" stop-color="#B6AE5B"/>
<stop offset="0.64" stop-color="#D6CC6B"/>
<stop offset="0.77" stop-color="#ECE176"/>
<stop offset="0.89" stop-color="#FAEE7D"/>
<stop offset="1" stop-color="#FFF380"/>
</radialGradient>
</defs>
</svg>
