<svg width="28" height="28" viewBox="0 0 28 28" fill="none" xmlns="http://www.w3.org/2000/svg">
<rect width="28" height="28" rx="14" fill="#565656"/>
<path d="M6.27936 12.2847C6.39014 12.4292 6.56957 12.5074 6.7502 12.5303C6.92962 12.5544 7.11266 12.5303 7.29328 12.5062C7.52088 13.0674 7.88092 13.578 8.32888 13.9934C8.81658 14.445 9.40542 14.7857 10.0412 14.9628L10.8035 11.98C10.3086 11.98 9.87867 11.6537 9.51621 11.3177C9.49333 11.296 9.47045 11.2755 9.44757 11.2539C9.10799 10.9336 8.7648 10.5964 8.32045 10.4639C7.9592 10.3568 7.55941 10.4025 7.21742 10.5615C6.87543 10.7204 6.58883 10.9878 6.38051 11.302C6.28418 11.449 6.20229 11.6091 6.17219 11.7825C6.14208 11.9547 6.17219 12.1438 6.27815 12.2847H6.27936Z" fill="white"/>
<path d="M8.32933 13.9934C8.81702 14.445 9.40587 14.7858 10.0417 14.9628L10.8039 11.98C10.309 11.98 9.87911 11.6537 9.51665 11.3177C9.49378 11.2961 9.47089 11.2756 9.44802 11.2539C9.07472 12.1667 8.70142 13.0807 8.32812 13.9946L8.32933 13.9934Z" fill="#E3DCFF"/>
<path d="M6.00143 19.4436C6.1953 20.0553 6.81666 20.4503 7.44645 20.5755C7.84142 20.6538 8.24362 20.6454 8.64462 20.6129C8.88666 20.5936 9.12749 20.5647 9.36592 20.5382C10.0041 20.4696 10.6689 20.4286 11.2709 20.6514C11.9585 20.9043 12.5197 21.4775 13.135 21.8592C13.4758 22.0723 13.8322 22.2253 14.2356 22.2337C14.9401 22.247 15.5627 21.8014 16.1033 21.3498C16.644 20.8995 17.2028 20.4021 17.8964 20.2841C18.1167 20.2456 18.3395 20.2492 18.5611 20.2745C18.8236 20.3058 19.0849 20.3696 19.3402 20.4359C19.8134 20.5587 20.2927 20.696 20.7804 20.6659C21.2669 20.6346 21.7835 20.6008 21.9954 20.1613C19.6966 18.8126 18.2576 16.1201 18.4142 13.4588C18.4876 12.2101 18.879 10.9601 18.8091 9.72705C19.1246 9.76438 19.4425 9.77762 19.746 9.69213C20.1494 9.57893 20.5203 9.24417 20.5383 8.82632C20.5588 8.36632 20.1687 8.00025 19.7942 7.73292C18.7104 6.96104 17.2738 6.30596 15.8673 6.08198C15.429 6.01214 14.9943 5.98444 14.5728 6.00853C13.1459 6.08921 11.7201 6.80931 10.9314 7.97014C10.1595 9.1081 9.77896 10.458 9.41168 11.7826C8.98058 13.3408 8.54828 14.899 8.11718 16.4572C7.94258 17.0846 7.76556 17.7204 7.42598 18.2768C7.0876 18.8319 6.63845 19.3196 5.99902 19.4436H6.00143Z" fill="white"/>
<path d="M15.0641 8.42404C15.4121 8.91896 15.2579 9.67158 14.9039 10.1183C14.6823 10.3989 14.3355 10.6108 13.9911 10.7036C13.796 10.7565 13.5829 10.7626 13.3939 10.6927C13.141 10.5988 12.9941 10.3748 12.9266 10.1231C12.7954 9.63907 12.9098 9.09598 13.2204 8.70341C13.6178 8.20127 14.6029 7.76776 15.0641 8.42404Z" fill="#565656"/>
<path d="M13.2202 8.70264C13.5706 8.2595 14.3786 7.87054 14.8808 8.23662C14.4292 8.21976 13.9162 8.5184 13.6561 8.84714C13.3455 9.2397 13.2311 9.784 13.3623 10.2669C13.4129 10.4547 13.508 10.6281 13.6598 10.7425C13.5694 10.7389 13.4791 10.7233 13.3948 10.692C13.1419 10.598 12.995 10.374 12.9276 10.1224C12.7963 9.63829 12.9107 9.0952 13.2214 8.70264H13.2202Z" fill="#1E1E1E"/>
<path d="M11.487 7.95662C11.0499 8.14327 10.8427 8.70924 10.8945 9.15358C10.927 9.43295 11.0703 9.71714 11.2618 9.92065C11.3702 10.0363 11.5099 10.129 11.6652 10.1603C11.8723 10.2012 12.0638 10.1133 12.2119 9.97363C12.4985 9.7051 12.6478 9.29448 12.602 8.90432C12.5442 8.40458 12.065 7.70856 11.4858 7.95662H11.487Z" fill="#565656"/>
<path d="M11.4869 7.95721C11.6784 7.87533 11.859 7.89821 12.018 7.9825C11.953 7.98732 11.8867 8.00298 11.8193 8.03188C11.3822 8.21853 11.1751 8.78449 11.2268 9.22884C11.2594 9.50821 11.4026 9.79239 11.5941 9.9959C11.6591 10.0657 11.7362 10.1247 11.8205 10.1681C11.7699 10.1729 11.7181 10.1717 11.6652 10.1609C11.5098 10.1296 11.3701 10.038 11.2618 9.92124C11.0703 9.71653 10.927 9.43354 10.8945 9.15417C10.8427 8.70983 11.051 8.14386 11.4869 7.95721Z" fill="#1E1E1E"/>
<path d="M10.6665 10.7518C10.8399 10.5687 11.1132 10.5146 11.3649 10.5543C11.3613 10.6518 11.3986 10.7506 11.4685 10.818C11.5094 10.8565 11.5684 10.8866 11.6214 10.8662C11.666 10.8481 11.6888 10.8011 11.7129 10.759C11.725 10.7373 11.7406 10.7157 11.7587 10.6988C11.8791 10.765 11.9959 10.8385 12.1235 10.8939C12.3861 11.0059 12.669 11.0492 12.952 11.0625C12.993 11.0649 13.0339 11.0637 13.0736 11.0637C13.0773 11.0793 13.0797 11.095 13.0821 11.1106C13.0905 11.1552 13.1038 11.2046 13.1411 11.2298C13.1796 11.2551 13.2314 11.2479 13.2723 11.2274C13.3446 11.1925 13.394 11.1263 13.4349 11.0552C13.5722 11.0528 13.7095 11.0552 13.8443 11.0817C14.2116 11.1504 14.4428 11.4779 14.4067 11.8512C14.3802 12.127 14.2152 12.3774 14.0009 12.552C13.7853 12.7266 13.5228 12.8326 13.2555 12.9073C12.8436 13.0217 12.4065 13.065 11.9851 12.9916C11.5636 12.9181 11.1578 12.7218 10.8676 12.4063C10.5774 12.0908 10.4136 11.6537 10.4642 11.2286C10.4846 11.054 10.5449 10.8782 10.6653 10.7506L10.6665 10.7518Z" fill="#565656"/>
<path d="M12.8088 11.0522C12.857 11.0559 12.9052 11.0595 12.9533 11.0619C12.9943 11.0643 13.0352 11.0631 13.0749 11.0631C13.0786 11.0787 13.081 11.0944 13.0834 11.11C13.0834 11.1113 13.0834 11.1125 13.0834 11.1137C12.9907 11.098 12.8979 11.0787 12.8076 11.0522H12.8088Z" fill="#1E1E1E"/>
<path d="M10.6672 10.7523C10.8406 10.5692 11.114 10.515 11.3657 10.5548C11.3645 10.5993 11.3717 10.6439 11.3861 10.686C11.2982 10.7197 11.2175 10.7703 11.1525 10.8402C11.0321 10.9678 10.9719 11.1436 10.9514 11.3182C10.9008 11.7433 11.0646 12.1804 11.3548 12.4959C11.5872 12.7488 11.8955 12.9234 12.2254 13.0222C12.146 13.0161 12.0653 13.0077 11.987 12.9945C11.5656 12.921 11.1597 12.7247 10.8695 12.4092C10.5793 12.0937 10.4156 11.6566 10.4661 11.2315C10.4866 11.0569 10.5468 10.8811 10.6672 10.7535V10.7523Z" fill="#1E1E1E"/>
<path d="M15.8691 6.08203C16.1678 6.15669 16.4616 6.24821 16.7446 6.37104C17.3033 6.61187 17.8223 6.98758 18.1294 7.51261C18.4798 8.11229 18.5232 8.84925 18.4184 9.53443C18.3124 10.2208 18.0728 10.8783 17.8874 11.5478C17.0914 14.4162 17.3419 17.5603 18.5641 20.2746C18.8266 20.3059 19.0879 20.3697 19.3432 20.4359C19.8165 20.5587 20.2957 20.696 20.7834 20.6659C21.2699 20.6346 21.7865 20.6009 21.9984 20.1614C19.6997 18.8127 18.2607 16.1201 18.4172 13.4589C18.4907 12.2101 18.882 10.9602 18.8122 9.7271C19.1277 9.76443 19.4456 9.77767 19.749 9.69218C20.1524 9.57898 20.5233 9.24422 20.5414 8.82637C20.5618 8.36637 20.1717 8.0003 19.7972 7.73297C18.7134 6.96109 17.2768 6.30601 15.8703 6.08203H15.8691Z" fill="#E3DCFF"/>
<path d="M16.565 12.9653C16.0327 13.2061 15.4523 13.3362 14.8683 13.3446C14.2843 13.353 13.7039 13.164 13.1644 13.388C12.7032 13.5794 12.5009 14.0503 12.4684 14.5235C12.4358 14.9968 12.5743 15.5868 13.0668 15.7951C13.3221 15.9035 13.6087 15.8505 13.8315 15.6928C14.0759 15.5206 14.2229 15.2569 14.3312 14.9859L14.2433 15.022C14.8972 15.4796 15.7401 15.6326 16.5132 15.4399C16.5879 15.4218 16.5566 15.3062 16.4819 15.3243C15.7377 15.5097 14.9321 15.3568 14.3035 14.9185C14.2686 14.8944 14.2289 14.9209 14.2156 14.9546C14.1229 15.1882 13.9953 15.423 13.7905 15.576C13.6003 15.7181 13.3546 15.7807 13.1282 15.6928C12.6526 15.5073 12.549 14.9281 12.5912 14.4778C12.6117 14.2562 12.6719 14.031 12.7935 13.8431C12.9223 13.6433 13.1198 13.5132 13.3474 13.4518C13.5991 13.3844 13.8616 13.3952 14.1181 13.4181C14.3914 13.4422 14.6624 13.4711 14.9369 13.4626C15.5198 13.4458 16.0954 13.3097 16.6264 13.0689C16.6962 13.0376 16.636 12.934 16.5662 12.9653H16.565Z" fill="#E3DCFF"/>
<path d="M8.64573 20.6131C8.88777 20.5939 9.12861 20.565 9.36704 20.5385C10.0053 20.4698 10.67 20.4289 11.2721 20.6517C11.9596 20.9046 12.5208 21.4777 13.1361 21.8595C12.5786 21.2598 12.1656 20.5288 11.9368 19.7437C11.8645 19.492 11.7995 19.2175 11.602 19.0429C11.3299 18.8033 10.8976 18.8502 10.5857 19.0345C10.2738 19.2199 10.0462 19.5137 9.79091 19.7714C9.45735 20.111 9.0684 20.3952 8.64453 20.6119L8.64573 20.6131Z" fill="#E3DCFF"/>
</svg>
