<svg width="20" height="20" viewBox="0 0 20 20" fill="none" xmlns="http://www.w3.org/2000/svg">
<g id="icon/color" clip-path="url(#clip0_4084_3212)">
<circle id="Ellipse 619" cx="10.0002" cy="10" r="9.16667" fill="#5855FC"/>
<path id="P" d="M7.25 5.83337H10.5189C11.1366 5.83337 11.6699 5.95231 12.1188 6.19019C12.5677 6.42806 12.9091 6.75994 13.1432 7.18581C13.3811 7.60785 13.5 8.0932 13.5 8.64185C13.5 9.19817 13.3791 9.68927 13.1374 10.1151C12.8996 10.5372 12.5523 10.8652 12.0958 11.0993C11.643 11.3333 11.1021 11.4503 10.4728 11.4503H8.97652V14.1667H7.25V5.83337ZM10.1966 10.0576C10.6954 10.0576 11.0733 9.93098 11.3303 9.67776C11.5912 9.4207 11.7198 9.07539 11.7159 8.64185C11.7198 8.21597 11.5912 7.87834 11.3303 7.62895C11.0733 7.37957 10.6954 7.25296 10.1966 7.24912H8.97652V10.0576H10.1966Z" fill="#F4F5FF"/>
</g>
<defs>
<clipPath id="clip0_4084_3212">
<rect width="20" height="20" fill="white"/>
</clipPath>
</defs>
</svg>
