<svg width="24" height="24" viewBox="0 0 24 24" fill="none" xmlns="http://www.w3.org/2000/svg">
<path d="M14.7789 4.672C13.8709 4.454 12.9429 4.324 11.9999 4.324C7.78795 4.324 3.80495 6.585 1.18195 10.352C0.497945 11.334 0.497945 12.667 1.18195 13.649C1.82195 14.568 2.54495 15.393 3.32995 16.122L14.7789 4.672Z" fill="#565656"/>
<path d="M22.819 10.352C21.769 8.844 20.494 7.591 19.079 6.619L21.648 4.05C22.117 3.581 22.117 2.821 21.648 2.353C21.179 1.885 20.419 1.884 19.951 2.353L2.35199 19.95C1.88299 20.419 1.88299 21.179 2.35199 21.647C2.58599 21.881 2.89399 21.999 3.20099 21.999C3.50799 21.999 3.81499 21.882 4.04999 21.647L7.09399 18.603C8.64299 19.294 10.3 19.676 12 19.676C16.213 19.676 20.196 17.415 22.819 13.648C23.502 12.667 23.502 11.334 22.819 10.352ZM11.999 15.974C11.34 15.974 10.725 15.803 10.18 15.516L15.515 10.181C15.802 10.726 15.973 11.34 15.973 11.999C15.973 14.192 14.19 15.974 11.999 15.974Z" fill="#565656"/>
</svg>
