<svg width="20" height="20" viewBox="0 0 20 20" fill="none" xmlns="http://www.w3.org/2000/svg">
<g clip-path="url(#clip0_1007_621)">
<path d="M14.6221 7.18151L7.16755 1.24281C6.99447 1.10526 6.74356 1.14085 6.60601 1.31393L5.05704 3.2656C4.99125 3.34319 4.95531 3.45067 4.97909 3.55821C4.98497 3.65976 5.05057 3.76136 5.12815 3.82715C5.50416 4.13215 5.74267 4.5505 5.80192 5.02841C5.86118 5.50632 5.72333 5.97806 5.41833 6.35406C5.11333 6.73006 4.69497 6.96857 4.21706 7.02783C3.73916 7.08708 3.26742 6.94923 2.89141 6.64423C2.81383 6.57845 2.70635 6.54251 2.59881 6.56629C2.49726 6.57216 2.39565 6.63777 2.32987 6.71535L0.774965 8.6252C0.709184 8.70279 0.673239 8.81027 0.697024 8.91781C0.72081 9.02535 0.7685 9.12097 0.846085 9.18675L8.3066 15.1075L14.6221 7.18151Z" fill="#5855FC"/>
<path d="M18.9257 10.7518C18.9198 10.6502 18.8542 10.5486 18.7766 10.4829L15.4582 7.83945L9.13671 15.7834L12.4551 18.4268C12.485 18.4567 12.5387 18.4747 12.5745 18.4866C12.7358 18.5406 12.909 18.4989 13.0167 18.3557L14.5656 16.404C14.6314 16.3264 14.6674 16.2189 14.6436 16.1114C14.6377 16.0098 14.5721 15.9082 14.4945 15.8425C14.1185 15.5375 13.88 15.1191 13.8208 14.6412C13.7615 14.1633 13.8994 13.6915 14.2044 13.3155C14.5094 12.9395 14.9277 12.701 15.4056 12.6418C15.8835 12.5825 16.3553 12.7204 16.7313 13.0254C16.9044 13.1629 17.1553 13.1273 17.2928 12.9543L18.8418 11.0026C18.9135 10.9668 18.9315 10.8533 18.9257 10.7518Z" fill="#5855FC"/>
</g>
<defs>
<clipPath id="clip0_1007_621">
<rect width="20" height="20" fill="white"/>
</clipPath>
</defs>
</svg>
