<svg width="60" height="60" viewBox="0 0 60 60" fill="none" xmlns="http://www.w3.org/2000/svg">
<rect x="-0.00012207" width="60" height="60" rx="12" fill="#FEF6F0"/>
<path fill-rule="evenodd" clip-rule="evenodd" d="M38.1449 21.0733C38.145 22.1447 37.9341 23.2056 37.5242 24.1955C37.1143 25.1853 36.5134 26.0847 35.7559 26.8424C34.9985 27.6 34.0991 28.2011 33.1094 28.6112C32.1196 29.0213 31.0587 29.2324 29.9874 29.2325C27.8237 29.2327 25.7485 28.3734 24.2183 26.8436C22.6882 25.3137 21.8284 23.2387 21.8282 21.075C21.8281 20.0036 22.039 18.9427 22.4489 17.9529C22.8588 16.963 23.4596 16.0636 24.2171 15.3059C25.747 13.7758 27.822 12.9161 29.9857 12.9158C32.1494 12.9156 34.2246 13.7749 35.7548 15.3048C37.2849 16.8346 38.1447 18.9096 38.1449 21.0733ZM29.9865 31.7283C18.2382 31.7283 13.6682 39.205 13.6682 42.6833C13.6682 46.16 23.3965 47.0867 29.9865 47.0867C36.5765 47.0867 46.3049 46.16 46.3049 42.6833C46.3049 39.205 41.7349 31.7283 29.9865 31.7283Z" fill="#F5822C"/>
</svg>
