<svg width="20" height="20" viewBox="0 0 20 20" fill="none" xmlns="http://www.w3.org/2000/svg">
<g id="icon" clip-path="url(#clip0_232_6351)">
<path id="Vector" fill-rule="evenodd" clip-rule="evenodd" d="M10.0007 14.265C9.73543 14.265 9.48108 14.1596 9.29354 13.9721C9.10601 13.7845 9.00065 13.5302 9.00065 13.265C9.00065 12.9998 9.10601 12.7454 9.29354 12.5579C9.48108 12.3703 9.73543 12.265 10.0007 12.265C10.2659 12.265 10.5202 12.3703 10.7078 12.5579C10.8953 12.7454 11.0006 12.9998 11.0006 13.265C11.0006 13.5302 10.8953 13.7845 10.7078 13.9721C10.5202 14.1596 10.2659 14.265 10.0007 14.265ZM9.16732 6.06915C9.16732 5.84813 9.25511 5.63617 9.4114 5.47989C9.56767 5.32361 9.77964 5.23581 10.0007 5.23581C10.2217 5.23581 10.4336 5.32361 10.5899 5.47989C10.7462 5.63617 10.834 5.84813 10.834 6.06915V10.2358C10.834 10.4568 10.7462 10.6688 10.5899 10.8251C10.4336 10.9813 10.2217 11.0691 10.0007 11.0691C9.77964 11.0691 9.56767 10.9813 9.4114 10.8251C9.25511 10.6688 9.16732 10.4568 9.16732 10.2358V6.06915ZM10.0007 0.833313C4.93815 0.833313 0.833984 4.93748 0.833984 9.99998C0.833984 15.0633 4.93815 19.1666 10.0007 19.1666C15.0631 19.1666 19.1673 15.0633 19.1673 9.99998C19.1673 4.93748 15.0631 0.833313 10.0007 0.833313Z" fill="#FC5555"/>
</g>
<defs>
<clipPath id="clip0_232_6351">
<rect width="20" height="20" fill="white"/>
</clipPath>
</defs>
</svg>
